M48
; DRILL file {KiCad 9.0.6} date 2025-12-01T15:23:58-0500
; FORMAT={-:-/ absolute / metric / decimal}
; #@! TF.CreationDate,2025-12-01T15:23:58-05:00
; #@! TF.GenerationSoftware,Kicad,Pcbnew,9.0.6
; #@! TF.FileFunction,Plated,1,2,PTH
FMAT,2
METRIC
; #@! TA.AperFunction,Plated,PTH,ComponentDrill
T1C0.800
; #@! TA.AperFunction,Plated,PTH,ComponentDrill
T2C1.000
; #@! TA.AperFunction,Plated,PTH,ComponentDrill
T3C1.200
; #@! TA.AperFunction,Plated,PTH,ComponentDrill
T4C1.300
; #@! TA.AperFunction,Plated,PTH,ComponentDrill
T5C2.500
%
G90
G05
T1
X53.5Y-58.62
X57.5Y-106.69
X57.5Y-114.31
X57.5Y-126.69
X57.5Y-134.31
X57.5Y-146.69
X57.5Y-154.31
X57.5Y-166.69
X57.5Y-174.31
X62.0Y-37.62
X63.66Y-58.62
X67.0Y-37.62
X82.0Y-106.88
X82.0Y-114.5
X82.0Y-126.69
X82.0Y-134.31
X82.0Y-146.69
X82.0Y-154.31
X82.0Y-166.69
X82.0Y-174.31
X105.0Y-106.69
X105.0Y-114.31
X105.0Y-126.69
X105.0Y-134.31
X105.0Y-146.69
X105.0Y-154.31
X105.0Y-166.69
X105.0Y-174.31
X129.75Y-106.69
X129.75Y-114.31
X129.75Y-126.69
X129.75Y-134.31
X129.75Y-146.69
X129.75Y-154.31
X129.75Y-166.69
X129.75Y-174.31
T2
X54.5Y-66.0
X54.5Y-68.5
X54.5Y-71.0
X54.5Y-73.5
X54.5Y-76.0
X54.5Y-78.5
X54.5Y-81.0
X54.5Y-83.5
X54.5Y-86.0
X54.5Y-88.5
X57.0Y-66.0
X57.0Y-68.5
X57.0Y-71.0
X57.0Y-73.5
X57.0Y-76.0
X57.0Y-78.5
X57.0Y-81.0
X57.0Y-83.5
X57.0Y-86.0
X57.0Y-88.5
X59.5Y-66.0
X59.5Y-68.5
X59.5Y-71.0
X59.5Y-73.5
X59.5Y-76.0
X59.5Y-78.5
X59.5Y-81.0
X59.5Y-83.5
X59.5Y-86.0
X59.5Y-88.5
X62.0Y-66.0
X62.0Y-68.5
X62.0Y-71.0
X62.0Y-73.5
X62.0Y-76.0
X62.0Y-78.5
X62.0Y-81.0
X62.0Y-83.5
X62.0Y-86.0
X62.0Y-88.5
X64.5Y-66.0
X64.5Y-68.5
X64.5Y-71.0
X64.5Y-73.5
X64.5Y-76.0
X64.5Y-78.5
X64.5Y-81.0
X64.5Y-83.5
X64.5Y-86.0
X64.5Y-88.5
X73.6Y-33.5
X76.14Y-33.5
X78.68Y-33.5
X81.22Y-33.5
X83.76Y-33.5
X86.3Y-33.5
X88.84Y-33.5
X91.38Y-33.5
X93.92Y-33.5
X96.46Y-33.5
X99.0Y-33.5
X101.54Y-33.5
X104.08Y-33.5
X106.62Y-33.5
X109.16Y-33.5
X111.7Y-33.5
X114.24Y-33.5
X116.78Y-33.5
T3
X78.0Y-45.12
X80.54Y-45.12
X83.08Y-45.12
X85.62Y-45.12
X88.16Y-45.12
X90.7Y-45.12
X93.24Y-45.12
X95.78Y-45.12
X98.32Y-45.12
X100.86Y-45.12
X103.4Y-45.12
X105.94Y-45.12
X108.48Y-45.12
X111.02Y-45.12
X113.56Y-45.12
X116.1Y-45.12
T4
X56.0Y-43.12
X58.5Y-53.12
X61.0Y-43.12
X62.0Y-109.5
X62.0Y-114.5
X62.0Y-129.5
X62.0Y-134.5
X62.0Y-149.5
X62.0Y-154.5
X62.0Y-169.5
X62.0Y-174.5
X74.5Y-109.5
X74.5Y-114.5
X74.5Y-129.5
X74.5Y-134.5
X74.5Y-149.5
X74.5Y-154.5
X74.5Y-169.5
X74.5Y-174.5
X86.5Y-109.5
X86.5Y-114.5
X86.5Y-129.5
X86.5Y-134.5
X86.5Y-149.5
X86.5Y-154.5
X86.5Y-169.5
X86.5Y-174.5
X99.0Y-109.5
X99.0Y-114.5
X99.0Y-129.5
X99.0Y-134.5
X99.0Y-149.5
X99.0Y-154.5
X99.0Y-169.5
X99.0Y-174.5
X109.5Y-109.5
X109.5Y-114.5
X109.5Y-129.5
X109.5Y-134.5
X109.5Y-149.5
X109.5Y-154.5
X109.5Y-169.5
X109.5Y-174.5
X122.0Y-109.5
X122.0Y-114.5
X122.0Y-129.5
X122.0Y-134.5
X122.0Y-149.5
X122.0Y-154.5
X122.0Y-169.5
X122.0Y-174.5
X134.25Y-109.5
X134.25Y-114.5
X134.25Y-129.5
X134.25Y-134.5
X134.25Y-149.5
X134.25Y-154.5
X134.25Y-169.5
X134.25Y-174.5
X146.75Y-109.5
X146.75Y-114.5
X146.75Y-129.5
X146.75Y-134.5
X146.75Y-149.5
X146.75Y-154.5
X146.75Y-169.5
X146.75Y-174.5
T5
X72.501Y-45.12
X72.501Y-76.121
X147.499Y-76.121
X147.5Y-45.12
M30
