%TF.GenerationSoftware,KiCad,Pcbnew,9.0.6*%
%TF.CreationDate,2025-12-01T15:24:05-05:00*%
%TF.ProjectId,65C816,36354338-3136-42e6-9b69-6361645f7063,rev?*%
%TF.SameCoordinates,Original*%
%TF.FileFunction,Legend,Top*%
%TF.FilePolarity,Positive*%
%FSLAX46Y46*%
G04 Gerber Fmt 4.6, Leading zero omitted, Abs format (unit mm)*
G04 Created by KiCad (PCBNEW 9.0.6) date 2025-12-01 15:24:05*
%MOMM*%
%LPD*%
G01*
G04 APERTURE LIST*
%ADD10C,0.100000*%
%ADD11C,0.150000*%
%ADD12C,0.120000*%
G04 APERTURE END LIST*
D10*
X53494360Y-62872419D02*
X53684836Y-62872419D01*
X53684836Y-62872419D02*
X53780074Y-62920038D01*
X53780074Y-62920038D02*
X53875312Y-63015276D01*
X53875312Y-63015276D02*
X53922931Y-63205752D01*
X53922931Y-63205752D02*
X53922931Y-63539085D01*
X53922931Y-63539085D02*
X53875312Y-63729561D01*
X53875312Y-63729561D02*
X53780074Y-63824800D01*
X53780074Y-63824800D02*
X53684836Y-63872419D01*
X53684836Y-63872419D02*
X53494360Y-63872419D01*
X53494360Y-63872419D02*
X53399122Y-63824800D01*
X53399122Y-63824800D02*
X53303884Y-63729561D01*
X53303884Y-63729561D02*
X53256265Y-63539085D01*
X53256265Y-63539085D02*
X53256265Y-63205752D01*
X53256265Y-63205752D02*
X53303884Y-63015276D01*
X53303884Y-63015276D02*
X53399122Y-62920038D01*
X53399122Y-62920038D02*
X53494360Y-62872419D01*
X54494360Y-63872419D02*
X54399122Y-63824800D01*
X54399122Y-63824800D02*
X54351503Y-63777180D01*
X54351503Y-63777180D02*
X54303884Y-63681942D01*
X54303884Y-63681942D02*
X54303884Y-63396228D01*
X54303884Y-63396228D02*
X54351503Y-63300990D01*
X54351503Y-63300990D02*
X54399122Y-63253371D01*
X54399122Y-63253371D02*
X54494360Y-63205752D01*
X54494360Y-63205752D02*
X54637217Y-63205752D01*
X54637217Y-63205752D02*
X54732455Y-63253371D01*
X54732455Y-63253371D02*
X54780074Y-63300990D01*
X54780074Y-63300990D02*
X54827693Y-63396228D01*
X54827693Y-63396228D02*
X54827693Y-63681942D01*
X54827693Y-63681942D02*
X54780074Y-63777180D01*
X54780074Y-63777180D02*
X54732455Y-63824800D01*
X54732455Y-63824800D02*
X54637217Y-63872419D01*
X54637217Y-63872419D02*
X54494360Y-63872419D01*
X55256265Y-63205752D02*
X55256265Y-64205752D01*
X55256265Y-63253371D02*
X55351503Y-63205752D01*
X55351503Y-63205752D02*
X55541979Y-63205752D01*
X55541979Y-63205752D02*
X55637217Y-63253371D01*
X55637217Y-63253371D02*
X55684836Y-63300990D01*
X55684836Y-63300990D02*
X55732455Y-63396228D01*
X55732455Y-63396228D02*
X55732455Y-63681942D01*
X55732455Y-63681942D02*
X55684836Y-63777180D01*
X55684836Y-63777180D02*
X55637217Y-63824800D01*
X55637217Y-63824800D02*
X55541979Y-63872419D01*
X55541979Y-63872419D02*
X55351503Y-63872419D01*
X55351503Y-63872419D02*
X55256265Y-63824800D01*
X56113408Y-63824800D02*
X56208646Y-63872419D01*
X56208646Y-63872419D02*
X56399122Y-63872419D01*
X56399122Y-63872419D02*
X56494360Y-63824800D01*
X56494360Y-63824800D02*
X56541979Y-63729561D01*
X56541979Y-63729561D02*
X56541979Y-63681942D01*
X56541979Y-63681942D02*
X56494360Y-63586704D01*
X56494360Y-63586704D02*
X56399122Y-63539085D01*
X56399122Y-63539085D02*
X56256265Y-63539085D01*
X56256265Y-63539085D02*
X56161027Y-63491466D01*
X56161027Y-63491466D02*
X56113408Y-63396228D01*
X56113408Y-63396228D02*
X56113408Y-63348609D01*
X56113408Y-63348609D02*
X56161027Y-63253371D01*
X56161027Y-63253371D02*
X56256265Y-63205752D01*
X56256265Y-63205752D02*
X56399122Y-63205752D01*
X56399122Y-63205752D02*
X56494360Y-63253371D01*
X56970551Y-63872419D02*
X56970551Y-63205752D01*
X56970551Y-62872419D02*
X56922932Y-62920038D01*
X56922932Y-62920038D02*
X56970551Y-62967657D01*
X56970551Y-62967657D02*
X57018170Y-62920038D01*
X57018170Y-62920038D02*
X56970551Y-62872419D01*
X56970551Y-62872419D02*
X56970551Y-62967657D01*
X57827693Y-63824800D02*
X57732455Y-63872419D01*
X57732455Y-63872419D02*
X57541979Y-63872419D01*
X57541979Y-63872419D02*
X57446741Y-63824800D01*
X57446741Y-63824800D02*
X57399122Y-63729561D01*
X57399122Y-63729561D02*
X57399122Y-63348609D01*
X57399122Y-63348609D02*
X57446741Y-63253371D01*
X57446741Y-63253371D02*
X57541979Y-63205752D01*
X57541979Y-63205752D02*
X57732455Y-63205752D01*
X57732455Y-63205752D02*
X57827693Y-63253371D01*
X57827693Y-63253371D02*
X57875312Y-63348609D01*
X57875312Y-63348609D02*
X57875312Y-63443847D01*
X57875312Y-63443847D02*
X57399122Y-63539085D01*
X58970551Y-63205752D02*
X59494360Y-63205752D01*
X59494360Y-63205752D02*
X58970551Y-63872419D01*
X58970551Y-63872419D02*
X59494360Y-63872419D01*
X60018170Y-63872419D02*
X59922932Y-63824800D01*
X59922932Y-63824800D02*
X59875313Y-63777180D01*
X59875313Y-63777180D02*
X59827694Y-63681942D01*
X59827694Y-63681942D02*
X59827694Y-63396228D01*
X59827694Y-63396228D02*
X59875313Y-63300990D01*
X59875313Y-63300990D02*
X59922932Y-63253371D01*
X59922932Y-63253371D02*
X60018170Y-63205752D01*
X60018170Y-63205752D02*
X60161027Y-63205752D01*
X60161027Y-63205752D02*
X60256265Y-63253371D01*
X60256265Y-63253371D02*
X60303884Y-63300990D01*
X60303884Y-63300990D02*
X60351503Y-63396228D01*
X60351503Y-63396228D02*
X60351503Y-63681942D01*
X60351503Y-63681942D02*
X60303884Y-63777180D01*
X60303884Y-63777180D02*
X60256265Y-63824800D01*
X60256265Y-63824800D02*
X60161027Y-63872419D01*
X60161027Y-63872419D02*
X60018170Y-63872419D01*
X60780075Y-63205752D02*
X60780075Y-63872419D01*
X60780075Y-63300990D02*
X60827694Y-63253371D01*
X60827694Y-63253371D02*
X60922932Y-63205752D01*
X60922932Y-63205752D02*
X61065789Y-63205752D01*
X61065789Y-63205752D02*
X61161027Y-63253371D01*
X61161027Y-63253371D02*
X61208646Y-63348609D01*
X61208646Y-63348609D02*
X61208646Y-63872419D01*
X62065789Y-63824800D02*
X61970551Y-63872419D01*
X61970551Y-63872419D02*
X61780075Y-63872419D01*
X61780075Y-63872419D02*
X61684837Y-63824800D01*
X61684837Y-63824800D02*
X61637218Y-63729561D01*
X61637218Y-63729561D02*
X61637218Y-63348609D01*
X61637218Y-63348609D02*
X61684837Y-63253371D01*
X61684837Y-63253371D02*
X61780075Y-63205752D01*
X61780075Y-63205752D02*
X61970551Y-63205752D01*
X61970551Y-63205752D02*
X62065789Y-63253371D01*
X62065789Y-63253371D02*
X62113408Y-63348609D01*
X62113408Y-63348609D02*
X62113408Y-63443847D01*
X62113408Y-63443847D02*
X61637218Y-63539085D01*
X62541980Y-63777180D02*
X62589599Y-63824800D01*
X62589599Y-63824800D02*
X62541980Y-63872419D01*
X62541980Y-63872419D02*
X62494361Y-63824800D01*
X62494361Y-63824800D02*
X62541980Y-63777180D01*
X62541980Y-63777180D02*
X62541980Y-63872419D01*
X62541980Y-63253371D02*
X62589599Y-63300990D01*
X62589599Y-63300990D02*
X62541980Y-63348609D01*
X62541980Y-63348609D02*
X62494361Y-63300990D01*
X62494361Y-63300990D02*
X62541980Y-63253371D01*
X62541980Y-63253371D02*
X62541980Y-63348609D01*
X53000000Y-64500000D02*
X66000000Y-64500000D01*
X66000000Y-90000000D01*
X53000000Y-90000000D01*
X53000000Y-64500000D01*
X77861307Y-59492079D02*
X78432735Y-59492079D01*
X78147021Y-60492079D02*
X78147021Y-59492079D01*
X78766069Y-60492079D02*
X78766069Y-59492079D01*
X79194640Y-60492079D02*
X79194640Y-59968269D01*
X79194640Y-59968269D02*
X79147021Y-59873031D01*
X79147021Y-59873031D02*
X79051783Y-59825412D01*
X79051783Y-59825412D02*
X78908926Y-59825412D01*
X78908926Y-59825412D02*
X78813688Y-59873031D01*
X78813688Y-59873031D02*
X78766069Y-59920650D01*
X79670831Y-60492079D02*
X79670831Y-59825412D01*
X79670831Y-59492079D02*
X79623212Y-59539698D01*
X79623212Y-59539698D02*
X79670831Y-59587317D01*
X79670831Y-59587317D02*
X79718450Y-59539698D01*
X79718450Y-59539698D02*
X79670831Y-59492079D01*
X79670831Y-59492079D02*
X79670831Y-59587317D01*
X80099402Y-60444460D02*
X80194640Y-60492079D01*
X80194640Y-60492079D02*
X80385116Y-60492079D01*
X80385116Y-60492079D02*
X80480354Y-60444460D01*
X80480354Y-60444460D02*
X80527973Y-60349221D01*
X80527973Y-60349221D02*
X80527973Y-60301602D01*
X80527973Y-60301602D02*
X80480354Y-60206364D01*
X80480354Y-60206364D02*
X80385116Y-60158745D01*
X80385116Y-60158745D02*
X80242259Y-60158745D01*
X80242259Y-60158745D02*
X80147021Y-60111126D01*
X80147021Y-60111126D02*
X80099402Y-60015888D01*
X80099402Y-60015888D02*
X80099402Y-59968269D01*
X80099402Y-59968269D02*
X80147021Y-59873031D01*
X80147021Y-59873031D02*
X80242259Y-59825412D01*
X80242259Y-59825412D02*
X80385116Y-59825412D01*
X80385116Y-59825412D02*
X80480354Y-59873031D01*
X81670831Y-60444460D02*
X81766069Y-60492079D01*
X81766069Y-60492079D02*
X81956545Y-60492079D01*
X81956545Y-60492079D02*
X82051783Y-60444460D01*
X82051783Y-60444460D02*
X82099402Y-60349221D01*
X82099402Y-60349221D02*
X82099402Y-60301602D01*
X82099402Y-60301602D02*
X82051783Y-60206364D01*
X82051783Y-60206364D02*
X81956545Y-60158745D01*
X81956545Y-60158745D02*
X81813688Y-60158745D01*
X81813688Y-60158745D02*
X81718450Y-60111126D01*
X81718450Y-60111126D02*
X81670831Y-60015888D01*
X81670831Y-60015888D02*
X81670831Y-59968269D01*
X81670831Y-59968269D02*
X81718450Y-59873031D01*
X81718450Y-59873031D02*
X81813688Y-59825412D01*
X81813688Y-59825412D02*
X81956545Y-59825412D01*
X81956545Y-59825412D02*
X82051783Y-59873031D01*
X82527974Y-60492079D02*
X82527974Y-59492079D01*
X82956545Y-60492079D02*
X82956545Y-59968269D01*
X82956545Y-59968269D02*
X82908926Y-59873031D01*
X82908926Y-59873031D02*
X82813688Y-59825412D01*
X82813688Y-59825412D02*
X82670831Y-59825412D01*
X82670831Y-59825412D02*
X82575593Y-59873031D01*
X82575593Y-59873031D02*
X82527974Y-59920650D01*
X83575593Y-60492079D02*
X83480355Y-60444460D01*
X83480355Y-60444460D02*
X83432736Y-60396840D01*
X83432736Y-60396840D02*
X83385117Y-60301602D01*
X83385117Y-60301602D02*
X83385117Y-60015888D01*
X83385117Y-60015888D02*
X83432736Y-59920650D01*
X83432736Y-59920650D02*
X83480355Y-59873031D01*
X83480355Y-59873031D02*
X83575593Y-59825412D01*
X83575593Y-59825412D02*
X83718450Y-59825412D01*
X83718450Y-59825412D02*
X83813688Y-59873031D01*
X83813688Y-59873031D02*
X83861307Y-59920650D01*
X83861307Y-59920650D02*
X83908926Y-60015888D01*
X83908926Y-60015888D02*
X83908926Y-60301602D01*
X83908926Y-60301602D02*
X83861307Y-60396840D01*
X83861307Y-60396840D02*
X83813688Y-60444460D01*
X83813688Y-60444460D02*
X83718450Y-60492079D01*
X83718450Y-60492079D02*
X83575593Y-60492079D01*
X84766069Y-59825412D02*
X84766069Y-60492079D01*
X84337498Y-59825412D02*
X84337498Y-60349221D01*
X84337498Y-60349221D02*
X84385117Y-60444460D01*
X84385117Y-60444460D02*
X84480355Y-60492079D01*
X84480355Y-60492079D02*
X84623212Y-60492079D01*
X84623212Y-60492079D02*
X84718450Y-60444460D01*
X84718450Y-60444460D02*
X84766069Y-60396840D01*
X85385117Y-60492079D02*
X85289879Y-60444460D01*
X85289879Y-60444460D02*
X85242260Y-60349221D01*
X85242260Y-60349221D02*
X85242260Y-59492079D01*
X86194641Y-60492079D02*
X86194641Y-59492079D01*
X86194641Y-60444460D02*
X86099403Y-60492079D01*
X86099403Y-60492079D02*
X85908927Y-60492079D01*
X85908927Y-60492079D02*
X85813689Y-60444460D01*
X85813689Y-60444460D02*
X85766070Y-60396840D01*
X85766070Y-60396840D02*
X85718451Y-60301602D01*
X85718451Y-60301602D02*
X85718451Y-60015888D01*
X85718451Y-60015888D02*
X85766070Y-59920650D01*
X85766070Y-59920650D02*
X85813689Y-59873031D01*
X85813689Y-59873031D02*
X85908927Y-59825412D01*
X85908927Y-59825412D02*
X86099403Y-59825412D01*
X86099403Y-59825412D02*
X86194641Y-59873031D01*
X87432737Y-60492079D02*
X87432737Y-59492079D01*
X87432737Y-59873031D02*
X87527975Y-59825412D01*
X87527975Y-59825412D02*
X87718451Y-59825412D01*
X87718451Y-59825412D02*
X87813689Y-59873031D01*
X87813689Y-59873031D02*
X87861308Y-59920650D01*
X87861308Y-59920650D02*
X87908927Y-60015888D01*
X87908927Y-60015888D02*
X87908927Y-60301602D01*
X87908927Y-60301602D02*
X87861308Y-60396840D01*
X87861308Y-60396840D02*
X87813689Y-60444460D01*
X87813689Y-60444460D02*
X87718451Y-60492079D01*
X87718451Y-60492079D02*
X87527975Y-60492079D01*
X87527975Y-60492079D02*
X87432737Y-60444460D01*
X88718451Y-60444460D02*
X88623213Y-60492079D01*
X88623213Y-60492079D02*
X88432737Y-60492079D01*
X88432737Y-60492079D02*
X88337499Y-60444460D01*
X88337499Y-60444460D02*
X88289880Y-60349221D01*
X88289880Y-60349221D02*
X88289880Y-59968269D01*
X88289880Y-59968269D02*
X88337499Y-59873031D01*
X88337499Y-59873031D02*
X88432737Y-59825412D01*
X88432737Y-59825412D02*
X88623213Y-59825412D01*
X88623213Y-59825412D02*
X88718451Y-59873031D01*
X88718451Y-59873031D02*
X88766070Y-59968269D01*
X88766070Y-59968269D02*
X88766070Y-60063507D01*
X88766070Y-60063507D02*
X88289880Y-60158745D01*
X89956547Y-60492079D02*
X89956547Y-59492079D01*
X89956547Y-59873031D02*
X90051785Y-59825412D01*
X90051785Y-59825412D02*
X90242261Y-59825412D01*
X90242261Y-59825412D02*
X90337499Y-59873031D01*
X90337499Y-59873031D02*
X90385118Y-59920650D01*
X90385118Y-59920650D02*
X90432737Y-60015888D01*
X90432737Y-60015888D02*
X90432737Y-60301602D01*
X90432737Y-60301602D02*
X90385118Y-60396840D01*
X90385118Y-60396840D02*
X90337499Y-60444460D01*
X90337499Y-60444460D02*
X90242261Y-60492079D01*
X90242261Y-60492079D02*
X90051785Y-60492079D01*
X90051785Y-60492079D02*
X89956547Y-60444460D01*
X90861309Y-60492079D02*
X90861309Y-59825412D01*
X90861309Y-59492079D02*
X90813690Y-59539698D01*
X90813690Y-59539698D02*
X90861309Y-59587317D01*
X90861309Y-59587317D02*
X90908928Y-59539698D01*
X90908928Y-59539698D02*
X90861309Y-59492079D01*
X90861309Y-59492079D02*
X90861309Y-59587317D01*
X91766070Y-59825412D02*
X91766070Y-60634936D01*
X91766070Y-60634936D02*
X91718451Y-60730174D01*
X91718451Y-60730174D02*
X91670832Y-60777793D01*
X91670832Y-60777793D02*
X91575594Y-60825412D01*
X91575594Y-60825412D02*
X91432737Y-60825412D01*
X91432737Y-60825412D02*
X91337499Y-60777793D01*
X91766070Y-60444460D02*
X91670832Y-60492079D01*
X91670832Y-60492079D02*
X91480356Y-60492079D01*
X91480356Y-60492079D02*
X91385118Y-60444460D01*
X91385118Y-60444460D02*
X91337499Y-60396840D01*
X91337499Y-60396840D02*
X91289880Y-60301602D01*
X91289880Y-60301602D02*
X91289880Y-60015888D01*
X91289880Y-60015888D02*
X91337499Y-59920650D01*
X91337499Y-59920650D02*
X91385118Y-59873031D01*
X91385118Y-59873031D02*
X91480356Y-59825412D01*
X91480356Y-59825412D02*
X91670832Y-59825412D01*
X91670832Y-59825412D02*
X91766070Y-59873031D01*
X93385118Y-60444460D02*
X93289880Y-60492079D01*
X93289880Y-60492079D02*
X93099404Y-60492079D01*
X93099404Y-60492079D02*
X93004166Y-60444460D01*
X93004166Y-60444460D02*
X92956547Y-60349221D01*
X92956547Y-60349221D02*
X92956547Y-59968269D01*
X92956547Y-59968269D02*
X93004166Y-59873031D01*
X93004166Y-59873031D02*
X93099404Y-59825412D01*
X93099404Y-59825412D02*
X93289880Y-59825412D01*
X93289880Y-59825412D02*
X93385118Y-59873031D01*
X93385118Y-59873031D02*
X93432737Y-59968269D01*
X93432737Y-59968269D02*
X93432737Y-60063507D01*
X93432737Y-60063507D02*
X92956547Y-60158745D01*
X93861309Y-59825412D02*
X93861309Y-60492079D01*
X93861309Y-59920650D02*
X93908928Y-59873031D01*
X93908928Y-59873031D02*
X94004166Y-59825412D01*
X94004166Y-59825412D02*
X94147023Y-59825412D01*
X94147023Y-59825412D02*
X94242261Y-59873031D01*
X94242261Y-59873031D02*
X94289880Y-59968269D01*
X94289880Y-59968269D02*
X94289880Y-60492079D01*
X94908928Y-60492079D02*
X94813690Y-60444460D01*
X94813690Y-60444460D02*
X94766071Y-60396840D01*
X94766071Y-60396840D02*
X94718452Y-60301602D01*
X94718452Y-60301602D02*
X94718452Y-60015888D01*
X94718452Y-60015888D02*
X94766071Y-59920650D01*
X94766071Y-59920650D02*
X94813690Y-59873031D01*
X94813690Y-59873031D02*
X94908928Y-59825412D01*
X94908928Y-59825412D02*
X95051785Y-59825412D01*
X95051785Y-59825412D02*
X95147023Y-59873031D01*
X95147023Y-59873031D02*
X95194642Y-59920650D01*
X95194642Y-59920650D02*
X95242261Y-60015888D01*
X95242261Y-60015888D02*
X95242261Y-60301602D01*
X95242261Y-60301602D02*
X95194642Y-60396840D01*
X95194642Y-60396840D02*
X95147023Y-60444460D01*
X95147023Y-60444460D02*
X95051785Y-60492079D01*
X95051785Y-60492079D02*
X94908928Y-60492079D01*
X96099404Y-59825412D02*
X96099404Y-60492079D01*
X95670833Y-59825412D02*
X95670833Y-60349221D01*
X95670833Y-60349221D02*
X95718452Y-60444460D01*
X95718452Y-60444460D02*
X95813690Y-60492079D01*
X95813690Y-60492079D02*
X95956547Y-60492079D01*
X95956547Y-60492079D02*
X96051785Y-60444460D01*
X96051785Y-60444460D02*
X96099404Y-60396840D01*
X97004166Y-59825412D02*
X97004166Y-60634936D01*
X97004166Y-60634936D02*
X96956547Y-60730174D01*
X96956547Y-60730174D02*
X96908928Y-60777793D01*
X96908928Y-60777793D02*
X96813690Y-60825412D01*
X96813690Y-60825412D02*
X96670833Y-60825412D01*
X96670833Y-60825412D02*
X96575595Y-60777793D01*
X97004166Y-60444460D02*
X96908928Y-60492079D01*
X96908928Y-60492079D02*
X96718452Y-60492079D01*
X96718452Y-60492079D02*
X96623214Y-60444460D01*
X96623214Y-60444460D02*
X96575595Y-60396840D01*
X96575595Y-60396840D02*
X96527976Y-60301602D01*
X96527976Y-60301602D02*
X96527976Y-60015888D01*
X96527976Y-60015888D02*
X96575595Y-59920650D01*
X96575595Y-59920650D02*
X96623214Y-59873031D01*
X96623214Y-59873031D02*
X96718452Y-59825412D01*
X96718452Y-59825412D02*
X96908928Y-59825412D01*
X96908928Y-59825412D02*
X97004166Y-59873031D01*
X97480357Y-60492079D02*
X97480357Y-59492079D01*
X97908928Y-60492079D02*
X97908928Y-59968269D01*
X97908928Y-59968269D02*
X97861309Y-59873031D01*
X97861309Y-59873031D02*
X97766071Y-59825412D01*
X97766071Y-59825412D02*
X97623214Y-59825412D01*
X97623214Y-59825412D02*
X97527976Y-59873031D01*
X97527976Y-59873031D02*
X97480357Y-59920650D01*
X99004167Y-59825412D02*
X99385119Y-59825412D01*
X99147024Y-60492079D02*
X99147024Y-59634936D01*
X99147024Y-59634936D02*
X99194643Y-59539698D01*
X99194643Y-59539698D02*
X99289881Y-59492079D01*
X99289881Y-59492079D02*
X99385119Y-59492079D01*
X99861310Y-60492079D02*
X99766072Y-60444460D01*
X99766072Y-60444460D02*
X99718453Y-60396840D01*
X99718453Y-60396840D02*
X99670834Y-60301602D01*
X99670834Y-60301602D02*
X99670834Y-60015888D01*
X99670834Y-60015888D02*
X99718453Y-59920650D01*
X99718453Y-59920650D02*
X99766072Y-59873031D01*
X99766072Y-59873031D02*
X99861310Y-59825412D01*
X99861310Y-59825412D02*
X100004167Y-59825412D01*
X100004167Y-59825412D02*
X100099405Y-59873031D01*
X100099405Y-59873031D02*
X100147024Y-59920650D01*
X100147024Y-59920650D02*
X100194643Y-60015888D01*
X100194643Y-60015888D02*
X100194643Y-60301602D01*
X100194643Y-60301602D02*
X100147024Y-60396840D01*
X100147024Y-60396840D02*
X100099405Y-60444460D01*
X100099405Y-60444460D02*
X100004167Y-60492079D01*
X100004167Y-60492079D02*
X99861310Y-60492079D01*
X100623215Y-60492079D02*
X100623215Y-59825412D01*
X100623215Y-60015888D02*
X100670834Y-59920650D01*
X100670834Y-59920650D02*
X100718453Y-59873031D01*
X100718453Y-59873031D02*
X100813691Y-59825412D01*
X100813691Y-59825412D02*
X100908929Y-59825412D01*
X102432739Y-60492079D02*
X102432739Y-59968269D01*
X102432739Y-59968269D02*
X102385120Y-59873031D01*
X102385120Y-59873031D02*
X102289882Y-59825412D01*
X102289882Y-59825412D02*
X102099406Y-59825412D01*
X102099406Y-59825412D02*
X102004168Y-59873031D01*
X102432739Y-60444460D02*
X102337501Y-60492079D01*
X102337501Y-60492079D02*
X102099406Y-60492079D01*
X102099406Y-60492079D02*
X102004168Y-60444460D01*
X102004168Y-60444460D02*
X101956549Y-60349221D01*
X101956549Y-60349221D02*
X101956549Y-60253983D01*
X101956549Y-60253983D02*
X102004168Y-60158745D01*
X102004168Y-60158745D02*
X102099406Y-60111126D01*
X102099406Y-60111126D02*
X102337501Y-60111126D01*
X102337501Y-60111126D02*
X102432739Y-60063507D01*
X103623216Y-59587317D02*
X103670835Y-59539698D01*
X103670835Y-59539698D02*
X103766073Y-59492079D01*
X103766073Y-59492079D02*
X104004168Y-59492079D01*
X104004168Y-59492079D02*
X104099406Y-59539698D01*
X104099406Y-59539698D02*
X104147025Y-59587317D01*
X104147025Y-59587317D02*
X104194644Y-59682555D01*
X104194644Y-59682555D02*
X104194644Y-59777793D01*
X104194644Y-59777793D02*
X104147025Y-59920650D01*
X104147025Y-59920650D02*
X103575597Y-60492079D01*
X103575597Y-60492079D02*
X104194644Y-60492079D01*
X104813692Y-59492079D02*
X104908930Y-59492079D01*
X104908930Y-59492079D02*
X105004168Y-59539698D01*
X105004168Y-59539698D02*
X105051787Y-59587317D01*
X105051787Y-59587317D02*
X105099406Y-59682555D01*
X105099406Y-59682555D02*
X105147025Y-59873031D01*
X105147025Y-59873031D02*
X105147025Y-60111126D01*
X105147025Y-60111126D02*
X105099406Y-60301602D01*
X105099406Y-60301602D02*
X105051787Y-60396840D01*
X105051787Y-60396840D02*
X105004168Y-60444460D01*
X105004168Y-60444460D02*
X104908930Y-60492079D01*
X104908930Y-60492079D02*
X104813692Y-60492079D01*
X104813692Y-60492079D02*
X104718454Y-60444460D01*
X104718454Y-60444460D02*
X104670835Y-60396840D01*
X104670835Y-60396840D02*
X104623216Y-60301602D01*
X104623216Y-60301602D02*
X104575597Y-60111126D01*
X104575597Y-60111126D02*
X104575597Y-59873031D01*
X104575597Y-59873031D02*
X104623216Y-59682555D01*
X104623216Y-59682555D02*
X104670835Y-59587317D01*
X104670835Y-59587317D02*
X104718454Y-59539698D01*
X104718454Y-59539698D02*
X104813692Y-59492079D01*
X105480359Y-60492079D02*
X106004168Y-59825412D01*
X105480359Y-59825412D02*
X106004168Y-60492079D01*
X106813692Y-59825412D02*
X106813692Y-60492079D01*
X106575597Y-59444460D02*
X106337502Y-60158745D01*
X106337502Y-60158745D02*
X106956549Y-60158745D01*
X107480359Y-60396840D02*
X107527978Y-60444460D01*
X107527978Y-60444460D02*
X107480359Y-60492079D01*
X107480359Y-60492079D02*
X107432740Y-60444460D01*
X107432740Y-60444460D02*
X107480359Y-60396840D01*
X107480359Y-60396840D02*
X107480359Y-60492079D01*
X107289883Y-59539698D02*
X107385121Y-59492079D01*
X107385121Y-59492079D02*
X107623216Y-59492079D01*
X107623216Y-59492079D02*
X107718454Y-59539698D01*
X107718454Y-59539698D02*
X107766073Y-59634936D01*
X107766073Y-59634936D02*
X107766073Y-59730174D01*
X107766073Y-59730174D02*
X107718454Y-59825412D01*
X107718454Y-59825412D02*
X107670835Y-59873031D01*
X107670835Y-59873031D02*
X107575597Y-59920650D01*
X107575597Y-59920650D02*
X107527978Y-59968269D01*
X107527978Y-59968269D02*
X107480359Y-60063507D01*
X107480359Y-60063507D02*
X107480359Y-60111126D01*
X108956550Y-59492079D02*
X108956550Y-60301602D01*
X108956550Y-60301602D02*
X109004169Y-60396840D01*
X109004169Y-60396840D02*
X109051788Y-60444460D01*
X109051788Y-60444460D02*
X109147026Y-60492079D01*
X109147026Y-60492079D02*
X109337502Y-60492079D01*
X109337502Y-60492079D02*
X109432740Y-60444460D01*
X109432740Y-60444460D02*
X109480359Y-60396840D01*
X109480359Y-60396840D02*
X109527978Y-60301602D01*
X109527978Y-60301602D02*
X109527978Y-59492079D01*
X110004169Y-59825412D02*
X110004169Y-60492079D01*
X110004169Y-59920650D02*
X110051788Y-59873031D01*
X110051788Y-59873031D02*
X110147026Y-59825412D01*
X110147026Y-59825412D02*
X110289883Y-59825412D01*
X110289883Y-59825412D02*
X110385121Y-59873031D01*
X110385121Y-59873031D02*
X110432740Y-59968269D01*
X110432740Y-59968269D02*
X110432740Y-60492079D01*
X111051788Y-60492079D02*
X110956550Y-60444460D01*
X110956550Y-60444460D02*
X110908931Y-60349221D01*
X110908931Y-60349221D02*
X110908931Y-59492079D01*
X111813693Y-60444460D02*
X111718455Y-60492079D01*
X111718455Y-60492079D02*
X111527979Y-60492079D01*
X111527979Y-60492079D02*
X111432741Y-60444460D01*
X111432741Y-60444460D02*
X111385122Y-60349221D01*
X111385122Y-60349221D02*
X111385122Y-59968269D01*
X111385122Y-59968269D02*
X111432741Y-59873031D01*
X111432741Y-59873031D02*
X111527979Y-59825412D01*
X111527979Y-59825412D02*
X111718455Y-59825412D01*
X111718455Y-59825412D02*
X111813693Y-59873031D01*
X111813693Y-59873031D02*
X111861312Y-59968269D01*
X111861312Y-59968269D02*
X111861312Y-60063507D01*
X111861312Y-60063507D02*
X111385122Y-60158745D01*
X112242265Y-60444460D02*
X112337503Y-60492079D01*
X112337503Y-60492079D02*
X112527979Y-60492079D01*
X112527979Y-60492079D02*
X112623217Y-60444460D01*
X112623217Y-60444460D02*
X112670836Y-60349221D01*
X112670836Y-60349221D02*
X112670836Y-60301602D01*
X112670836Y-60301602D02*
X112623217Y-60206364D01*
X112623217Y-60206364D02*
X112527979Y-60158745D01*
X112527979Y-60158745D02*
X112385122Y-60158745D01*
X112385122Y-60158745D02*
X112289884Y-60111126D01*
X112289884Y-60111126D02*
X112242265Y-60015888D01*
X112242265Y-60015888D02*
X112242265Y-59968269D01*
X112242265Y-59968269D02*
X112289884Y-59873031D01*
X112289884Y-59873031D02*
X112385122Y-59825412D01*
X112385122Y-59825412D02*
X112527979Y-59825412D01*
X112527979Y-59825412D02*
X112623217Y-59873031D01*
X113051789Y-60444460D02*
X113147027Y-60492079D01*
X113147027Y-60492079D02*
X113337503Y-60492079D01*
X113337503Y-60492079D02*
X113432741Y-60444460D01*
X113432741Y-60444460D02*
X113480360Y-60349221D01*
X113480360Y-60349221D02*
X113480360Y-60301602D01*
X113480360Y-60301602D02*
X113432741Y-60206364D01*
X113432741Y-60206364D02*
X113337503Y-60158745D01*
X113337503Y-60158745D02*
X113194646Y-60158745D01*
X113194646Y-60158745D02*
X113099408Y-60111126D01*
X113099408Y-60111126D02*
X113051789Y-60015888D01*
X113051789Y-60015888D02*
X113051789Y-59968269D01*
X113051789Y-59968269D02*
X113099408Y-59873031D01*
X113099408Y-59873031D02*
X113194646Y-59825412D01*
X113194646Y-59825412D02*
X113337503Y-59825412D01*
X113337503Y-59825412D02*
X113432741Y-59873031D01*
X114670837Y-60492079D02*
X114670837Y-59825412D01*
X114670837Y-59920650D02*
X114718456Y-59873031D01*
X114718456Y-59873031D02*
X114813694Y-59825412D01*
X114813694Y-59825412D02*
X114956551Y-59825412D01*
X114956551Y-59825412D02*
X115051789Y-59873031D01*
X115051789Y-59873031D02*
X115099408Y-59968269D01*
X115099408Y-59968269D02*
X115099408Y-60492079D01*
X115099408Y-59968269D02*
X115147027Y-59873031D01*
X115147027Y-59873031D02*
X115242265Y-59825412D01*
X115242265Y-59825412D02*
X115385122Y-59825412D01*
X115385122Y-59825412D02*
X115480361Y-59873031D01*
X115480361Y-59873031D02*
X115527980Y-59968269D01*
X115527980Y-59968269D02*
X115527980Y-60492079D01*
X115908932Y-59825412D02*
X116147027Y-60492079D01*
X116385122Y-59825412D02*
X116147027Y-60492079D01*
X116147027Y-60492079D02*
X116051789Y-60730174D01*
X116051789Y-60730174D02*
X116004170Y-60777793D01*
X116004170Y-60777793D02*
X115908932Y-60825412D01*
X117527980Y-60492079D02*
X117527980Y-59825412D01*
X117527980Y-59920650D02*
X117575599Y-59873031D01*
X117575599Y-59873031D02*
X117670837Y-59825412D01*
X117670837Y-59825412D02*
X117813694Y-59825412D01*
X117813694Y-59825412D02*
X117908932Y-59873031D01*
X117908932Y-59873031D02*
X117956551Y-59968269D01*
X117956551Y-59968269D02*
X117956551Y-60492079D01*
X117956551Y-59968269D02*
X118004170Y-59873031D01*
X118004170Y-59873031D02*
X118099408Y-59825412D01*
X118099408Y-59825412D02*
X118242265Y-59825412D01*
X118242265Y-59825412D02*
X118337504Y-59873031D01*
X118337504Y-59873031D02*
X118385123Y-59968269D01*
X118385123Y-59968269D02*
X118385123Y-60492079D01*
X119289884Y-60492079D02*
X119289884Y-59968269D01*
X119289884Y-59968269D02*
X119242265Y-59873031D01*
X119242265Y-59873031D02*
X119147027Y-59825412D01*
X119147027Y-59825412D02*
X118956551Y-59825412D01*
X118956551Y-59825412D02*
X118861313Y-59873031D01*
X119289884Y-60444460D02*
X119194646Y-60492079D01*
X119194646Y-60492079D02*
X118956551Y-60492079D01*
X118956551Y-60492079D02*
X118861313Y-60444460D01*
X118861313Y-60444460D02*
X118813694Y-60349221D01*
X118813694Y-60349221D02*
X118813694Y-60253983D01*
X118813694Y-60253983D02*
X118861313Y-60158745D01*
X118861313Y-60158745D02*
X118956551Y-60111126D01*
X118956551Y-60111126D02*
X119194646Y-60111126D01*
X119194646Y-60111126D02*
X119289884Y-60063507D01*
X119623218Y-59825412D02*
X120004170Y-59825412D01*
X119766075Y-59492079D02*
X119766075Y-60349221D01*
X119766075Y-60349221D02*
X119813694Y-60444460D01*
X119813694Y-60444460D02*
X119908932Y-60492079D01*
X119908932Y-60492079D02*
X120004170Y-60492079D01*
X120337504Y-60492079D02*
X120337504Y-59492079D01*
X120766075Y-60492079D02*
X120766075Y-59968269D01*
X120766075Y-59968269D02*
X120718456Y-59873031D01*
X120718456Y-59873031D02*
X120623218Y-59825412D01*
X120623218Y-59825412D02*
X120480361Y-59825412D01*
X120480361Y-59825412D02*
X120385123Y-59873031D01*
X120385123Y-59873031D02*
X120337504Y-59920650D01*
X122004171Y-60492079D02*
X122004171Y-59825412D01*
X122004171Y-59492079D02*
X121956552Y-59539698D01*
X121956552Y-59539698D02*
X122004171Y-59587317D01*
X122004171Y-59587317D02*
X122051790Y-59539698D01*
X122051790Y-59539698D02*
X122004171Y-59492079D01*
X122004171Y-59492079D02*
X122004171Y-59587317D01*
X122432742Y-60444460D02*
X122527980Y-60492079D01*
X122527980Y-60492079D02*
X122718456Y-60492079D01*
X122718456Y-60492079D02*
X122813694Y-60444460D01*
X122813694Y-60444460D02*
X122861313Y-60349221D01*
X122861313Y-60349221D02*
X122861313Y-60301602D01*
X122861313Y-60301602D02*
X122813694Y-60206364D01*
X122813694Y-60206364D02*
X122718456Y-60158745D01*
X122718456Y-60158745D02*
X122575599Y-60158745D01*
X122575599Y-60158745D02*
X122480361Y-60111126D01*
X122480361Y-60111126D02*
X122432742Y-60015888D01*
X122432742Y-60015888D02*
X122432742Y-59968269D01*
X122432742Y-59968269D02*
X122480361Y-59873031D01*
X122480361Y-59873031D02*
X122575599Y-59825412D01*
X122575599Y-59825412D02*
X122718456Y-59825412D01*
X122718456Y-59825412D02*
X122813694Y-59873031D01*
X123956552Y-59825412D02*
X124147028Y-60492079D01*
X124147028Y-60492079D02*
X124337504Y-60015888D01*
X124337504Y-60015888D02*
X124527980Y-60492079D01*
X124527980Y-60492079D02*
X124718456Y-59825412D01*
X125527980Y-60492079D02*
X125527980Y-59968269D01*
X125527980Y-59968269D02*
X125480361Y-59873031D01*
X125480361Y-59873031D02*
X125385123Y-59825412D01*
X125385123Y-59825412D02*
X125194647Y-59825412D01*
X125194647Y-59825412D02*
X125099409Y-59873031D01*
X125527980Y-60444460D02*
X125432742Y-60492079D01*
X125432742Y-60492079D02*
X125194647Y-60492079D01*
X125194647Y-60492079D02*
X125099409Y-60444460D01*
X125099409Y-60444460D02*
X125051790Y-60349221D01*
X125051790Y-60349221D02*
X125051790Y-60253983D01*
X125051790Y-60253983D02*
X125099409Y-60158745D01*
X125099409Y-60158745D02*
X125194647Y-60111126D01*
X125194647Y-60111126D02*
X125432742Y-60111126D01*
X125432742Y-60111126D02*
X125527980Y-60063507D01*
X125908933Y-59825412D02*
X126147028Y-60492079D01*
X126385123Y-59825412D02*
X126147028Y-60492079D01*
X126147028Y-60492079D02*
X126051790Y-60730174D01*
X126051790Y-60730174D02*
X126004171Y-60777793D01*
X126004171Y-60777793D02*
X125908933Y-60825412D01*
X127670838Y-60492079D02*
X127575600Y-60444460D01*
X127575600Y-60444460D02*
X127527981Y-60396840D01*
X127527981Y-60396840D02*
X127480362Y-60301602D01*
X127480362Y-60301602D02*
X127480362Y-60015888D01*
X127480362Y-60015888D02*
X127527981Y-59920650D01*
X127527981Y-59920650D02*
X127575600Y-59873031D01*
X127575600Y-59873031D02*
X127670838Y-59825412D01*
X127670838Y-59825412D02*
X127813695Y-59825412D01*
X127813695Y-59825412D02*
X127908933Y-59873031D01*
X127908933Y-59873031D02*
X127956552Y-59920650D01*
X127956552Y-59920650D02*
X128004171Y-60015888D01*
X128004171Y-60015888D02*
X128004171Y-60301602D01*
X128004171Y-60301602D02*
X127956552Y-60396840D01*
X127956552Y-60396840D02*
X127908933Y-60444460D01*
X127908933Y-60444460D02*
X127813695Y-60492079D01*
X127813695Y-60492079D02*
X127670838Y-60492079D01*
X128289886Y-59825412D02*
X128670838Y-59825412D01*
X128432743Y-60492079D02*
X128432743Y-59634936D01*
X128432743Y-59634936D02*
X128480362Y-59539698D01*
X128480362Y-59539698D02*
X128575600Y-59492079D01*
X128575600Y-59492079D02*
X128670838Y-59492079D01*
X128861315Y-59825412D02*
X129242267Y-59825412D01*
X129004172Y-60492079D02*
X129004172Y-59634936D01*
X129004172Y-59634936D02*
X129051791Y-59539698D01*
X129051791Y-59539698D02*
X129147029Y-59492079D01*
X129147029Y-59492079D02*
X129242267Y-59492079D01*
X129575601Y-60396840D02*
X129623220Y-60444460D01*
X129623220Y-60444460D02*
X129575601Y-60492079D01*
X129575601Y-60492079D02*
X129527982Y-60444460D01*
X129527982Y-60444460D02*
X129575601Y-60396840D01*
X129575601Y-60396840D02*
X129575601Y-60492079D01*
D11*
X113996667Y-164497200D02*
X114139524Y-164544819D01*
X114139524Y-164544819D02*
X114377619Y-164544819D01*
X114377619Y-164544819D02*
X114472857Y-164497200D01*
X114472857Y-164497200D02*
X114520476Y-164449580D01*
X114520476Y-164449580D02*
X114568095Y-164354342D01*
X114568095Y-164354342D02*
X114568095Y-164259104D01*
X114568095Y-164259104D02*
X114520476Y-164163866D01*
X114520476Y-164163866D02*
X114472857Y-164116247D01*
X114472857Y-164116247D02*
X114377619Y-164068628D01*
X114377619Y-164068628D02*
X114187143Y-164021009D01*
X114187143Y-164021009D02*
X114091905Y-163973390D01*
X114091905Y-163973390D02*
X114044286Y-163925771D01*
X114044286Y-163925771D02*
X113996667Y-163830533D01*
X113996667Y-163830533D02*
X113996667Y-163735295D01*
X113996667Y-163735295D02*
X114044286Y-163640057D01*
X114044286Y-163640057D02*
X114091905Y-163592438D01*
X114091905Y-163592438D02*
X114187143Y-163544819D01*
X114187143Y-163544819D02*
X114425238Y-163544819D01*
X114425238Y-163544819D02*
X114568095Y-163592438D01*
X114901429Y-163544819D02*
X115139524Y-164544819D01*
X115139524Y-164544819D02*
X115330000Y-163830533D01*
X115330000Y-163830533D02*
X115520476Y-164544819D01*
X115520476Y-164544819D02*
X115758572Y-163544819D01*
X116282381Y-163973390D02*
X116187143Y-163925771D01*
X116187143Y-163925771D02*
X116139524Y-163878152D01*
X116139524Y-163878152D02*
X116091905Y-163782914D01*
X116091905Y-163782914D02*
X116091905Y-163735295D01*
X116091905Y-163735295D02*
X116139524Y-163640057D01*
X116139524Y-163640057D02*
X116187143Y-163592438D01*
X116187143Y-163592438D02*
X116282381Y-163544819D01*
X116282381Y-163544819D02*
X116472857Y-163544819D01*
X116472857Y-163544819D02*
X116568095Y-163592438D01*
X116568095Y-163592438D02*
X116615714Y-163640057D01*
X116615714Y-163640057D02*
X116663333Y-163735295D01*
X116663333Y-163735295D02*
X116663333Y-163782914D01*
X116663333Y-163782914D02*
X116615714Y-163878152D01*
X116615714Y-163878152D02*
X116568095Y-163925771D01*
X116568095Y-163925771D02*
X116472857Y-163973390D01*
X116472857Y-163973390D02*
X116282381Y-163973390D01*
X116282381Y-163973390D02*
X116187143Y-164021009D01*
X116187143Y-164021009D02*
X116139524Y-164068628D01*
X116139524Y-164068628D02*
X116091905Y-164163866D01*
X116091905Y-164163866D02*
X116091905Y-164354342D01*
X116091905Y-164354342D02*
X116139524Y-164449580D01*
X116139524Y-164449580D02*
X116187143Y-164497200D01*
X116187143Y-164497200D02*
X116282381Y-164544819D01*
X116282381Y-164544819D02*
X116472857Y-164544819D01*
X116472857Y-164544819D02*
X116568095Y-164497200D01*
X116568095Y-164497200D02*
X116615714Y-164449580D01*
X116615714Y-164449580D02*
X116663333Y-164354342D01*
X116663333Y-164354342D02*
X116663333Y-164163866D01*
X116663333Y-164163866D02*
X116615714Y-164068628D01*
X116615714Y-164068628D02*
X116568095Y-164021009D01*
X116568095Y-164021009D02*
X116472857Y-163973390D01*
X132324819Y-171238094D02*
X131324819Y-171238094D01*
X131324819Y-171238094D02*
X131324819Y-170999999D01*
X131324819Y-170999999D02*
X131372438Y-170857142D01*
X131372438Y-170857142D02*
X131467676Y-170761904D01*
X131467676Y-170761904D02*
X131562914Y-170714285D01*
X131562914Y-170714285D02*
X131753390Y-170666666D01*
X131753390Y-170666666D02*
X131896247Y-170666666D01*
X131896247Y-170666666D02*
X132086723Y-170714285D01*
X132086723Y-170714285D02*
X132181961Y-170761904D01*
X132181961Y-170761904D02*
X132277200Y-170857142D01*
X132277200Y-170857142D02*
X132324819Y-170999999D01*
X132324819Y-170999999D02*
X132324819Y-171238094D01*
X131658152Y-169809523D02*
X132324819Y-169809523D01*
X131277200Y-170047618D02*
X131991485Y-170285713D01*
X131991485Y-170285713D02*
X131991485Y-169666666D01*
X132004819Y-166951904D02*
X131004819Y-166951904D01*
X132004819Y-166380476D02*
X131433390Y-166809047D01*
X131004819Y-166380476D02*
X131576247Y-166951904D01*
X132324819Y-151238094D02*
X131324819Y-151238094D01*
X131324819Y-151238094D02*
X131324819Y-150999999D01*
X131324819Y-150999999D02*
X131372438Y-150857142D01*
X131372438Y-150857142D02*
X131467676Y-150761904D01*
X131467676Y-150761904D02*
X131562914Y-150714285D01*
X131562914Y-150714285D02*
X131753390Y-150666666D01*
X131753390Y-150666666D02*
X131896247Y-150666666D01*
X131896247Y-150666666D02*
X132086723Y-150714285D01*
X132086723Y-150714285D02*
X132181961Y-150761904D01*
X132181961Y-150761904D02*
X132277200Y-150857142D01*
X132277200Y-150857142D02*
X132324819Y-150999999D01*
X132324819Y-150999999D02*
X132324819Y-151238094D01*
X131324819Y-150333332D02*
X131324819Y-149714285D01*
X131324819Y-149714285D02*
X131705771Y-150047618D01*
X131705771Y-150047618D02*
X131705771Y-149904761D01*
X131705771Y-149904761D02*
X131753390Y-149809523D01*
X131753390Y-149809523D02*
X131801009Y-149761904D01*
X131801009Y-149761904D02*
X131896247Y-149714285D01*
X131896247Y-149714285D02*
X132134342Y-149714285D01*
X132134342Y-149714285D02*
X132229580Y-149761904D01*
X132229580Y-149761904D02*
X132277200Y-149809523D01*
X132277200Y-149809523D02*
X132324819Y-149904761D01*
X132324819Y-149904761D02*
X132324819Y-150190475D01*
X132324819Y-150190475D02*
X132277200Y-150285713D01*
X132277200Y-150285713D02*
X132229580Y-150333332D01*
X132004819Y-146951904D02*
X131004819Y-146951904D01*
X132004819Y-146380476D02*
X131433390Y-146809047D01*
X131004819Y-146380476D02*
X131576247Y-146951904D01*
X132324819Y-131238094D02*
X131324819Y-131238094D01*
X131324819Y-131238094D02*
X131324819Y-130999999D01*
X131324819Y-130999999D02*
X131372438Y-130857142D01*
X131372438Y-130857142D02*
X131467676Y-130761904D01*
X131467676Y-130761904D02*
X131562914Y-130714285D01*
X131562914Y-130714285D02*
X131753390Y-130666666D01*
X131753390Y-130666666D02*
X131896247Y-130666666D01*
X131896247Y-130666666D02*
X132086723Y-130714285D01*
X132086723Y-130714285D02*
X132181961Y-130761904D01*
X132181961Y-130761904D02*
X132277200Y-130857142D01*
X132277200Y-130857142D02*
X132324819Y-130999999D01*
X132324819Y-130999999D02*
X132324819Y-131238094D01*
X131420057Y-130285713D02*
X131372438Y-130238094D01*
X131372438Y-130238094D02*
X131324819Y-130142856D01*
X131324819Y-130142856D02*
X131324819Y-129904761D01*
X131324819Y-129904761D02*
X131372438Y-129809523D01*
X131372438Y-129809523D02*
X131420057Y-129761904D01*
X131420057Y-129761904D02*
X131515295Y-129714285D01*
X131515295Y-129714285D02*
X131610533Y-129714285D01*
X131610533Y-129714285D02*
X131753390Y-129761904D01*
X131753390Y-129761904D02*
X132324819Y-130333332D01*
X132324819Y-130333332D02*
X132324819Y-129714285D01*
X132004819Y-126951904D02*
X131004819Y-126951904D01*
X132004819Y-126380476D02*
X131433390Y-126809047D01*
X131004819Y-126380476D02*
X131576247Y-126951904D01*
X132324819Y-111238094D02*
X131324819Y-111238094D01*
X131324819Y-111238094D02*
X131324819Y-110999999D01*
X131324819Y-110999999D02*
X131372438Y-110857142D01*
X131372438Y-110857142D02*
X131467676Y-110761904D01*
X131467676Y-110761904D02*
X131562914Y-110714285D01*
X131562914Y-110714285D02*
X131753390Y-110666666D01*
X131753390Y-110666666D02*
X131896247Y-110666666D01*
X131896247Y-110666666D02*
X132086723Y-110714285D01*
X132086723Y-110714285D02*
X132181961Y-110761904D01*
X132181961Y-110761904D02*
X132277200Y-110857142D01*
X132277200Y-110857142D02*
X132324819Y-110999999D01*
X132324819Y-110999999D02*
X132324819Y-111238094D01*
X132324819Y-109714285D02*
X132324819Y-110285713D01*
X132324819Y-109999999D02*
X131324819Y-109999999D01*
X131324819Y-109999999D02*
X131467676Y-110095237D01*
X131467676Y-110095237D02*
X131562914Y-110190475D01*
X131562914Y-110190475D02*
X131610533Y-110285713D01*
X132004819Y-106951904D02*
X131004819Y-106951904D01*
X132004819Y-106380476D02*
X131433390Y-106809047D01*
X131004819Y-106380476D02*
X131576247Y-106951904D01*
X107574819Y-131238094D02*
X106574819Y-131238094D01*
X106574819Y-131238094D02*
X106574819Y-130999999D01*
X106574819Y-130999999D02*
X106622438Y-130857142D01*
X106622438Y-130857142D02*
X106717676Y-130761904D01*
X106717676Y-130761904D02*
X106812914Y-130714285D01*
X106812914Y-130714285D02*
X107003390Y-130666666D01*
X107003390Y-130666666D02*
X107146247Y-130666666D01*
X107146247Y-130666666D02*
X107336723Y-130714285D01*
X107336723Y-130714285D02*
X107431961Y-130761904D01*
X107431961Y-130761904D02*
X107527200Y-130857142D01*
X107527200Y-130857142D02*
X107574819Y-130999999D01*
X107574819Y-130999999D02*
X107574819Y-131238094D01*
X106574819Y-129809523D02*
X106574819Y-129999999D01*
X106574819Y-129999999D02*
X106622438Y-130095237D01*
X106622438Y-130095237D02*
X106670057Y-130142856D01*
X106670057Y-130142856D02*
X106812914Y-130238094D01*
X106812914Y-130238094D02*
X107003390Y-130285713D01*
X107003390Y-130285713D02*
X107384342Y-130285713D01*
X107384342Y-130285713D02*
X107479580Y-130238094D01*
X107479580Y-130238094D02*
X107527200Y-130190475D01*
X107527200Y-130190475D02*
X107574819Y-130095237D01*
X107574819Y-130095237D02*
X107574819Y-129904761D01*
X107574819Y-129904761D02*
X107527200Y-129809523D01*
X107527200Y-129809523D02*
X107479580Y-129761904D01*
X107479580Y-129761904D02*
X107384342Y-129714285D01*
X107384342Y-129714285D02*
X107146247Y-129714285D01*
X107146247Y-129714285D02*
X107051009Y-129761904D01*
X107051009Y-129761904D02*
X107003390Y-129809523D01*
X107003390Y-129809523D02*
X106955771Y-129904761D01*
X106955771Y-129904761D02*
X106955771Y-130095237D01*
X106955771Y-130095237D02*
X107003390Y-130190475D01*
X107003390Y-130190475D02*
X107051009Y-130238094D01*
X107051009Y-130238094D02*
X107146247Y-130285713D01*
X107254819Y-126951904D02*
X106254819Y-126951904D01*
X107254819Y-126380476D02*
X106683390Y-126809047D01*
X106254819Y-126380476D02*
X106826247Y-126951904D01*
X107574819Y-111238094D02*
X106574819Y-111238094D01*
X106574819Y-111238094D02*
X106574819Y-110999999D01*
X106574819Y-110999999D02*
X106622438Y-110857142D01*
X106622438Y-110857142D02*
X106717676Y-110761904D01*
X106717676Y-110761904D02*
X106812914Y-110714285D01*
X106812914Y-110714285D02*
X107003390Y-110666666D01*
X107003390Y-110666666D02*
X107146247Y-110666666D01*
X107146247Y-110666666D02*
X107336723Y-110714285D01*
X107336723Y-110714285D02*
X107431961Y-110761904D01*
X107431961Y-110761904D02*
X107527200Y-110857142D01*
X107527200Y-110857142D02*
X107574819Y-110999999D01*
X107574819Y-110999999D02*
X107574819Y-111238094D01*
X106574819Y-109761904D02*
X106574819Y-110238094D01*
X106574819Y-110238094D02*
X107051009Y-110285713D01*
X107051009Y-110285713D02*
X107003390Y-110238094D01*
X107003390Y-110238094D02*
X106955771Y-110142856D01*
X106955771Y-110142856D02*
X106955771Y-109904761D01*
X106955771Y-109904761D02*
X107003390Y-109809523D01*
X107003390Y-109809523D02*
X107051009Y-109761904D01*
X107051009Y-109761904D02*
X107146247Y-109714285D01*
X107146247Y-109714285D02*
X107384342Y-109714285D01*
X107384342Y-109714285D02*
X107479580Y-109761904D01*
X107479580Y-109761904D02*
X107527200Y-109809523D01*
X107527200Y-109809523D02*
X107574819Y-109904761D01*
X107574819Y-109904761D02*
X107574819Y-110142856D01*
X107574819Y-110142856D02*
X107527200Y-110238094D01*
X107527200Y-110238094D02*
X107479580Y-110285713D01*
X107254819Y-106951904D02*
X106254819Y-106951904D01*
X107254819Y-106380476D02*
X106683390Y-106809047D01*
X106254819Y-106380476D02*
X106826247Y-106951904D01*
X107574819Y-171238094D02*
X106574819Y-171238094D01*
X106574819Y-171238094D02*
X106574819Y-170999999D01*
X106574819Y-170999999D02*
X106622438Y-170857142D01*
X106622438Y-170857142D02*
X106717676Y-170761904D01*
X106717676Y-170761904D02*
X106812914Y-170714285D01*
X106812914Y-170714285D02*
X107003390Y-170666666D01*
X107003390Y-170666666D02*
X107146247Y-170666666D01*
X107146247Y-170666666D02*
X107336723Y-170714285D01*
X107336723Y-170714285D02*
X107431961Y-170761904D01*
X107431961Y-170761904D02*
X107527200Y-170857142D01*
X107527200Y-170857142D02*
X107574819Y-170999999D01*
X107574819Y-170999999D02*
X107574819Y-171238094D01*
X107003390Y-170095237D02*
X106955771Y-170190475D01*
X106955771Y-170190475D02*
X106908152Y-170238094D01*
X106908152Y-170238094D02*
X106812914Y-170285713D01*
X106812914Y-170285713D02*
X106765295Y-170285713D01*
X106765295Y-170285713D02*
X106670057Y-170238094D01*
X106670057Y-170238094D02*
X106622438Y-170190475D01*
X106622438Y-170190475D02*
X106574819Y-170095237D01*
X106574819Y-170095237D02*
X106574819Y-169904761D01*
X106574819Y-169904761D02*
X106622438Y-169809523D01*
X106622438Y-169809523D02*
X106670057Y-169761904D01*
X106670057Y-169761904D02*
X106765295Y-169714285D01*
X106765295Y-169714285D02*
X106812914Y-169714285D01*
X106812914Y-169714285D02*
X106908152Y-169761904D01*
X106908152Y-169761904D02*
X106955771Y-169809523D01*
X106955771Y-169809523D02*
X107003390Y-169904761D01*
X107003390Y-169904761D02*
X107003390Y-170095237D01*
X107003390Y-170095237D02*
X107051009Y-170190475D01*
X107051009Y-170190475D02*
X107098628Y-170238094D01*
X107098628Y-170238094D02*
X107193866Y-170285713D01*
X107193866Y-170285713D02*
X107384342Y-170285713D01*
X107384342Y-170285713D02*
X107479580Y-170238094D01*
X107479580Y-170238094D02*
X107527200Y-170190475D01*
X107527200Y-170190475D02*
X107574819Y-170095237D01*
X107574819Y-170095237D02*
X107574819Y-169904761D01*
X107574819Y-169904761D02*
X107527200Y-169809523D01*
X107527200Y-169809523D02*
X107479580Y-169761904D01*
X107479580Y-169761904D02*
X107384342Y-169714285D01*
X107384342Y-169714285D02*
X107193866Y-169714285D01*
X107193866Y-169714285D02*
X107098628Y-169761904D01*
X107098628Y-169761904D02*
X107051009Y-169809523D01*
X107051009Y-169809523D02*
X107003390Y-169904761D01*
X107254819Y-166951904D02*
X106254819Y-166951904D01*
X107254819Y-166380476D02*
X106683390Y-166809047D01*
X106254819Y-166380476D02*
X106826247Y-166951904D01*
X107574819Y-151238094D02*
X106574819Y-151238094D01*
X106574819Y-151238094D02*
X106574819Y-150999999D01*
X106574819Y-150999999D02*
X106622438Y-150857142D01*
X106622438Y-150857142D02*
X106717676Y-150761904D01*
X106717676Y-150761904D02*
X106812914Y-150714285D01*
X106812914Y-150714285D02*
X107003390Y-150666666D01*
X107003390Y-150666666D02*
X107146247Y-150666666D01*
X107146247Y-150666666D02*
X107336723Y-150714285D01*
X107336723Y-150714285D02*
X107431961Y-150761904D01*
X107431961Y-150761904D02*
X107527200Y-150857142D01*
X107527200Y-150857142D02*
X107574819Y-150999999D01*
X107574819Y-150999999D02*
X107574819Y-151238094D01*
X106574819Y-150333332D02*
X106574819Y-149666666D01*
X106574819Y-149666666D02*
X107574819Y-150095237D01*
X107254819Y-146951904D02*
X106254819Y-146951904D01*
X107254819Y-146380476D02*
X106683390Y-146809047D01*
X106254819Y-146380476D02*
X106826247Y-146951904D01*
X113996667Y-104497200D02*
X114139524Y-104544819D01*
X114139524Y-104544819D02*
X114377619Y-104544819D01*
X114377619Y-104544819D02*
X114472857Y-104497200D01*
X114472857Y-104497200D02*
X114520476Y-104449580D01*
X114520476Y-104449580D02*
X114568095Y-104354342D01*
X114568095Y-104354342D02*
X114568095Y-104259104D01*
X114568095Y-104259104D02*
X114520476Y-104163866D01*
X114520476Y-104163866D02*
X114472857Y-104116247D01*
X114472857Y-104116247D02*
X114377619Y-104068628D01*
X114377619Y-104068628D02*
X114187143Y-104021009D01*
X114187143Y-104021009D02*
X114091905Y-103973390D01*
X114091905Y-103973390D02*
X114044286Y-103925771D01*
X114044286Y-103925771D02*
X113996667Y-103830533D01*
X113996667Y-103830533D02*
X113996667Y-103735295D01*
X113996667Y-103735295D02*
X114044286Y-103640057D01*
X114044286Y-103640057D02*
X114091905Y-103592438D01*
X114091905Y-103592438D02*
X114187143Y-103544819D01*
X114187143Y-103544819D02*
X114425238Y-103544819D01*
X114425238Y-103544819D02*
X114568095Y-103592438D01*
X114901429Y-103544819D02*
X115139524Y-104544819D01*
X115139524Y-104544819D02*
X115330000Y-103830533D01*
X115330000Y-103830533D02*
X115520476Y-104544819D01*
X115520476Y-104544819D02*
X115758572Y-103544819D01*
X116615714Y-103544819D02*
X116139524Y-103544819D01*
X116139524Y-103544819D02*
X116091905Y-104021009D01*
X116091905Y-104021009D02*
X116139524Y-103973390D01*
X116139524Y-103973390D02*
X116234762Y-103925771D01*
X116234762Y-103925771D02*
X116472857Y-103925771D01*
X116472857Y-103925771D02*
X116568095Y-103973390D01*
X116568095Y-103973390D02*
X116615714Y-104021009D01*
X116615714Y-104021009D02*
X116663333Y-104116247D01*
X116663333Y-104116247D02*
X116663333Y-104354342D01*
X116663333Y-104354342D02*
X116615714Y-104449580D01*
X116615714Y-104449580D02*
X116568095Y-104497200D01*
X116568095Y-104497200D02*
X116472857Y-104544819D01*
X116472857Y-104544819D02*
X116234762Y-104544819D01*
X116234762Y-104544819D02*
X116139524Y-104497200D01*
X116139524Y-104497200D02*
X116091905Y-104449580D01*
X113996667Y-124497200D02*
X114139524Y-124544819D01*
X114139524Y-124544819D02*
X114377619Y-124544819D01*
X114377619Y-124544819D02*
X114472857Y-124497200D01*
X114472857Y-124497200D02*
X114520476Y-124449580D01*
X114520476Y-124449580D02*
X114568095Y-124354342D01*
X114568095Y-124354342D02*
X114568095Y-124259104D01*
X114568095Y-124259104D02*
X114520476Y-124163866D01*
X114520476Y-124163866D02*
X114472857Y-124116247D01*
X114472857Y-124116247D02*
X114377619Y-124068628D01*
X114377619Y-124068628D02*
X114187143Y-124021009D01*
X114187143Y-124021009D02*
X114091905Y-123973390D01*
X114091905Y-123973390D02*
X114044286Y-123925771D01*
X114044286Y-123925771D02*
X113996667Y-123830533D01*
X113996667Y-123830533D02*
X113996667Y-123735295D01*
X113996667Y-123735295D02*
X114044286Y-123640057D01*
X114044286Y-123640057D02*
X114091905Y-123592438D01*
X114091905Y-123592438D02*
X114187143Y-123544819D01*
X114187143Y-123544819D02*
X114425238Y-123544819D01*
X114425238Y-123544819D02*
X114568095Y-123592438D01*
X114901429Y-123544819D02*
X115139524Y-124544819D01*
X115139524Y-124544819D02*
X115330000Y-123830533D01*
X115330000Y-123830533D02*
X115520476Y-124544819D01*
X115520476Y-124544819D02*
X115758572Y-123544819D01*
X116568095Y-123544819D02*
X116377619Y-123544819D01*
X116377619Y-123544819D02*
X116282381Y-123592438D01*
X116282381Y-123592438D02*
X116234762Y-123640057D01*
X116234762Y-123640057D02*
X116139524Y-123782914D01*
X116139524Y-123782914D02*
X116091905Y-123973390D01*
X116091905Y-123973390D02*
X116091905Y-124354342D01*
X116091905Y-124354342D02*
X116139524Y-124449580D01*
X116139524Y-124449580D02*
X116187143Y-124497200D01*
X116187143Y-124497200D02*
X116282381Y-124544819D01*
X116282381Y-124544819D02*
X116472857Y-124544819D01*
X116472857Y-124544819D02*
X116568095Y-124497200D01*
X116568095Y-124497200D02*
X116615714Y-124449580D01*
X116615714Y-124449580D02*
X116663333Y-124354342D01*
X116663333Y-124354342D02*
X116663333Y-124116247D01*
X116663333Y-124116247D02*
X116615714Y-124021009D01*
X116615714Y-124021009D02*
X116568095Y-123973390D01*
X116568095Y-123973390D02*
X116472857Y-123925771D01*
X116472857Y-123925771D02*
X116282381Y-123925771D01*
X116282381Y-123925771D02*
X116187143Y-123973390D01*
X116187143Y-123973390D02*
X116139524Y-124021009D01*
X116139524Y-124021009D02*
X116091905Y-124116247D01*
X113996667Y-144497200D02*
X114139524Y-144544819D01*
X114139524Y-144544819D02*
X114377619Y-144544819D01*
X114377619Y-144544819D02*
X114472857Y-144497200D01*
X114472857Y-144497200D02*
X114520476Y-144449580D01*
X114520476Y-144449580D02*
X114568095Y-144354342D01*
X114568095Y-144354342D02*
X114568095Y-144259104D01*
X114568095Y-144259104D02*
X114520476Y-144163866D01*
X114520476Y-144163866D02*
X114472857Y-144116247D01*
X114472857Y-144116247D02*
X114377619Y-144068628D01*
X114377619Y-144068628D02*
X114187143Y-144021009D01*
X114187143Y-144021009D02*
X114091905Y-143973390D01*
X114091905Y-143973390D02*
X114044286Y-143925771D01*
X114044286Y-143925771D02*
X113996667Y-143830533D01*
X113996667Y-143830533D02*
X113996667Y-143735295D01*
X113996667Y-143735295D02*
X114044286Y-143640057D01*
X114044286Y-143640057D02*
X114091905Y-143592438D01*
X114091905Y-143592438D02*
X114187143Y-143544819D01*
X114187143Y-143544819D02*
X114425238Y-143544819D01*
X114425238Y-143544819D02*
X114568095Y-143592438D01*
X114901429Y-143544819D02*
X115139524Y-144544819D01*
X115139524Y-144544819D02*
X115330000Y-143830533D01*
X115330000Y-143830533D02*
X115520476Y-144544819D01*
X115520476Y-144544819D02*
X115758572Y-143544819D01*
X116044286Y-143544819D02*
X116710952Y-143544819D01*
X116710952Y-143544819D02*
X116282381Y-144544819D01*
X90520476Y-164497200D02*
X90663333Y-164544819D01*
X90663333Y-164544819D02*
X90901428Y-164544819D01*
X90901428Y-164544819D02*
X90996666Y-164497200D01*
X90996666Y-164497200D02*
X91044285Y-164449580D01*
X91044285Y-164449580D02*
X91091904Y-164354342D01*
X91091904Y-164354342D02*
X91091904Y-164259104D01*
X91091904Y-164259104D02*
X91044285Y-164163866D01*
X91044285Y-164163866D02*
X90996666Y-164116247D01*
X90996666Y-164116247D02*
X90901428Y-164068628D01*
X90901428Y-164068628D02*
X90710952Y-164021009D01*
X90710952Y-164021009D02*
X90615714Y-163973390D01*
X90615714Y-163973390D02*
X90568095Y-163925771D01*
X90568095Y-163925771D02*
X90520476Y-163830533D01*
X90520476Y-163830533D02*
X90520476Y-163735295D01*
X90520476Y-163735295D02*
X90568095Y-163640057D01*
X90568095Y-163640057D02*
X90615714Y-163592438D01*
X90615714Y-163592438D02*
X90710952Y-163544819D01*
X90710952Y-163544819D02*
X90949047Y-163544819D01*
X90949047Y-163544819D02*
X91091904Y-163592438D01*
X91425238Y-163544819D02*
X91663333Y-164544819D01*
X91663333Y-164544819D02*
X91853809Y-163830533D01*
X91853809Y-163830533D02*
X92044285Y-164544819D01*
X92044285Y-164544819D02*
X92282381Y-163544819D01*
X93187142Y-164544819D02*
X92615714Y-164544819D01*
X92901428Y-164544819D02*
X92901428Y-163544819D01*
X92901428Y-163544819D02*
X92806190Y-163687676D01*
X92806190Y-163687676D02*
X92710952Y-163782914D01*
X92710952Y-163782914D02*
X92615714Y-163830533D01*
X93568095Y-163640057D02*
X93615714Y-163592438D01*
X93615714Y-163592438D02*
X93710952Y-163544819D01*
X93710952Y-163544819D02*
X93949047Y-163544819D01*
X93949047Y-163544819D02*
X94044285Y-163592438D01*
X94044285Y-163592438D02*
X94091904Y-163640057D01*
X94091904Y-163640057D02*
X94139523Y-163735295D01*
X94139523Y-163735295D02*
X94139523Y-163830533D01*
X94139523Y-163830533D02*
X94091904Y-163973390D01*
X94091904Y-163973390D02*
X93520476Y-164544819D01*
X93520476Y-164544819D02*
X94139523Y-164544819D01*
X90520476Y-124497200D02*
X90663333Y-124544819D01*
X90663333Y-124544819D02*
X90901428Y-124544819D01*
X90901428Y-124544819D02*
X90996666Y-124497200D01*
X90996666Y-124497200D02*
X91044285Y-124449580D01*
X91044285Y-124449580D02*
X91091904Y-124354342D01*
X91091904Y-124354342D02*
X91091904Y-124259104D01*
X91091904Y-124259104D02*
X91044285Y-124163866D01*
X91044285Y-124163866D02*
X90996666Y-124116247D01*
X90996666Y-124116247D02*
X90901428Y-124068628D01*
X90901428Y-124068628D02*
X90710952Y-124021009D01*
X90710952Y-124021009D02*
X90615714Y-123973390D01*
X90615714Y-123973390D02*
X90568095Y-123925771D01*
X90568095Y-123925771D02*
X90520476Y-123830533D01*
X90520476Y-123830533D02*
X90520476Y-123735295D01*
X90520476Y-123735295D02*
X90568095Y-123640057D01*
X90568095Y-123640057D02*
X90615714Y-123592438D01*
X90615714Y-123592438D02*
X90710952Y-123544819D01*
X90710952Y-123544819D02*
X90949047Y-123544819D01*
X90949047Y-123544819D02*
X91091904Y-123592438D01*
X91425238Y-123544819D02*
X91663333Y-124544819D01*
X91663333Y-124544819D02*
X91853809Y-123830533D01*
X91853809Y-123830533D02*
X92044285Y-124544819D01*
X92044285Y-124544819D02*
X92282381Y-123544819D01*
X93187142Y-124544819D02*
X92615714Y-124544819D01*
X92901428Y-124544819D02*
X92901428Y-123544819D01*
X92901428Y-123544819D02*
X92806190Y-123687676D01*
X92806190Y-123687676D02*
X92710952Y-123782914D01*
X92710952Y-123782914D02*
X92615714Y-123830533D01*
X93806190Y-123544819D02*
X93901428Y-123544819D01*
X93901428Y-123544819D02*
X93996666Y-123592438D01*
X93996666Y-123592438D02*
X94044285Y-123640057D01*
X94044285Y-123640057D02*
X94091904Y-123735295D01*
X94091904Y-123735295D02*
X94139523Y-123925771D01*
X94139523Y-123925771D02*
X94139523Y-124163866D01*
X94139523Y-124163866D02*
X94091904Y-124354342D01*
X94091904Y-124354342D02*
X94044285Y-124449580D01*
X94044285Y-124449580D02*
X93996666Y-124497200D01*
X93996666Y-124497200D02*
X93901428Y-124544819D01*
X93901428Y-124544819D02*
X93806190Y-124544819D01*
X93806190Y-124544819D02*
X93710952Y-124497200D01*
X93710952Y-124497200D02*
X93663333Y-124449580D01*
X93663333Y-124449580D02*
X93615714Y-124354342D01*
X93615714Y-124354342D02*
X93568095Y-124163866D01*
X93568095Y-124163866D02*
X93568095Y-123925771D01*
X93568095Y-123925771D02*
X93615714Y-123735295D01*
X93615714Y-123735295D02*
X93663333Y-123640057D01*
X93663333Y-123640057D02*
X93710952Y-123592438D01*
X93710952Y-123592438D02*
X93806190Y-123544819D01*
X66020476Y-124497200D02*
X66163333Y-124544819D01*
X66163333Y-124544819D02*
X66401428Y-124544819D01*
X66401428Y-124544819D02*
X66496666Y-124497200D01*
X66496666Y-124497200D02*
X66544285Y-124449580D01*
X66544285Y-124449580D02*
X66591904Y-124354342D01*
X66591904Y-124354342D02*
X66591904Y-124259104D01*
X66591904Y-124259104D02*
X66544285Y-124163866D01*
X66544285Y-124163866D02*
X66496666Y-124116247D01*
X66496666Y-124116247D02*
X66401428Y-124068628D01*
X66401428Y-124068628D02*
X66210952Y-124021009D01*
X66210952Y-124021009D02*
X66115714Y-123973390D01*
X66115714Y-123973390D02*
X66068095Y-123925771D01*
X66068095Y-123925771D02*
X66020476Y-123830533D01*
X66020476Y-123830533D02*
X66020476Y-123735295D01*
X66020476Y-123735295D02*
X66068095Y-123640057D01*
X66068095Y-123640057D02*
X66115714Y-123592438D01*
X66115714Y-123592438D02*
X66210952Y-123544819D01*
X66210952Y-123544819D02*
X66449047Y-123544819D01*
X66449047Y-123544819D02*
X66591904Y-123592438D01*
X66925238Y-123544819D02*
X67163333Y-124544819D01*
X67163333Y-124544819D02*
X67353809Y-123830533D01*
X67353809Y-123830533D02*
X67544285Y-124544819D01*
X67544285Y-124544819D02*
X67782381Y-123544819D01*
X68687142Y-124544819D02*
X68115714Y-124544819D01*
X68401428Y-124544819D02*
X68401428Y-123544819D01*
X68401428Y-123544819D02*
X68306190Y-123687676D01*
X68306190Y-123687676D02*
X68210952Y-123782914D01*
X68210952Y-123782914D02*
X68115714Y-123830533D01*
X69544285Y-123878152D02*
X69544285Y-124544819D01*
X69306190Y-123497200D02*
X69068095Y-124211485D01*
X69068095Y-124211485D02*
X69687142Y-124211485D01*
X138746667Y-144497200D02*
X138889524Y-144544819D01*
X138889524Y-144544819D02*
X139127619Y-144544819D01*
X139127619Y-144544819D02*
X139222857Y-144497200D01*
X139222857Y-144497200D02*
X139270476Y-144449580D01*
X139270476Y-144449580D02*
X139318095Y-144354342D01*
X139318095Y-144354342D02*
X139318095Y-144259104D01*
X139318095Y-144259104D02*
X139270476Y-144163866D01*
X139270476Y-144163866D02*
X139222857Y-144116247D01*
X139222857Y-144116247D02*
X139127619Y-144068628D01*
X139127619Y-144068628D02*
X138937143Y-144021009D01*
X138937143Y-144021009D02*
X138841905Y-143973390D01*
X138841905Y-143973390D02*
X138794286Y-143925771D01*
X138794286Y-143925771D02*
X138746667Y-143830533D01*
X138746667Y-143830533D02*
X138746667Y-143735295D01*
X138746667Y-143735295D02*
X138794286Y-143640057D01*
X138794286Y-143640057D02*
X138841905Y-143592438D01*
X138841905Y-143592438D02*
X138937143Y-143544819D01*
X138937143Y-143544819D02*
X139175238Y-143544819D01*
X139175238Y-143544819D02*
X139318095Y-143592438D01*
X139651429Y-143544819D02*
X139889524Y-144544819D01*
X139889524Y-144544819D02*
X140080000Y-143830533D01*
X140080000Y-143830533D02*
X140270476Y-144544819D01*
X140270476Y-144544819D02*
X140508572Y-143544819D01*
X140794286Y-143544819D02*
X141413333Y-143544819D01*
X141413333Y-143544819D02*
X141080000Y-143925771D01*
X141080000Y-143925771D02*
X141222857Y-143925771D01*
X141222857Y-143925771D02*
X141318095Y-143973390D01*
X141318095Y-143973390D02*
X141365714Y-144021009D01*
X141365714Y-144021009D02*
X141413333Y-144116247D01*
X141413333Y-144116247D02*
X141413333Y-144354342D01*
X141413333Y-144354342D02*
X141365714Y-144449580D01*
X141365714Y-144449580D02*
X141318095Y-144497200D01*
X141318095Y-144497200D02*
X141222857Y-144544819D01*
X141222857Y-144544819D02*
X140937143Y-144544819D01*
X140937143Y-144544819D02*
X140841905Y-144497200D01*
X140841905Y-144497200D02*
X140794286Y-144449580D01*
X138746667Y-164497200D02*
X138889524Y-164544819D01*
X138889524Y-164544819D02*
X139127619Y-164544819D01*
X139127619Y-164544819D02*
X139222857Y-164497200D01*
X139222857Y-164497200D02*
X139270476Y-164449580D01*
X139270476Y-164449580D02*
X139318095Y-164354342D01*
X139318095Y-164354342D02*
X139318095Y-164259104D01*
X139318095Y-164259104D02*
X139270476Y-164163866D01*
X139270476Y-164163866D02*
X139222857Y-164116247D01*
X139222857Y-164116247D02*
X139127619Y-164068628D01*
X139127619Y-164068628D02*
X138937143Y-164021009D01*
X138937143Y-164021009D02*
X138841905Y-163973390D01*
X138841905Y-163973390D02*
X138794286Y-163925771D01*
X138794286Y-163925771D02*
X138746667Y-163830533D01*
X138746667Y-163830533D02*
X138746667Y-163735295D01*
X138746667Y-163735295D02*
X138794286Y-163640057D01*
X138794286Y-163640057D02*
X138841905Y-163592438D01*
X138841905Y-163592438D02*
X138937143Y-163544819D01*
X138937143Y-163544819D02*
X139175238Y-163544819D01*
X139175238Y-163544819D02*
X139318095Y-163592438D01*
X139651429Y-163544819D02*
X139889524Y-164544819D01*
X139889524Y-164544819D02*
X140080000Y-163830533D01*
X140080000Y-163830533D02*
X140270476Y-164544819D01*
X140270476Y-164544819D02*
X140508572Y-163544819D01*
X141318095Y-163878152D02*
X141318095Y-164544819D01*
X141080000Y-163497200D02*
X140841905Y-164211485D01*
X140841905Y-164211485D02*
X141460952Y-164211485D01*
X90520476Y-144497200D02*
X90663333Y-144544819D01*
X90663333Y-144544819D02*
X90901428Y-144544819D01*
X90901428Y-144544819D02*
X90996666Y-144497200D01*
X90996666Y-144497200D02*
X91044285Y-144449580D01*
X91044285Y-144449580D02*
X91091904Y-144354342D01*
X91091904Y-144354342D02*
X91091904Y-144259104D01*
X91091904Y-144259104D02*
X91044285Y-144163866D01*
X91044285Y-144163866D02*
X90996666Y-144116247D01*
X90996666Y-144116247D02*
X90901428Y-144068628D01*
X90901428Y-144068628D02*
X90710952Y-144021009D01*
X90710952Y-144021009D02*
X90615714Y-143973390D01*
X90615714Y-143973390D02*
X90568095Y-143925771D01*
X90568095Y-143925771D02*
X90520476Y-143830533D01*
X90520476Y-143830533D02*
X90520476Y-143735295D01*
X90520476Y-143735295D02*
X90568095Y-143640057D01*
X90568095Y-143640057D02*
X90615714Y-143592438D01*
X90615714Y-143592438D02*
X90710952Y-143544819D01*
X90710952Y-143544819D02*
X90949047Y-143544819D01*
X90949047Y-143544819D02*
X91091904Y-143592438D01*
X91425238Y-143544819D02*
X91663333Y-144544819D01*
X91663333Y-144544819D02*
X91853809Y-143830533D01*
X91853809Y-143830533D02*
X92044285Y-144544819D01*
X92044285Y-144544819D02*
X92282381Y-143544819D01*
X93187142Y-144544819D02*
X92615714Y-144544819D01*
X92901428Y-144544819D02*
X92901428Y-143544819D01*
X92901428Y-143544819D02*
X92806190Y-143687676D01*
X92806190Y-143687676D02*
X92710952Y-143782914D01*
X92710952Y-143782914D02*
X92615714Y-143830533D01*
X94139523Y-144544819D02*
X93568095Y-144544819D01*
X93853809Y-144544819D02*
X93853809Y-143544819D01*
X93853809Y-143544819D02*
X93758571Y-143687676D01*
X93758571Y-143687676D02*
X93663333Y-143782914D01*
X93663333Y-143782914D02*
X93568095Y-143830533D01*
X66020476Y-144497200D02*
X66163333Y-144544819D01*
X66163333Y-144544819D02*
X66401428Y-144544819D01*
X66401428Y-144544819D02*
X66496666Y-144497200D01*
X66496666Y-144497200D02*
X66544285Y-144449580D01*
X66544285Y-144449580D02*
X66591904Y-144354342D01*
X66591904Y-144354342D02*
X66591904Y-144259104D01*
X66591904Y-144259104D02*
X66544285Y-144163866D01*
X66544285Y-144163866D02*
X66496666Y-144116247D01*
X66496666Y-144116247D02*
X66401428Y-144068628D01*
X66401428Y-144068628D02*
X66210952Y-144021009D01*
X66210952Y-144021009D02*
X66115714Y-143973390D01*
X66115714Y-143973390D02*
X66068095Y-143925771D01*
X66068095Y-143925771D02*
X66020476Y-143830533D01*
X66020476Y-143830533D02*
X66020476Y-143735295D01*
X66020476Y-143735295D02*
X66068095Y-143640057D01*
X66068095Y-143640057D02*
X66115714Y-143592438D01*
X66115714Y-143592438D02*
X66210952Y-143544819D01*
X66210952Y-143544819D02*
X66449047Y-143544819D01*
X66449047Y-143544819D02*
X66591904Y-143592438D01*
X66925238Y-143544819D02*
X67163333Y-144544819D01*
X67163333Y-144544819D02*
X67353809Y-143830533D01*
X67353809Y-143830533D02*
X67544285Y-144544819D01*
X67544285Y-144544819D02*
X67782381Y-143544819D01*
X68687142Y-144544819D02*
X68115714Y-144544819D01*
X68401428Y-144544819D02*
X68401428Y-143544819D01*
X68401428Y-143544819D02*
X68306190Y-143687676D01*
X68306190Y-143687676D02*
X68210952Y-143782914D01*
X68210952Y-143782914D02*
X68115714Y-143830533D01*
X69591904Y-143544819D02*
X69115714Y-143544819D01*
X69115714Y-143544819D02*
X69068095Y-144021009D01*
X69068095Y-144021009D02*
X69115714Y-143973390D01*
X69115714Y-143973390D02*
X69210952Y-143925771D01*
X69210952Y-143925771D02*
X69449047Y-143925771D01*
X69449047Y-143925771D02*
X69544285Y-143973390D01*
X69544285Y-143973390D02*
X69591904Y-144021009D01*
X69591904Y-144021009D02*
X69639523Y-144116247D01*
X69639523Y-144116247D02*
X69639523Y-144354342D01*
X69639523Y-144354342D02*
X69591904Y-144449580D01*
X69591904Y-144449580D02*
X69544285Y-144497200D01*
X69544285Y-144497200D02*
X69449047Y-144544819D01*
X69449047Y-144544819D02*
X69210952Y-144544819D01*
X69210952Y-144544819D02*
X69115714Y-144497200D01*
X69115714Y-144497200D02*
X69068095Y-144449580D01*
X138746667Y-124497200D02*
X138889524Y-124544819D01*
X138889524Y-124544819D02*
X139127619Y-124544819D01*
X139127619Y-124544819D02*
X139222857Y-124497200D01*
X139222857Y-124497200D02*
X139270476Y-124449580D01*
X139270476Y-124449580D02*
X139318095Y-124354342D01*
X139318095Y-124354342D02*
X139318095Y-124259104D01*
X139318095Y-124259104D02*
X139270476Y-124163866D01*
X139270476Y-124163866D02*
X139222857Y-124116247D01*
X139222857Y-124116247D02*
X139127619Y-124068628D01*
X139127619Y-124068628D02*
X138937143Y-124021009D01*
X138937143Y-124021009D02*
X138841905Y-123973390D01*
X138841905Y-123973390D02*
X138794286Y-123925771D01*
X138794286Y-123925771D02*
X138746667Y-123830533D01*
X138746667Y-123830533D02*
X138746667Y-123735295D01*
X138746667Y-123735295D02*
X138794286Y-123640057D01*
X138794286Y-123640057D02*
X138841905Y-123592438D01*
X138841905Y-123592438D02*
X138937143Y-123544819D01*
X138937143Y-123544819D02*
X139175238Y-123544819D01*
X139175238Y-123544819D02*
X139318095Y-123592438D01*
X139651429Y-123544819D02*
X139889524Y-124544819D01*
X139889524Y-124544819D02*
X140080000Y-123830533D01*
X140080000Y-123830533D02*
X140270476Y-124544819D01*
X140270476Y-124544819D02*
X140508572Y-123544819D01*
X140841905Y-123640057D02*
X140889524Y-123592438D01*
X140889524Y-123592438D02*
X140984762Y-123544819D01*
X140984762Y-123544819D02*
X141222857Y-123544819D01*
X141222857Y-123544819D02*
X141318095Y-123592438D01*
X141318095Y-123592438D02*
X141365714Y-123640057D01*
X141365714Y-123640057D02*
X141413333Y-123735295D01*
X141413333Y-123735295D02*
X141413333Y-123830533D01*
X141413333Y-123830533D02*
X141365714Y-123973390D01*
X141365714Y-123973390D02*
X140794286Y-124544819D01*
X140794286Y-124544819D02*
X141413333Y-124544819D01*
X66020476Y-164497200D02*
X66163333Y-164544819D01*
X66163333Y-164544819D02*
X66401428Y-164544819D01*
X66401428Y-164544819D02*
X66496666Y-164497200D01*
X66496666Y-164497200D02*
X66544285Y-164449580D01*
X66544285Y-164449580D02*
X66591904Y-164354342D01*
X66591904Y-164354342D02*
X66591904Y-164259104D01*
X66591904Y-164259104D02*
X66544285Y-164163866D01*
X66544285Y-164163866D02*
X66496666Y-164116247D01*
X66496666Y-164116247D02*
X66401428Y-164068628D01*
X66401428Y-164068628D02*
X66210952Y-164021009D01*
X66210952Y-164021009D02*
X66115714Y-163973390D01*
X66115714Y-163973390D02*
X66068095Y-163925771D01*
X66068095Y-163925771D02*
X66020476Y-163830533D01*
X66020476Y-163830533D02*
X66020476Y-163735295D01*
X66020476Y-163735295D02*
X66068095Y-163640057D01*
X66068095Y-163640057D02*
X66115714Y-163592438D01*
X66115714Y-163592438D02*
X66210952Y-163544819D01*
X66210952Y-163544819D02*
X66449047Y-163544819D01*
X66449047Y-163544819D02*
X66591904Y-163592438D01*
X66925238Y-163544819D02*
X67163333Y-164544819D01*
X67163333Y-164544819D02*
X67353809Y-163830533D01*
X67353809Y-163830533D02*
X67544285Y-164544819D01*
X67544285Y-164544819D02*
X67782381Y-163544819D01*
X68687142Y-164544819D02*
X68115714Y-164544819D01*
X68401428Y-164544819D02*
X68401428Y-163544819D01*
X68401428Y-163544819D02*
X68306190Y-163687676D01*
X68306190Y-163687676D02*
X68210952Y-163782914D01*
X68210952Y-163782914D02*
X68115714Y-163830533D01*
X69544285Y-163544819D02*
X69353809Y-163544819D01*
X69353809Y-163544819D02*
X69258571Y-163592438D01*
X69258571Y-163592438D02*
X69210952Y-163640057D01*
X69210952Y-163640057D02*
X69115714Y-163782914D01*
X69115714Y-163782914D02*
X69068095Y-163973390D01*
X69068095Y-163973390D02*
X69068095Y-164354342D01*
X69068095Y-164354342D02*
X69115714Y-164449580D01*
X69115714Y-164449580D02*
X69163333Y-164497200D01*
X69163333Y-164497200D02*
X69258571Y-164544819D01*
X69258571Y-164544819D02*
X69449047Y-164544819D01*
X69449047Y-164544819D02*
X69544285Y-164497200D01*
X69544285Y-164497200D02*
X69591904Y-164449580D01*
X69591904Y-164449580D02*
X69639523Y-164354342D01*
X69639523Y-164354342D02*
X69639523Y-164116247D01*
X69639523Y-164116247D02*
X69591904Y-164021009D01*
X69591904Y-164021009D02*
X69544285Y-163973390D01*
X69544285Y-163973390D02*
X69449047Y-163925771D01*
X69449047Y-163925771D02*
X69258571Y-163925771D01*
X69258571Y-163925771D02*
X69163333Y-163973390D01*
X69163333Y-163973390D02*
X69115714Y-164021009D01*
X69115714Y-164021009D02*
X69068095Y-164116247D01*
X90996667Y-104497200D02*
X91139524Y-104544819D01*
X91139524Y-104544819D02*
X91377619Y-104544819D01*
X91377619Y-104544819D02*
X91472857Y-104497200D01*
X91472857Y-104497200D02*
X91520476Y-104449580D01*
X91520476Y-104449580D02*
X91568095Y-104354342D01*
X91568095Y-104354342D02*
X91568095Y-104259104D01*
X91568095Y-104259104D02*
X91520476Y-104163866D01*
X91520476Y-104163866D02*
X91472857Y-104116247D01*
X91472857Y-104116247D02*
X91377619Y-104068628D01*
X91377619Y-104068628D02*
X91187143Y-104021009D01*
X91187143Y-104021009D02*
X91091905Y-103973390D01*
X91091905Y-103973390D02*
X91044286Y-103925771D01*
X91044286Y-103925771D02*
X90996667Y-103830533D01*
X90996667Y-103830533D02*
X90996667Y-103735295D01*
X90996667Y-103735295D02*
X91044286Y-103640057D01*
X91044286Y-103640057D02*
X91091905Y-103592438D01*
X91091905Y-103592438D02*
X91187143Y-103544819D01*
X91187143Y-103544819D02*
X91425238Y-103544819D01*
X91425238Y-103544819D02*
X91568095Y-103592438D01*
X91901429Y-103544819D02*
X92139524Y-104544819D01*
X92139524Y-104544819D02*
X92330000Y-103830533D01*
X92330000Y-103830533D02*
X92520476Y-104544819D01*
X92520476Y-104544819D02*
X92758572Y-103544819D01*
X93187143Y-104544819D02*
X93377619Y-104544819D01*
X93377619Y-104544819D02*
X93472857Y-104497200D01*
X93472857Y-104497200D02*
X93520476Y-104449580D01*
X93520476Y-104449580D02*
X93615714Y-104306723D01*
X93615714Y-104306723D02*
X93663333Y-104116247D01*
X93663333Y-104116247D02*
X93663333Y-103735295D01*
X93663333Y-103735295D02*
X93615714Y-103640057D01*
X93615714Y-103640057D02*
X93568095Y-103592438D01*
X93568095Y-103592438D02*
X93472857Y-103544819D01*
X93472857Y-103544819D02*
X93282381Y-103544819D01*
X93282381Y-103544819D02*
X93187143Y-103592438D01*
X93187143Y-103592438D02*
X93139524Y-103640057D01*
X93139524Y-103640057D02*
X93091905Y-103735295D01*
X93091905Y-103735295D02*
X93091905Y-103973390D01*
X93091905Y-103973390D02*
X93139524Y-104068628D01*
X93139524Y-104068628D02*
X93187143Y-104116247D01*
X93187143Y-104116247D02*
X93282381Y-104163866D01*
X93282381Y-104163866D02*
X93472857Y-104163866D01*
X93472857Y-104163866D02*
X93568095Y-104116247D01*
X93568095Y-104116247D02*
X93615714Y-104068628D01*
X93615714Y-104068628D02*
X93663333Y-103973390D01*
X66020476Y-104497200D02*
X66163333Y-104544819D01*
X66163333Y-104544819D02*
X66401428Y-104544819D01*
X66401428Y-104544819D02*
X66496666Y-104497200D01*
X66496666Y-104497200D02*
X66544285Y-104449580D01*
X66544285Y-104449580D02*
X66591904Y-104354342D01*
X66591904Y-104354342D02*
X66591904Y-104259104D01*
X66591904Y-104259104D02*
X66544285Y-104163866D01*
X66544285Y-104163866D02*
X66496666Y-104116247D01*
X66496666Y-104116247D02*
X66401428Y-104068628D01*
X66401428Y-104068628D02*
X66210952Y-104021009D01*
X66210952Y-104021009D02*
X66115714Y-103973390D01*
X66115714Y-103973390D02*
X66068095Y-103925771D01*
X66068095Y-103925771D02*
X66020476Y-103830533D01*
X66020476Y-103830533D02*
X66020476Y-103735295D01*
X66020476Y-103735295D02*
X66068095Y-103640057D01*
X66068095Y-103640057D02*
X66115714Y-103592438D01*
X66115714Y-103592438D02*
X66210952Y-103544819D01*
X66210952Y-103544819D02*
X66449047Y-103544819D01*
X66449047Y-103544819D02*
X66591904Y-103592438D01*
X66925238Y-103544819D02*
X67163333Y-104544819D01*
X67163333Y-104544819D02*
X67353809Y-103830533D01*
X67353809Y-103830533D02*
X67544285Y-104544819D01*
X67544285Y-104544819D02*
X67782381Y-103544819D01*
X68687142Y-104544819D02*
X68115714Y-104544819D01*
X68401428Y-104544819D02*
X68401428Y-103544819D01*
X68401428Y-103544819D02*
X68306190Y-103687676D01*
X68306190Y-103687676D02*
X68210952Y-103782914D01*
X68210952Y-103782914D02*
X68115714Y-103830533D01*
X69020476Y-103544819D02*
X69639523Y-103544819D01*
X69639523Y-103544819D02*
X69306190Y-103925771D01*
X69306190Y-103925771D02*
X69449047Y-103925771D01*
X69449047Y-103925771D02*
X69544285Y-103973390D01*
X69544285Y-103973390D02*
X69591904Y-104021009D01*
X69591904Y-104021009D02*
X69639523Y-104116247D01*
X69639523Y-104116247D02*
X69639523Y-104354342D01*
X69639523Y-104354342D02*
X69591904Y-104449580D01*
X69591904Y-104449580D02*
X69544285Y-104497200D01*
X69544285Y-104497200D02*
X69449047Y-104544819D01*
X69449047Y-104544819D02*
X69163333Y-104544819D01*
X69163333Y-104544819D02*
X69068095Y-104497200D01*
X69068095Y-104497200D02*
X69020476Y-104449580D01*
X138746667Y-104497200D02*
X138889524Y-104544819D01*
X138889524Y-104544819D02*
X139127619Y-104544819D01*
X139127619Y-104544819D02*
X139222857Y-104497200D01*
X139222857Y-104497200D02*
X139270476Y-104449580D01*
X139270476Y-104449580D02*
X139318095Y-104354342D01*
X139318095Y-104354342D02*
X139318095Y-104259104D01*
X139318095Y-104259104D02*
X139270476Y-104163866D01*
X139270476Y-104163866D02*
X139222857Y-104116247D01*
X139222857Y-104116247D02*
X139127619Y-104068628D01*
X139127619Y-104068628D02*
X138937143Y-104021009D01*
X138937143Y-104021009D02*
X138841905Y-103973390D01*
X138841905Y-103973390D02*
X138794286Y-103925771D01*
X138794286Y-103925771D02*
X138746667Y-103830533D01*
X138746667Y-103830533D02*
X138746667Y-103735295D01*
X138746667Y-103735295D02*
X138794286Y-103640057D01*
X138794286Y-103640057D02*
X138841905Y-103592438D01*
X138841905Y-103592438D02*
X138937143Y-103544819D01*
X138937143Y-103544819D02*
X139175238Y-103544819D01*
X139175238Y-103544819D02*
X139318095Y-103592438D01*
X139651429Y-103544819D02*
X139889524Y-104544819D01*
X139889524Y-104544819D02*
X140080000Y-103830533D01*
X140080000Y-103830533D02*
X140270476Y-104544819D01*
X140270476Y-104544819D02*
X140508572Y-103544819D01*
X141413333Y-104544819D02*
X140841905Y-104544819D01*
X141127619Y-104544819D02*
X141127619Y-103544819D01*
X141127619Y-103544819D02*
X141032381Y-103687676D01*
X141032381Y-103687676D02*
X140937143Y-103782914D01*
X140937143Y-103782914D02*
X140841905Y-103830533D01*
X65104819Y-48715238D02*
X64628628Y-49048571D01*
X65104819Y-49286666D02*
X64104819Y-49286666D01*
X64104819Y-49286666D02*
X64104819Y-48905714D01*
X64104819Y-48905714D02*
X64152438Y-48810476D01*
X64152438Y-48810476D02*
X64200057Y-48762857D01*
X64200057Y-48762857D02*
X64295295Y-48715238D01*
X64295295Y-48715238D02*
X64438152Y-48715238D01*
X64438152Y-48715238D02*
X64533390Y-48762857D01*
X64533390Y-48762857D02*
X64581009Y-48810476D01*
X64581009Y-48810476D02*
X64628628Y-48905714D01*
X64628628Y-48905714D02*
X64628628Y-49286666D01*
X64104819Y-48429523D02*
X65104819Y-48096190D01*
X65104819Y-48096190D02*
X64104819Y-47762857D01*
X65104819Y-46905714D02*
X65104819Y-47477142D01*
X65104819Y-47191428D02*
X64104819Y-47191428D01*
X64104819Y-47191428D02*
X64247676Y-47286666D01*
X64247676Y-47286666D02*
X64342914Y-47381904D01*
X64342914Y-47381904D02*
X64390533Y-47477142D01*
X58413333Y-56704819D02*
X58080000Y-56228628D01*
X57841905Y-56704819D02*
X57841905Y-55704819D01*
X57841905Y-55704819D02*
X58222857Y-55704819D01*
X58222857Y-55704819D02*
X58318095Y-55752438D01*
X58318095Y-55752438D02*
X58365714Y-55800057D01*
X58365714Y-55800057D02*
X58413333Y-55895295D01*
X58413333Y-55895295D02*
X58413333Y-56038152D01*
X58413333Y-56038152D02*
X58365714Y-56133390D01*
X58365714Y-56133390D02*
X58318095Y-56181009D01*
X58318095Y-56181009D02*
X58222857Y-56228628D01*
X58222857Y-56228628D02*
X57841905Y-56228628D01*
X58794286Y-55800057D02*
X58841905Y-55752438D01*
X58841905Y-55752438D02*
X58937143Y-55704819D01*
X58937143Y-55704819D02*
X59175238Y-55704819D01*
X59175238Y-55704819D02*
X59270476Y-55752438D01*
X59270476Y-55752438D02*
X59318095Y-55800057D01*
X59318095Y-55800057D02*
X59365714Y-55895295D01*
X59365714Y-55895295D02*
X59365714Y-55990533D01*
X59365714Y-55990533D02*
X59318095Y-56133390D01*
X59318095Y-56133390D02*
X58746667Y-56704819D01*
X58746667Y-56704819D02*
X59365714Y-56704819D01*
X70284819Y-33833333D02*
X70999104Y-33833333D01*
X70999104Y-33833333D02*
X71141961Y-33880952D01*
X71141961Y-33880952D02*
X71237200Y-33976190D01*
X71237200Y-33976190D02*
X71284819Y-34119047D01*
X71284819Y-34119047D02*
X71284819Y-34214285D01*
X70380057Y-33404761D02*
X70332438Y-33357142D01*
X70332438Y-33357142D02*
X70284819Y-33261904D01*
X70284819Y-33261904D02*
X70284819Y-33023809D01*
X70284819Y-33023809D02*
X70332438Y-32928571D01*
X70332438Y-32928571D02*
X70380057Y-32880952D01*
X70380057Y-32880952D02*
X70475295Y-32833333D01*
X70475295Y-32833333D02*
X70570533Y-32833333D01*
X70570533Y-32833333D02*
X70713390Y-32880952D01*
X70713390Y-32880952D02*
X71284819Y-33452380D01*
X71284819Y-33452380D02*
X71284819Y-32833333D01*
X70965714Y-41764819D02*
X70965714Y-40764819D01*
X70965714Y-40764819D02*
X71203809Y-40764819D01*
X71203809Y-40764819D02*
X71346666Y-40812438D01*
X71346666Y-40812438D02*
X71441904Y-40907676D01*
X71441904Y-40907676D02*
X71489523Y-41002914D01*
X71489523Y-41002914D02*
X71537142Y-41193390D01*
X71537142Y-41193390D02*
X71537142Y-41336247D01*
X71537142Y-41336247D02*
X71489523Y-41526723D01*
X71489523Y-41526723D02*
X71441904Y-41621961D01*
X71441904Y-41621961D02*
X71346666Y-41717200D01*
X71346666Y-41717200D02*
X71203809Y-41764819D01*
X71203809Y-41764819D02*
X70965714Y-41764819D01*
X71918095Y-41717200D02*
X72060952Y-41764819D01*
X72060952Y-41764819D02*
X72299047Y-41764819D01*
X72299047Y-41764819D02*
X72394285Y-41717200D01*
X72394285Y-41717200D02*
X72441904Y-41669580D01*
X72441904Y-41669580D02*
X72489523Y-41574342D01*
X72489523Y-41574342D02*
X72489523Y-41479104D01*
X72489523Y-41479104D02*
X72441904Y-41383866D01*
X72441904Y-41383866D02*
X72394285Y-41336247D01*
X72394285Y-41336247D02*
X72299047Y-41288628D01*
X72299047Y-41288628D02*
X72108571Y-41241009D01*
X72108571Y-41241009D02*
X72013333Y-41193390D01*
X72013333Y-41193390D02*
X71965714Y-41145771D01*
X71965714Y-41145771D02*
X71918095Y-41050533D01*
X71918095Y-41050533D02*
X71918095Y-40955295D01*
X71918095Y-40955295D02*
X71965714Y-40860057D01*
X71965714Y-40860057D02*
X72013333Y-40812438D01*
X72013333Y-40812438D02*
X72108571Y-40764819D01*
X72108571Y-40764819D02*
X72346666Y-40764819D01*
X72346666Y-40764819D02*
X72489523Y-40812438D01*
X73441904Y-41764819D02*
X72870476Y-41764819D01*
X73156190Y-41764819D02*
X73156190Y-40764819D01*
X73156190Y-40764819D02*
X73060952Y-40907676D01*
X73060952Y-40907676D02*
X72965714Y-41002914D01*
X72965714Y-41002914D02*
X72870476Y-41050533D01*
X60074819Y-171714285D02*
X59074819Y-171714285D01*
X59074819Y-171714285D02*
X59074819Y-171476190D01*
X59074819Y-171476190D02*
X59122438Y-171333333D01*
X59122438Y-171333333D02*
X59217676Y-171238095D01*
X59217676Y-171238095D02*
X59312914Y-171190476D01*
X59312914Y-171190476D02*
X59503390Y-171142857D01*
X59503390Y-171142857D02*
X59646247Y-171142857D01*
X59646247Y-171142857D02*
X59836723Y-171190476D01*
X59836723Y-171190476D02*
X59931961Y-171238095D01*
X59931961Y-171238095D02*
X60027200Y-171333333D01*
X60027200Y-171333333D02*
X60074819Y-171476190D01*
X60074819Y-171476190D02*
X60074819Y-171714285D01*
X60074819Y-170190476D02*
X60074819Y-170761904D01*
X60074819Y-170476190D02*
X59074819Y-170476190D01*
X59074819Y-170476190D02*
X59217676Y-170571428D01*
X59217676Y-170571428D02*
X59312914Y-170666666D01*
X59312914Y-170666666D02*
X59360533Y-170761904D01*
X59074819Y-169333333D02*
X59074819Y-169523809D01*
X59074819Y-169523809D02*
X59122438Y-169619047D01*
X59122438Y-169619047D02*
X59170057Y-169666666D01*
X59170057Y-169666666D02*
X59312914Y-169761904D01*
X59312914Y-169761904D02*
X59503390Y-169809523D01*
X59503390Y-169809523D02*
X59884342Y-169809523D01*
X59884342Y-169809523D02*
X59979580Y-169761904D01*
X59979580Y-169761904D02*
X60027200Y-169714285D01*
X60027200Y-169714285D02*
X60074819Y-169619047D01*
X60074819Y-169619047D02*
X60074819Y-169428571D01*
X60074819Y-169428571D02*
X60027200Y-169333333D01*
X60027200Y-169333333D02*
X59979580Y-169285714D01*
X59979580Y-169285714D02*
X59884342Y-169238095D01*
X59884342Y-169238095D02*
X59646247Y-169238095D01*
X59646247Y-169238095D02*
X59551009Y-169285714D01*
X59551009Y-169285714D02*
X59503390Y-169333333D01*
X59503390Y-169333333D02*
X59455771Y-169428571D01*
X59455771Y-169428571D02*
X59455771Y-169619047D01*
X59455771Y-169619047D02*
X59503390Y-169714285D01*
X59503390Y-169714285D02*
X59551009Y-169761904D01*
X59551009Y-169761904D02*
X59646247Y-169809523D01*
X59754819Y-166951904D02*
X58754819Y-166951904D01*
X59754819Y-166380476D02*
X59183390Y-166809047D01*
X58754819Y-166380476D02*
X59326247Y-166951904D01*
X60074819Y-151714285D02*
X59074819Y-151714285D01*
X59074819Y-151714285D02*
X59074819Y-151476190D01*
X59074819Y-151476190D02*
X59122438Y-151333333D01*
X59122438Y-151333333D02*
X59217676Y-151238095D01*
X59217676Y-151238095D02*
X59312914Y-151190476D01*
X59312914Y-151190476D02*
X59503390Y-151142857D01*
X59503390Y-151142857D02*
X59646247Y-151142857D01*
X59646247Y-151142857D02*
X59836723Y-151190476D01*
X59836723Y-151190476D02*
X59931961Y-151238095D01*
X59931961Y-151238095D02*
X60027200Y-151333333D01*
X60027200Y-151333333D02*
X60074819Y-151476190D01*
X60074819Y-151476190D02*
X60074819Y-151714285D01*
X60074819Y-150190476D02*
X60074819Y-150761904D01*
X60074819Y-150476190D02*
X59074819Y-150476190D01*
X59074819Y-150476190D02*
X59217676Y-150571428D01*
X59217676Y-150571428D02*
X59312914Y-150666666D01*
X59312914Y-150666666D02*
X59360533Y-150761904D01*
X59074819Y-149285714D02*
X59074819Y-149761904D01*
X59074819Y-149761904D02*
X59551009Y-149809523D01*
X59551009Y-149809523D02*
X59503390Y-149761904D01*
X59503390Y-149761904D02*
X59455771Y-149666666D01*
X59455771Y-149666666D02*
X59455771Y-149428571D01*
X59455771Y-149428571D02*
X59503390Y-149333333D01*
X59503390Y-149333333D02*
X59551009Y-149285714D01*
X59551009Y-149285714D02*
X59646247Y-149238095D01*
X59646247Y-149238095D02*
X59884342Y-149238095D01*
X59884342Y-149238095D02*
X59979580Y-149285714D01*
X59979580Y-149285714D02*
X60027200Y-149333333D01*
X60027200Y-149333333D02*
X60074819Y-149428571D01*
X60074819Y-149428571D02*
X60074819Y-149666666D01*
X60074819Y-149666666D02*
X60027200Y-149761904D01*
X60027200Y-149761904D02*
X59979580Y-149809523D01*
X59754819Y-146951904D02*
X58754819Y-146951904D01*
X59754819Y-146380476D02*
X59183390Y-146809047D01*
X58754819Y-146380476D02*
X59326247Y-146951904D01*
X60074819Y-131714285D02*
X59074819Y-131714285D01*
X59074819Y-131714285D02*
X59074819Y-131476190D01*
X59074819Y-131476190D02*
X59122438Y-131333333D01*
X59122438Y-131333333D02*
X59217676Y-131238095D01*
X59217676Y-131238095D02*
X59312914Y-131190476D01*
X59312914Y-131190476D02*
X59503390Y-131142857D01*
X59503390Y-131142857D02*
X59646247Y-131142857D01*
X59646247Y-131142857D02*
X59836723Y-131190476D01*
X59836723Y-131190476D02*
X59931961Y-131238095D01*
X59931961Y-131238095D02*
X60027200Y-131333333D01*
X60027200Y-131333333D02*
X60074819Y-131476190D01*
X60074819Y-131476190D02*
X60074819Y-131714285D01*
X60074819Y-130190476D02*
X60074819Y-130761904D01*
X60074819Y-130476190D02*
X59074819Y-130476190D01*
X59074819Y-130476190D02*
X59217676Y-130571428D01*
X59217676Y-130571428D02*
X59312914Y-130666666D01*
X59312914Y-130666666D02*
X59360533Y-130761904D01*
X59408152Y-129333333D02*
X60074819Y-129333333D01*
X59027200Y-129571428D02*
X59741485Y-129809523D01*
X59741485Y-129809523D02*
X59741485Y-129190476D01*
X59754819Y-126951904D02*
X58754819Y-126951904D01*
X59754819Y-126380476D02*
X59183390Y-126809047D01*
X58754819Y-126380476D02*
X59326247Y-126951904D01*
X60074819Y-111714285D02*
X59074819Y-111714285D01*
X59074819Y-111714285D02*
X59074819Y-111476190D01*
X59074819Y-111476190D02*
X59122438Y-111333333D01*
X59122438Y-111333333D02*
X59217676Y-111238095D01*
X59217676Y-111238095D02*
X59312914Y-111190476D01*
X59312914Y-111190476D02*
X59503390Y-111142857D01*
X59503390Y-111142857D02*
X59646247Y-111142857D01*
X59646247Y-111142857D02*
X59836723Y-111190476D01*
X59836723Y-111190476D02*
X59931961Y-111238095D01*
X59931961Y-111238095D02*
X60027200Y-111333333D01*
X60027200Y-111333333D02*
X60074819Y-111476190D01*
X60074819Y-111476190D02*
X60074819Y-111714285D01*
X60074819Y-110190476D02*
X60074819Y-110761904D01*
X60074819Y-110476190D02*
X59074819Y-110476190D01*
X59074819Y-110476190D02*
X59217676Y-110571428D01*
X59217676Y-110571428D02*
X59312914Y-110666666D01*
X59312914Y-110666666D02*
X59360533Y-110761904D01*
X59074819Y-109857142D02*
X59074819Y-109238095D01*
X59074819Y-109238095D02*
X59455771Y-109571428D01*
X59455771Y-109571428D02*
X59455771Y-109428571D01*
X59455771Y-109428571D02*
X59503390Y-109333333D01*
X59503390Y-109333333D02*
X59551009Y-109285714D01*
X59551009Y-109285714D02*
X59646247Y-109238095D01*
X59646247Y-109238095D02*
X59884342Y-109238095D01*
X59884342Y-109238095D02*
X59979580Y-109285714D01*
X59979580Y-109285714D02*
X60027200Y-109333333D01*
X60027200Y-109333333D02*
X60074819Y-109428571D01*
X60074819Y-109428571D02*
X60074819Y-109714285D01*
X60074819Y-109714285D02*
X60027200Y-109809523D01*
X60027200Y-109809523D02*
X59979580Y-109857142D01*
X59754819Y-106951904D02*
X58754819Y-106951904D01*
X59754819Y-106380476D02*
X59183390Y-106809047D01*
X58754819Y-106380476D02*
X59326247Y-106951904D01*
X84574819Y-171714285D02*
X83574819Y-171714285D01*
X83574819Y-171714285D02*
X83574819Y-171476190D01*
X83574819Y-171476190D02*
X83622438Y-171333333D01*
X83622438Y-171333333D02*
X83717676Y-171238095D01*
X83717676Y-171238095D02*
X83812914Y-171190476D01*
X83812914Y-171190476D02*
X84003390Y-171142857D01*
X84003390Y-171142857D02*
X84146247Y-171142857D01*
X84146247Y-171142857D02*
X84336723Y-171190476D01*
X84336723Y-171190476D02*
X84431961Y-171238095D01*
X84431961Y-171238095D02*
X84527200Y-171333333D01*
X84527200Y-171333333D02*
X84574819Y-171476190D01*
X84574819Y-171476190D02*
X84574819Y-171714285D01*
X84574819Y-170190476D02*
X84574819Y-170761904D01*
X84574819Y-170476190D02*
X83574819Y-170476190D01*
X83574819Y-170476190D02*
X83717676Y-170571428D01*
X83717676Y-170571428D02*
X83812914Y-170666666D01*
X83812914Y-170666666D02*
X83860533Y-170761904D01*
X83670057Y-169809523D02*
X83622438Y-169761904D01*
X83622438Y-169761904D02*
X83574819Y-169666666D01*
X83574819Y-169666666D02*
X83574819Y-169428571D01*
X83574819Y-169428571D02*
X83622438Y-169333333D01*
X83622438Y-169333333D02*
X83670057Y-169285714D01*
X83670057Y-169285714D02*
X83765295Y-169238095D01*
X83765295Y-169238095D02*
X83860533Y-169238095D01*
X83860533Y-169238095D02*
X84003390Y-169285714D01*
X84003390Y-169285714D02*
X84574819Y-169857142D01*
X84574819Y-169857142D02*
X84574819Y-169238095D01*
X84254819Y-166951904D02*
X83254819Y-166951904D01*
X84254819Y-166380476D02*
X83683390Y-166809047D01*
X83254819Y-166380476D02*
X83826247Y-166951904D01*
X84574819Y-151714285D02*
X83574819Y-151714285D01*
X83574819Y-151714285D02*
X83574819Y-151476190D01*
X83574819Y-151476190D02*
X83622438Y-151333333D01*
X83622438Y-151333333D02*
X83717676Y-151238095D01*
X83717676Y-151238095D02*
X83812914Y-151190476D01*
X83812914Y-151190476D02*
X84003390Y-151142857D01*
X84003390Y-151142857D02*
X84146247Y-151142857D01*
X84146247Y-151142857D02*
X84336723Y-151190476D01*
X84336723Y-151190476D02*
X84431961Y-151238095D01*
X84431961Y-151238095D02*
X84527200Y-151333333D01*
X84527200Y-151333333D02*
X84574819Y-151476190D01*
X84574819Y-151476190D02*
X84574819Y-151714285D01*
X84574819Y-150190476D02*
X84574819Y-150761904D01*
X84574819Y-150476190D02*
X83574819Y-150476190D01*
X83574819Y-150476190D02*
X83717676Y-150571428D01*
X83717676Y-150571428D02*
X83812914Y-150666666D01*
X83812914Y-150666666D02*
X83860533Y-150761904D01*
X84574819Y-149238095D02*
X84574819Y-149809523D01*
X84574819Y-149523809D02*
X83574819Y-149523809D01*
X83574819Y-149523809D02*
X83717676Y-149619047D01*
X83717676Y-149619047D02*
X83812914Y-149714285D01*
X83812914Y-149714285D02*
X83860533Y-149809523D01*
X84254819Y-146951904D02*
X83254819Y-146951904D01*
X84254819Y-146380476D02*
X83683390Y-146809047D01*
X83254819Y-146380476D02*
X83826247Y-146951904D01*
X84574819Y-131714285D02*
X83574819Y-131714285D01*
X83574819Y-131714285D02*
X83574819Y-131476190D01*
X83574819Y-131476190D02*
X83622438Y-131333333D01*
X83622438Y-131333333D02*
X83717676Y-131238095D01*
X83717676Y-131238095D02*
X83812914Y-131190476D01*
X83812914Y-131190476D02*
X84003390Y-131142857D01*
X84003390Y-131142857D02*
X84146247Y-131142857D01*
X84146247Y-131142857D02*
X84336723Y-131190476D01*
X84336723Y-131190476D02*
X84431961Y-131238095D01*
X84431961Y-131238095D02*
X84527200Y-131333333D01*
X84527200Y-131333333D02*
X84574819Y-131476190D01*
X84574819Y-131476190D02*
X84574819Y-131714285D01*
X84574819Y-130190476D02*
X84574819Y-130761904D01*
X84574819Y-130476190D02*
X83574819Y-130476190D01*
X83574819Y-130476190D02*
X83717676Y-130571428D01*
X83717676Y-130571428D02*
X83812914Y-130666666D01*
X83812914Y-130666666D02*
X83860533Y-130761904D01*
X83574819Y-129571428D02*
X83574819Y-129476190D01*
X83574819Y-129476190D02*
X83622438Y-129380952D01*
X83622438Y-129380952D02*
X83670057Y-129333333D01*
X83670057Y-129333333D02*
X83765295Y-129285714D01*
X83765295Y-129285714D02*
X83955771Y-129238095D01*
X83955771Y-129238095D02*
X84193866Y-129238095D01*
X84193866Y-129238095D02*
X84384342Y-129285714D01*
X84384342Y-129285714D02*
X84479580Y-129333333D01*
X84479580Y-129333333D02*
X84527200Y-129380952D01*
X84527200Y-129380952D02*
X84574819Y-129476190D01*
X84574819Y-129476190D02*
X84574819Y-129571428D01*
X84574819Y-129571428D02*
X84527200Y-129666666D01*
X84527200Y-129666666D02*
X84479580Y-129714285D01*
X84479580Y-129714285D02*
X84384342Y-129761904D01*
X84384342Y-129761904D02*
X84193866Y-129809523D01*
X84193866Y-129809523D02*
X83955771Y-129809523D01*
X83955771Y-129809523D02*
X83765295Y-129761904D01*
X83765295Y-129761904D02*
X83670057Y-129714285D01*
X83670057Y-129714285D02*
X83622438Y-129666666D01*
X83622438Y-129666666D02*
X83574819Y-129571428D01*
X84254819Y-126951904D02*
X83254819Y-126951904D01*
X84254819Y-126380476D02*
X83683390Y-126809047D01*
X83254819Y-126380476D02*
X83826247Y-126951904D01*
X84574819Y-111428094D02*
X83574819Y-111428094D01*
X83574819Y-111428094D02*
X83574819Y-111189999D01*
X83574819Y-111189999D02*
X83622438Y-111047142D01*
X83622438Y-111047142D02*
X83717676Y-110951904D01*
X83717676Y-110951904D02*
X83812914Y-110904285D01*
X83812914Y-110904285D02*
X84003390Y-110856666D01*
X84003390Y-110856666D02*
X84146247Y-110856666D01*
X84146247Y-110856666D02*
X84336723Y-110904285D01*
X84336723Y-110904285D02*
X84431961Y-110951904D01*
X84431961Y-110951904D02*
X84527200Y-111047142D01*
X84527200Y-111047142D02*
X84574819Y-111189999D01*
X84574819Y-111189999D02*
X84574819Y-111428094D01*
X84574819Y-110380475D02*
X84574819Y-110189999D01*
X84574819Y-110189999D02*
X84527200Y-110094761D01*
X84527200Y-110094761D02*
X84479580Y-110047142D01*
X84479580Y-110047142D02*
X84336723Y-109951904D01*
X84336723Y-109951904D02*
X84146247Y-109904285D01*
X84146247Y-109904285D02*
X83765295Y-109904285D01*
X83765295Y-109904285D02*
X83670057Y-109951904D01*
X83670057Y-109951904D02*
X83622438Y-109999523D01*
X83622438Y-109999523D02*
X83574819Y-110094761D01*
X83574819Y-110094761D02*
X83574819Y-110285237D01*
X83574819Y-110285237D02*
X83622438Y-110380475D01*
X83622438Y-110380475D02*
X83670057Y-110428094D01*
X83670057Y-110428094D02*
X83765295Y-110475713D01*
X83765295Y-110475713D02*
X84003390Y-110475713D01*
X84003390Y-110475713D02*
X84098628Y-110428094D01*
X84098628Y-110428094D02*
X84146247Y-110380475D01*
X84146247Y-110380475D02*
X84193866Y-110285237D01*
X84193866Y-110285237D02*
X84193866Y-110094761D01*
X84193866Y-110094761D02*
X84146247Y-109999523D01*
X84146247Y-109999523D02*
X84098628Y-109951904D01*
X84098628Y-109951904D02*
X84003390Y-109904285D01*
X84254819Y-107141904D02*
X83254819Y-107141904D01*
X84254819Y-106570476D02*
X83683390Y-106999047D01*
X83254819Y-106570476D02*
X83826247Y-107141904D01*
X64333333Y-35129580D02*
X64285714Y-35177200D01*
X64285714Y-35177200D02*
X64142857Y-35224819D01*
X64142857Y-35224819D02*
X64047619Y-35224819D01*
X64047619Y-35224819D02*
X63904762Y-35177200D01*
X63904762Y-35177200D02*
X63809524Y-35081961D01*
X63809524Y-35081961D02*
X63761905Y-34986723D01*
X63761905Y-34986723D02*
X63714286Y-34796247D01*
X63714286Y-34796247D02*
X63714286Y-34653390D01*
X63714286Y-34653390D02*
X63761905Y-34462914D01*
X63761905Y-34462914D02*
X63809524Y-34367676D01*
X63809524Y-34367676D02*
X63904762Y-34272438D01*
X63904762Y-34272438D02*
X64047619Y-34224819D01*
X64047619Y-34224819D02*
X64142857Y-34224819D01*
X64142857Y-34224819D02*
X64285714Y-34272438D01*
X64285714Y-34272438D02*
X64333333Y-34320057D01*
X65285714Y-35224819D02*
X64714286Y-35224819D01*
X65000000Y-35224819D02*
X65000000Y-34224819D01*
X65000000Y-34224819D02*
X64904762Y-34367676D01*
X64904762Y-34367676D02*
X64809524Y-34462914D01*
X64809524Y-34462914D02*
X64714286Y-34510533D01*
D12*
%TO.C,SW8*%
X119300000Y-172000000D02*
G75*
G02*
X112200000Y-172000000I-3550000J0D01*
G01*
X112200000Y-172000000D02*
G75*
G02*
X119300000Y-172000000I3550000J0D01*
G01*
X121860000Y-178110000D02*
X109640000Y-178110000D01*
X121860000Y-175600000D02*
X121860000Y-178110000D01*
X121860000Y-170700000D02*
X121860000Y-173300000D01*
X121860000Y-165890000D02*
X121860000Y-168400000D01*
X109640000Y-175600000D02*
X109640000Y-178110000D01*
X109640000Y-170700000D02*
X109640000Y-173300000D01*
X109640000Y-165890000D02*
X121860000Y-165890000D01*
X109640000Y-165890000D02*
X109640000Y-168400000D01*
%TO.C,D4*%
X130870000Y-168380000D02*
X128630000Y-168380000D01*
X128630000Y-172620000D01*
X130870000Y-172620000D01*
X130870000Y-168380000D01*
X129750000Y-173270000D02*
X129750000Y-172620000D01*
X130870000Y-169220000D02*
X128630000Y-169220000D01*
X130870000Y-169100000D02*
X128630000Y-169100000D01*
X130870000Y-168980000D02*
X128630000Y-168980000D01*
X129750000Y-167730000D02*
X129750000Y-168380000D01*
%TO.C,D3*%
X129750000Y-147730000D02*
X129750000Y-148380000D01*
X130870000Y-148980000D02*
X128630000Y-148980000D01*
X130870000Y-149100000D02*
X128630000Y-149100000D01*
X130870000Y-149220000D02*
X128630000Y-149220000D01*
X129750000Y-153270000D02*
X129750000Y-152620000D01*
X130870000Y-148380000D02*
X128630000Y-148380000D01*
X128630000Y-152620000D01*
X130870000Y-152620000D01*
X130870000Y-148380000D01*
%TO.C,D2*%
X130870000Y-128380000D02*
X128630000Y-128380000D01*
X128630000Y-132620000D01*
X130870000Y-132620000D01*
X130870000Y-128380000D01*
X129750000Y-133270000D02*
X129750000Y-132620000D01*
X130870000Y-129220000D02*
X128630000Y-129220000D01*
X130870000Y-129100000D02*
X128630000Y-129100000D01*
X130870000Y-128980000D02*
X128630000Y-128980000D01*
X129750000Y-127730000D02*
X129750000Y-128380000D01*
%TO.C,D1*%
X130870000Y-108380000D02*
X128630000Y-108380000D01*
X128630000Y-112620000D01*
X130870000Y-112620000D01*
X130870000Y-108380000D01*
X129750000Y-113270000D02*
X129750000Y-112620000D01*
X130870000Y-109220000D02*
X128630000Y-109220000D01*
X130870000Y-109100000D02*
X128630000Y-109100000D01*
X130870000Y-108980000D02*
X128630000Y-108980000D01*
X129750000Y-107730000D02*
X129750000Y-108380000D01*
%TO.C,D6*%
X106120000Y-128380000D02*
X103880000Y-128380000D01*
X103880000Y-132620000D01*
X106120000Y-132620000D01*
X106120000Y-128380000D01*
X105000000Y-133270000D02*
X105000000Y-132620000D01*
X106120000Y-129220000D02*
X103880000Y-129220000D01*
X106120000Y-129100000D02*
X103880000Y-129100000D01*
X106120000Y-128980000D02*
X103880000Y-128980000D01*
X105000000Y-127730000D02*
X105000000Y-128380000D01*
%TO.C,D5*%
X106120000Y-108380000D02*
X103880000Y-108380000D01*
X103880000Y-112620000D01*
X106120000Y-112620000D01*
X106120000Y-108380000D01*
X105000000Y-113270000D02*
X105000000Y-112620000D01*
X106120000Y-109220000D02*
X103880000Y-109220000D01*
X106120000Y-109100000D02*
X103880000Y-109100000D01*
X106120000Y-108980000D02*
X103880000Y-108980000D01*
X105000000Y-107730000D02*
X105000000Y-108380000D01*
%TO.C,D8*%
X106120000Y-168380000D02*
X103880000Y-168380000D01*
X103880000Y-172620000D01*
X106120000Y-172620000D01*
X106120000Y-168380000D01*
X105000000Y-173270000D02*
X105000000Y-172620000D01*
X106120000Y-169220000D02*
X103880000Y-169220000D01*
X106120000Y-169100000D02*
X103880000Y-169100000D01*
X106120000Y-168980000D02*
X103880000Y-168980000D01*
X105000000Y-167730000D02*
X105000000Y-168380000D01*
%TO.C,D7*%
X106120000Y-148380000D02*
X103880000Y-148380000D01*
X103880000Y-152620000D01*
X106120000Y-152620000D01*
X106120000Y-148380000D01*
X105000000Y-153270000D02*
X105000000Y-152620000D01*
X106120000Y-149220000D02*
X103880000Y-149220000D01*
X106120000Y-149100000D02*
X103880000Y-149100000D01*
X106120000Y-148980000D02*
X103880000Y-148980000D01*
X105000000Y-147730000D02*
X105000000Y-148380000D01*
%TO.C,SW5*%
X109640000Y-105890000D02*
X109640000Y-108400000D01*
X109640000Y-105890000D02*
X121860000Y-105890000D01*
X109640000Y-110700000D02*
X109640000Y-113300000D01*
X109640000Y-115600000D02*
X109640000Y-118110000D01*
X121860000Y-105890000D02*
X121860000Y-108400000D01*
X121860000Y-110700000D02*
X121860000Y-113300000D01*
X121860000Y-115600000D02*
X121860000Y-118110000D01*
X121860000Y-118110000D02*
X109640000Y-118110000D01*
X119300000Y-112000000D02*
G75*
G02*
X112200000Y-112000000I-3550000J0D01*
G01*
X112200000Y-112000000D02*
G75*
G02*
X119300000Y-112000000I3550000J0D01*
G01*
%TO.C,SW6*%
X119300000Y-132000000D02*
G75*
G02*
X112200000Y-132000000I-3550000J0D01*
G01*
X112200000Y-132000000D02*
G75*
G02*
X119300000Y-132000000I3550000J0D01*
G01*
X121860000Y-138110000D02*
X109640000Y-138110000D01*
X121860000Y-135600000D02*
X121860000Y-138110000D01*
X121860000Y-130700000D02*
X121860000Y-133300000D01*
X121860000Y-125890000D02*
X121860000Y-128400000D01*
X109640000Y-135600000D02*
X109640000Y-138110000D01*
X109640000Y-130700000D02*
X109640000Y-133300000D01*
X109640000Y-125890000D02*
X121860000Y-125890000D01*
X109640000Y-125890000D02*
X109640000Y-128400000D01*
%TO.C,SW7*%
X109640000Y-145890000D02*
X109640000Y-148400000D01*
X109640000Y-145890000D02*
X121860000Y-145890000D01*
X109640000Y-150700000D02*
X109640000Y-153300000D01*
X109640000Y-155600000D02*
X109640000Y-158110000D01*
X121860000Y-145890000D02*
X121860000Y-148400000D01*
X121860000Y-150700000D02*
X121860000Y-153300000D01*
X121860000Y-155600000D02*
X121860000Y-158110000D01*
X121860000Y-158110000D02*
X109640000Y-158110000D01*
X119300000Y-152000000D02*
G75*
G02*
X112200000Y-152000000I-3550000J0D01*
G01*
X112200000Y-152000000D02*
G75*
G02*
X119300000Y-152000000I3550000J0D01*
G01*
%TO.C,SW12*%
X86640000Y-165890000D02*
X86640000Y-168400000D01*
X86640000Y-165890000D02*
X98860000Y-165890000D01*
X86640000Y-170700000D02*
X86640000Y-173300000D01*
X86640000Y-175600000D02*
X86640000Y-178110000D01*
X98860000Y-165890000D02*
X98860000Y-168400000D01*
X98860000Y-170700000D02*
X98860000Y-173300000D01*
X98860000Y-175600000D02*
X98860000Y-178110000D01*
X98860000Y-178110000D02*
X86640000Y-178110000D01*
X96300000Y-172000000D02*
G75*
G02*
X89200000Y-172000000I-3550000J0D01*
G01*
X89200000Y-172000000D02*
G75*
G02*
X96300000Y-172000000I3550000J0D01*
G01*
%TO.C,SW10*%
X86640000Y-125890000D02*
X86640000Y-128400000D01*
X86640000Y-125890000D02*
X98860000Y-125890000D01*
X86640000Y-130700000D02*
X86640000Y-133300000D01*
X86640000Y-135600000D02*
X86640000Y-138110000D01*
X98860000Y-125890000D02*
X98860000Y-128400000D01*
X98860000Y-130700000D02*
X98860000Y-133300000D01*
X98860000Y-135600000D02*
X98860000Y-138110000D01*
X98860000Y-138110000D02*
X86640000Y-138110000D01*
X96300000Y-132000000D02*
G75*
G02*
X89200000Y-132000000I-3550000J0D01*
G01*
X89200000Y-132000000D02*
G75*
G02*
X96300000Y-132000000I3550000J0D01*
G01*
%TO.C,SW14*%
X71800000Y-132000000D02*
G75*
G02*
X64700000Y-132000000I-3550000J0D01*
G01*
X64700000Y-132000000D02*
G75*
G02*
X71800000Y-132000000I3550000J0D01*
G01*
X74360000Y-138110000D02*
X62140000Y-138110000D01*
X74360000Y-135600000D02*
X74360000Y-138110000D01*
X74360000Y-130700000D02*
X74360000Y-133300000D01*
X74360000Y-125890000D02*
X74360000Y-128400000D01*
X62140000Y-135600000D02*
X62140000Y-138110000D01*
X62140000Y-130700000D02*
X62140000Y-133300000D01*
X62140000Y-125890000D02*
X74360000Y-125890000D01*
X62140000Y-125890000D02*
X62140000Y-128400000D01*
%TO.C,SW3*%
X144050000Y-152000000D02*
G75*
G02*
X136950000Y-152000000I-3550000J0D01*
G01*
X136950000Y-152000000D02*
G75*
G02*
X144050000Y-152000000I3550000J0D01*
G01*
X146610000Y-158110000D02*
X134390000Y-158110000D01*
X146610000Y-155600000D02*
X146610000Y-158110000D01*
X146610000Y-150700000D02*
X146610000Y-153300000D01*
X146610000Y-145890000D02*
X146610000Y-148400000D01*
X134390000Y-155600000D02*
X134390000Y-158110000D01*
X134390000Y-150700000D02*
X134390000Y-153300000D01*
X134390000Y-145890000D02*
X146610000Y-145890000D01*
X134390000Y-145890000D02*
X134390000Y-148400000D01*
%TO.C,SW4*%
X134390000Y-165890000D02*
X134390000Y-168400000D01*
X134390000Y-165890000D02*
X146610000Y-165890000D01*
X134390000Y-170700000D02*
X134390000Y-173300000D01*
X134390000Y-175600000D02*
X134390000Y-178110000D01*
X146610000Y-165890000D02*
X146610000Y-168400000D01*
X146610000Y-170700000D02*
X146610000Y-173300000D01*
X146610000Y-175600000D02*
X146610000Y-178110000D01*
X146610000Y-178110000D02*
X134390000Y-178110000D01*
X144050000Y-172000000D02*
G75*
G02*
X136950000Y-172000000I-3550000J0D01*
G01*
X136950000Y-172000000D02*
G75*
G02*
X144050000Y-172000000I3550000J0D01*
G01*
%TO.C,SW11*%
X86640000Y-145890000D02*
X86640000Y-148400000D01*
X86640000Y-145890000D02*
X98860000Y-145890000D01*
X86640000Y-150700000D02*
X86640000Y-153300000D01*
X86640000Y-155600000D02*
X86640000Y-158110000D01*
X98860000Y-145890000D02*
X98860000Y-148400000D01*
X98860000Y-150700000D02*
X98860000Y-153300000D01*
X98860000Y-155600000D02*
X98860000Y-158110000D01*
X98860000Y-158110000D02*
X86640000Y-158110000D01*
X96300000Y-152000000D02*
G75*
G02*
X89200000Y-152000000I-3550000J0D01*
G01*
X89200000Y-152000000D02*
G75*
G02*
X96300000Y-152000000I3550000J0D01*
G01*
%TO.C,SW15*%
X71800000Y-152000000D02*
G75*
G02*
X64700000Y-152000000I-3550000J0D01*
G01*
X64700000Y-152000000D02*
G75*
G02*
X71800000Y-152000000I3550000J0D01*
G01*
X74360000Y-158110000D02*
X62140000Y-158110000D01*
X74360000Y-155600000D02*
X74360000Y-158110000D01*
X74360000Y-150700000D02*
X74360000Y-153300000D01*
X74360000Y-145890000D02*
X74360000Y-148400000D01*
X62140000Y-155600000D02*
X62140000Y-158110000D01*
X62140000Y-150700000D02*
X62140000Y-153300000D01*
X62140000Y-145890000D02*
X74360000Y-145890000D01*
X62140000Y-145890000D02*
X62140000Y-148400000D01*
%TO.C,SW2*%
X144050000Y-132000000D02*
G75*
G02*
X136950000Y-132000000I-3550000J0D01*
G01*
X136950000Y-132000000D02*
G75*
G02*
X144050000Y-132000000I3550000J0D01*
G01*
X146610000Y-138110000D02*
X134390000Y-138110000D01*
X146610000Y-135600000D02*
X146610000Y-138110000D01*
X146610000Y-130700000D02*
X146610000Y-133300000D01*
X146610000Y-125890000D02*
X146610000Y-128400000D01*
X134390000Y-135600000D02*
X134390000Y-138110000D01*
X134390000Y-130700000D02*
X134390000Y-133300000D01*
X134390000Y-125890000D02*
X146610000Y-125890000D01*
X134390000Y-125890000D02*
X134390000Y-128400000D01*
%TO.C,SW16*%
X71800000Y-172000000D02*
G75*
G02*
X64700000Y-172000000I-3550000J0D01*
G01*
X64700000Y-172000000D02*
G75*
G02*
X71800000Y-172000000I3550000J0D01*
G01*
X74360000Y-178110000D02*
X62140000Y-178110000D01*
X74360000Y-175600000D02*
X74360000Y-178110000D01*
X74360000Y-170700000D02*
X74360000Y-173300000D01*
X74360000Y-165890000D02*
X74360000Y-168400000D01*
X62140000Y-175600000D02*
X62140000Y-178110000D01*
X62140000Y-170700000D02*
X62140000Y-173300000D01*
X62140000Y-165890000D02*
X74360000Y-165890000D01*
X62140000Y-165890000D02*
X62140000Y-168400000D01*
%TO.C,SW9*%
X86640000Y-105890000D02*
X86640000Y-108400000D01*
X86640000Y-105890000D02*
X98860000Y-105890000D01*
X86640000Y-110700000D02*
X86640000Y-113300000D01*
X86640000Y-115600000D02*
X86640000Y-118110000D01*
X98860000Y-105890000D02*
X98860000Y-108400000D01*
X98860000Y-110700000D02*
X98860000Y-113300000D01*
X98860000Y-115600000D02*
X98860000Y-118110000D01*
X98860000Y-118110000D02*
X86640000Y-118110000D01*
X96300000Y-112000000D02*
G75*
G02*
X89200000Y-112000000I-3550000J0D01*
G01*
X89200000Y-112000000D02*
G75*
G02*
X96300000Y-112000000I3550000J0D01*
G01*
%TO.C,SW13*%
X71800000Y-112000000D02*
G75*
G02*
X64700000Y-112000000I-3550000J0D01*
G01*
X64700000Y-112000000D02*
G75*
G02*
X71800000Y-112000000I3550000J0D01*
G01*
X74360000Y-118110000D02*
X62140000Y-118110000D01*
X74360000Y-115600000D02*
X74360000Y-118110000D01*
X74360000Y-110700000D02*
X74360000Y-113300000D01*
X74360000Y-105890000D02*
X74360000Y-108400000D01*
X62140000Y-115600000D02*
X62140000Y-118110000D01*
X62140000Y-110700000D02*
X62140000Y-113300000D01*
X62140000Y-105890000D02*
X74360000Y-105890000D01*
X62140000Y-105890000D02*
X62140000Y-108400000D01*
%TO.C,SW1*%
X144050000Y-112000000D02*
G75*
G02*
X136950000Y-112000000I-3550000J0D01*
G01*
X136950000Y-112000000D02*
G75*
G02*
X144050000Y-112000000I3550000J0D01*
G01*
X146610000Y-118110000D02*
X134390000Y-118110000D01*
X146610000Y-115600000D02*
X146610000Y-118110000D01*
X146610000Y-110700000D02*
X146610000Y-113300000D01*
X146610000Y-105890000D02*
X146610000Y-108400000D01*
X134390000Y-115600000D02*
X134390000Y-118110000D01*
X134390000Y-110700000D02*
X134390000Y-113300000D01*
X134390000Y-105890000D02*
X146610000Y-105890000D01*
X134390000Y-105890000D02*
X134390000Y-108400000D01*
%TO.C,RV1*%
X63510000Y-43010000D02*
X63510000Y-53230000D01*
X62396000Y-43010000D02*
X63510000Y-43010000D01*
X57396000Y-43010000D02*
X59604000Y-43010000D01*
X53490000Y-43010000D02*
X54604000Y-43010000D01*
X63510000Y-53230000D02*
X59896000Y-53230000D01*
X57104000Y-53230000D02*
X53490000Y-53230000D01*
X53490000Y-53230000D02*
X53490000Y-43010000D01*
%TO.C,R2*%
X54540000Y-58620000D02*
X55310000Y-58620000D01*
X62620000Y-58620000D02*
X61850000Y-58620000D01*
X55310000Y-57250000D02*
X61850000Y-57250000D01*
X61850000Y-59990000D01*
X55310000Y-59990000D01*
X55310000Y-57250000D01*
%TO.C,J2*%
X74870000Y-34830000D02*
X118110000Y-34830000D01*
X74870000Y-34830000D02*
X74870000Y-32170000D01*
X118110000Y-34830000D02*
X118110000Y-32170000D01*
X72270000Y-33500000D02*
X72270000Y-32170000D01*
X72270000Y-32170000D02*
X73600000Y-32170000D01*
X74870000Y-32170000D02*
X118110000Y-32170000D01*
%TO.C,DS1*%
X69860000Y-42480000D02*
X69860000Y-78760000D01*
X69860000Y-78760000D02*
X150140000Y-78760000D01*
X69870000Y-42480000D02*
X70660000Y-42480000D01*
X73000000Y-48120000D02*
X146000000Y-48120000D01*
X73000000Y-73120000D02*
X73000000Y-48120000D01*
X76500000Y-42120000D02*
X79500000Y-42120000D01*
X77700280Y-67619320D02*
X77700280Y-53620000D01*
X78200000Y-53120000D02*
X141700000Y-53120000D01*
X141700660Y-68120000D02*
X78200000Y-68120000D01*
X142200000Y-53620000D02*
X142200000Y-67620000D01*
X146000000Y-48120000D02*
X146000000Y-73120000D01*
X146000000Y-73120000D02*
X73000000Y-73120000D01*
X150140000Y-42480000D02*
X70660000Y-42480000D01*
X150140000Y-78760000D02*
X150140000Y-42480000D01*
X77700280Y-53618840D02*
G75*
G02*
X78200660Y-53118460I500380J0D01*
G01*
X78200660Y-68119700D02*
G75*
G02*
X77700280Y-67619320I0J500380D01*
G01*
X141700000Y-53120000D02*
G75*
G02*
X142200000Y-53620000I0J-500000D01*
G01*
X142201040Y-67619320D02*
G75*
G02*
X141700660Y-68119640I-500340J20D01*
G01*
%TO.C,D16*%
X57500000Y-167730000D02*
X57500000Y-168380000D01*
X58620000Y-168980000D02*
X56380000Y-168980000D01*
X58620000Y-169100000D02*
X56380000Y-169100000D01*
X58620000Y-169220000D02*
X56380000Y-169220000D01*
X57500000Y-173270000D02*
X57500000Y-172620000D01*
X58620000Y-168380000D02*
X56380000Y-168380000D01*
X56380000Y-172620000D01*
X58620000Y-172620000D01*
X58620000Y-168380000D01*
%TO.C,D15*%
X57500000Y-147730000D02*
X57500000Y-148380000D01*
X58620000Y-148980000D02*
X56380000Y-148980000D01*
X58620000Y-149100000D02*
X56380000Y-149100000D01*
X58620000Y-149220000D02*
X56380000Y-149220000D01*
X57500000Y-153270000D02*
X57500000Y-152620000D01*
X58620000Y-148380000D02*
X56380000Y-148380000D01*
X56380000Y-152620000D01*
X58620000Y-152620000D01*
X58620000Y-148380000D01*
%TO.C,D14*%
X57500000Y-127730000D02*
X57500000Y-128380000D01*
X58620000Y-128980000D02*
X56380000Y-128980000D01*
X58620000Y-129100000D02*
X56380000Y-129100000D01*
X58620000Y-129220000D02*
X56380000Y-129220000D01*
X57500000Y-133270000D02*
X57500000Y-132620000D01*
X58620000Y-128380000D02*
X56380000Y-128380000D01*
X56380000Y-132620000D01*
X58620000Y-132620000D01*
X58620000Y-128380000D01*
%TO.C,D13*%
X57500000Y-107730000D02*
X57500000Y-108380000D01*
X58620000Y-108980000D02*
X56380000Y-108980000D01*
X58620000Y-109100000D02*
X56380000Y-109100000D01*
X58620000Y-109220000D02*
X56380000Y-109220000D01*
X57500000Y-113270000D02*
X57500000Y-112620000D01*
X58620000Y-108380000D02*
X56380000Y-108380000D01*
X56380000Y-112620000D01*
X58620000Y-112620000D01*
X58620000Y-108380000D01*
%TO.C,D12*%
X82000000Y-167730000D02*
X82000000Y-168380000D01*
X83120000Y-168980000D02*
X80880000Y-168980000D01*
X83120000Y-169100000D02*
X80880000Y-169100000D01*
X83120000Y-169220000D02*
X80880000Y-169220000D01*
X82000000Y-173270000D02*
X82000000Y-172620000D01*
X83120000Y-168380000D02*
X80880000Y-168380000D01*
X80880000Y-172620000D01*
X83120000Y-172620000D01*
X83120000Y-168380000D01*
%TO.C,D11*%
X82000000Y-147730000D02*
X82000000Y-148380000D01*
X83120000Y-148980000D02*
X80880000Y-148980000D01*
X83120000Y-149100000D02*
X80880000Y-149100000D01*
X83120000Y-149220000D02*
X80880000Y-149220000D01*
X82000000Y-153270000D02*
X82000000Y-152620000D01*
X83120000Y-148380000D02*
X80880000Y-148380000D01*
X80880000Y-152620000D01*
X83120000Y-152620000D01*
X83120000Y-148380000D01*
%TO.C,D10*%
X82000000Y-127730000D02*
X82000000Y-128380000D01*
X83120000Y-128980000D02*
X80880000Y-128980000D01*
X83120000Y-129100000D02*
X80880000Y-129100000D01*
X83120000Y-129220000D02*
X80880000Y-129220000D01*
X82000000Y-133270000D02*
X82000000Y-132620000D01*
X83120000Y-128380000D02*
X80880000Y-128380000D01*
X80880000Y-132620000D01*
X83120000Y-132620000D01*
X83120000Y-128380000D01*
%TO.C,D9*%
X82000000Y-107920000D02*
X82000000Y-108570000D01*
X83120000Y-109170000D02*
X80880000Y-109170000D01*
X83120000Y-109290000D02*
X80880000Y-109290000D01*
X83120000Y-109410000D02*
X80880000Y-109410000D01*
X82000000Y-113460000D02*
X82000000Y-112810000D01*
X83120000Y-108570000D02*
X80880000Y-108570000D01*
X80880000Y-112810000D01*
X83120000Y-112810000D01*
X83120000Y-108570000D01*
%TO.C,C1*%
X61830000Y-35900000D02*
X67170000Y-35900000D01*
X61830000Y-36594000D02*
X61830000Y-35900000D01*
X61830000Y-39340000D02*
X61830000Y-38646000D01*
X67170000Y-35900000D02*
X67170000Y-36594000D01*
X67170000Y-38646000D02*
X67170000Y-39340000D01*
X67170000Y-39340000D02*
X61830000Y-39340000D01*
%TD*%
M02*
