%TF.GenerationSoftware,KiCad,Pcbnew,9.0.6*%
%TF.CreationDate,2025-12-01T15:24:06-05:00*%
%TF.ProjectId,65C816,36354338-3136-42e6-9b69-6361645f7063,rev?*%
%TF.SameCoordinates,Original*%
%TF.FileFunction,Soldermask,Bot*%
%TF.FilePolarity,Negative*%
%FSLAX46Y46*%
G04 Gerber Fmt 4.6, Leading zero omitted, Abs format (unit mm)*
G04 Created by KiCad (PCBNEW 9.0.6) date 2025-12-01 15:24:06*
%MOMM*%
%LPD*%
G01*
G04 APERTURE LIST*
G04 Aperture macros list*
%AMRoundRect*
0 Rectangle with rounded corners*
0 $1 Rounding radius*
0 $2 $3 $4 $5 $6 $7 $8 $9 X,Y pos of 4 corners*
0 Add a 4 corners polygon primitive as box body*
4,1,4,$2,$3,$4,$5,$6,$7,$8,$9,$2,$3,0*
0 Add four circle primitives for the rounded corners*
1,1,$1+$1,$2,$3*
1,1,$1+$1,$4,$5*
1,1,$1+$1,$6,$7*
1,1,$1+$1,$8,$9*
0 Add four rect primitives between the rounded corners*
20,1,$1+$1,$2,$3,$4,$5,0*
20,1,$1+$1,$4,$5,$6,$7,0*
20,1,$1+$1,$6,$7,$8,$9,0*
20,1,$1+$1,$8,$9,$2,$3,0*%
G04 Aperture macros list end*
%ADD10O,3.200000X1.900000*%
%ADD11C,1.700000*%
%ADD12C,1.600000*%
%ADD13RoundRect,0.250000X-0.550000X0.550000X-0.550000X-0.550000X0.550000X-0.550000X0.550000X0.550000X0*%
%ADD14C,4.000000*%
%ADD15C,2.340000*%
%ADD16R,1.700000X1.700000*%
%ADD17C,3.000000*%
%ADD18R,1.800000X2.600000*%
%ADD19O,1.800000X2.600000*%
G04 APERTURE END LIST*
D10*
%TO.C,SW8*%
X122000000Y-174500000D03*
X109500000Y-174500000D03*
X122000000Y-169500000D03*
X109500000Y-169500000D03*
%TD*%
D11*
%TO.C,*%
X54500000Y-86000000D03*
%TD*%
%TO.C,*%
X57000000Y-88500000D03*
%TD*%
%TO.C,*%
X64500000Y-88500000D03*
%TD*%
%TO.C,*%
X64500000Y-86000000D03*
%TD*%
%TO.C,*%
X57000000Y-86000000D03*
%TD*%
%TO.C,*%
X59500000Y-88500000D03*
%TD*%
%TO.C,*%
X54500000Y-88500000D03*
%TD*%
%TO.C,*%
X62000000Y-88500000D03*
%TD*%
%TO.C,*%
X59500000Y-86000000D03*
%TD*%
%TO.C,*%
X62000000Y-86000000D03*
%TD*%
%TO.C,*%
X64500000Y-73500000D03*
%TD*%
%TO.C,*%
X64500000Y-83500000D03*
%TD*%
%TO.C,*%
X64500000Y-71000000D03*
%TD*%
%TO.C,*%
X64500000Y-66000000D03*
%TD*%
%TO.C,*%
X64500000Y-76000000D03*
%TD*%
%TO.C,*%
X64500000Y-68500000D03*
%TD*%
%TO.C,*%
X64500000Y-78500000D03*
%TD*%
%TO.C,*%
X64500000Y-81000000D03*
%TD*%
%TO.C,*%
X54500000Y-83500000D03*
%TD*%
%TO.C,*%
X59500000Y-83500000D03*
%TD*%
%TO.C,*%
X54500000Y-78500000D03*
%TD*%
%TO.C,*%
X62000000Y-83500000D03*
%TD*%
%TO.C,*%
X57000000Y-78500000D03*
%TD*%
%TO.C,*%
X59500000Y-78500000D03*
%TD*%
%TO.C,*%
X57000000Y-83500000D03*
%TD*%
%TO.C,*%
X57000000Y-81000000D03*
%TD*%
%TO.C,*%
X62000000Y-81000000D03*
%TD*%
%TO.C,*%
X62000000Y-76000000D03*
%TD*%
%TO.C,*%
X62000000Y-78500000D03*
%TD*%
%TO.C,*%
X54500000Y-76000000D03*
%TD*%
%TO.C,*%
X59500000Y-76000000D03*
%TD*%
%TO.C,*%
X59500000Y-81000000D03*
%TD*%
%TO.C,*%
X54500000Y-81000000D03*
%TD*%
%TO.C,*%
X57000000Y-76000000D03*
%TD*%
%TO.C,*%
X59500000Y-73500000D03*
%TD*%
%TO.C,*%
X59500000Y-68500000D03*
%TD*%
%TO.C,*%
X62000000Y-68500000D03*
%TD*%
%TO.C,*%
X62000000Y-73500000D03*
%TD*%
%TO.C,*%
X62000000Y-71000000D03*
%TD*%
%TO.C,*%
X59500000Y-66000000D03*
%TD*%
%TO.C,*%
X59500000Y-71000000D03*
%TD*%
%TO.C,*%
X62000000Y-66000000D03*
%TD*%
%TO.C,*%
X54500000Y-73500000D03*
%TD*%
%TO.C,*%
X57000000Y-73500000D03*
%TD*%
%TO.C,*%
X54500000Y-71000000D03*
%TD*%
%TO.C,*%
X57000000Y-71000000D03*
%TD*%
%TO.C,*%
X54500000Y-68500000D03*
%TD*%
%TO.C,*%
X57000000Y-68500000D03*
%TD*%
%TO.C,*%
X57000000Y-66000000D03*
%TD*%
%TO.C,*%
X54500000Y-66000000D03*
%TD*%
D12*
%TO.C,D4*%
X129750000Y-174310000D03*
D13*
X129750000Y-166690000D03*
%TD*%
%TO.C,D3*%
X129750000Y-146690000D03*
D12*
X129750000Y-154310000D03*
%TD*%
%TO.C,D2*%
X129750000Y-134310000D03*
D13*
X129750000Y-126690000D03*
%TD*%
D12*
%TO.C,D1*%
X129750000Y-114310000D03*
D13*
X129750000Y-106690000D03*
%TD*%
D12*
%TO.C,D6*%
X105000000Y-134310000D03*
D13*
X105000000Y-126690000D03*
%TD*%
D12*
%TO.C,D5*%
X105000000Y-114310000D03*
D13*
X105000000Y-106690000D03*
%TD*%
D12*
%TO.C,D8*%
X105000000Y-174310000D03*
D13*
X105000000Y-166690000D03*
%TD*%
D12*
%TO.C,D7*%
X105000000Y-154310000D03*
D13*
X105000000Y-146690000D03*
%TD*%
D10*
%TO.C,SW5*%
X109500000Y-109500000D03*
X122000000Y-109500000D03*
X109500000Y-114500000D03*
X122000000Y-114500000D03*
%TD*%
%TO.C,SW6*%
X122000000Y-134500000D03*
X109500000Y-134500000D03*
X122000000Y-129500000D03*
X109500000Y-129500000D03*
%TD*%
%TO.C,SW7*%
X109500000Y-149500000D03*
X122000000Y-149500000D03*
X109500000Y-154500000D03*
X122000000Y-154500000D03*
%TD*%
%TO.C,SW12*%
X86500000Y-169500000D03*
X99000000Y-169500000D03*
X86500000Y-174500000D03*
X99000000Y-174500000D03*
%TD*%
%TO.C,SW10*%
X86500000Y-129500000D03*
X99000000Y-129500000D03*
X86500000Y-134500000D03*
X99000000Y-134500000D03*
%TD*%
%TO.C,SW14*%
X74500000Y-134500000D03*
X62000000Y-134500000D03*
X74500000Y-129500000D03*
X62000000Y-129500000D03*
%TD*%
%TO.C,SW3*%
X146750000Y-154500000D03*
X134250000Y-154500000D03*
X146750000Y-149500000D03*
X134250000Y-149500000D03*
%TD*%
%TO.C,SW4*%
X134250000Y-169500000D03*
X146750000Y-169500000D03*
X134250000Y-174500000D03*
X146750000Y-174500000D03*
%TD*%
%TO.C,SW11*%
X86500000Y-149500000D03*
X99000000Y-149500000D03*
X86500000Y-154500000D03*
X99000000Y-154500000D03*
%TD*%
%TO.C,SW15*%
X74500000Y-154500000D03*
X62000000Y-154500000D03*
X74500000Y-149500000D03*
X62000000Y-149500000D03*
%TD*%
%TO.C,SW2*%
X146750000Y-134500000D03*
X134250000Y-134500000D03*
X146750000Y-129500000D03*
X134250000Y-129500000D03*
%TD*%
%TO.C,SW16*%
X74500000Y-174500000D03*
X62000000Y-174500000D03*
X74500000Y-169500000D03*
X62000000Y-169500000D03*
%TD*%
%TO.C,SW9*%
X86500000Y-109500000D03*
X99000000Y-109500000D03*
X86500000Y-114500000D03*
X99000000Y-114500000D03*
%TD*%
%TO.C,SW13*%
X74500000Y-114500000D03*
X62000000Y-114500000D03*
X74500000Y-109500000D03*
X62000000Y-109500000D03*
%TD*%
%TO.C,SW1*%
X146750000Y-114500000D03*
X134250000Y-114500000D03*
X146750000Y-109500000D03*
X134250000Y-109500000D03*
%TD*%
D14*
%TO.C,RV1*%
X58500000Y-48120000D03*
D15*
X56000000Y-43120000D03*
X58500000Y-53120000D03*
X61000000Y-43120000D03*
%TD*%
D12*
%TO.C,R2*%
X53500000Y-58620000D03*
X63660000Y-58620000D03*
%TD*%
D16*
%TO.C,J2*%
X73600000Y-33500000D03*
D11*
X76140000Y-33500000D03*
X78680000Y-33500000D03*
X81220000Y-33500000D03*
X83760000Y-33500000D03*
X86300000Y-33500000D03*
X88840000Y-33500000D03*
X91380000Y-33500000D03*
X93920000Y-33500000D03*
X96460000Y-33500000D03*
X99000000Y-33500000D03*
X101540000Y-33500000D03*
X104080000Y-33500000D03*
X106620000Y-33500000D03*
X109160000Y-33500000D03*
X111700000Y-33500000D03*
X114240000Y-33500000D03*
X116780000Y-33500000D03*
%TD*%
D17*
%TO.C,DS1*%
X72500900Y-45120000D03*
X72500900Y-76120700D03*
X147499480Y-76120700D03*
X147500000Y-45120000D03*
D18*
X78000000Y-45120000D03*
D19*
X80540000Y-45120000D03*
X83080000Y-45120000D03*
X85620000Y-45120000D03*
X88160000Y-45120000D03*
X90700000Y-45120000D03*
X93240000Y-45120000D03*
X95780000Y-45120000D03*
X98320000Y-45120000D03*
X100860000Y-45120000D03*
X103400000Y-45120000D03*
X105940000Y-45120000D03*
X108480000Y-45120000D03*
X111020000Y-45120000D03*
X113560000Y-45120000D03*
X116100000Y-45120000D03*
%TD*%
D13*
%TO.C,D16*%
X57500000Y-166690000D03*
D12*
X57500000Y-174310000D03*
%TD*%
D13*
%TO.C,D15*%
X57500000Y-146690000D03*
D12*
X57500000Y-154310000D03*
%TD*%
D13*
%TO.C,D14*%
X57500000Y-126690000D03*
D12*
X57500000Y-134310000D03*
%TD*%
D13*
%TO.C,D13*%
X57500000Y-106690000D03*
D12*
X57500000Y-114310000D03*
%TD*%
D13*
%TO.C,D12*%
X82000000Y-166690000D03*
D12*
X82000000Y-174310000D03*
%TD*%
D13*
%TO.C,D11*%
X82000000Y-146690000D03*
D12*
X82000000Y-154310000D03*
%TD*%
D13*
%TO.C,D10*%
X82000000Y-126690000D03*
D12*
X82000000Y-134310000D03*
%TD*%
D13*
%TO.C,D9*%
X82000000Y-106880000D03*
D12*
X82000000Y-114500000D03*
%TD*%
%TO.C,C1*%
X62000000Y-37620000D03*
X67000000Y-37620000D03*
%TD*%
M02*
