%TF.GenerationSoftware,KiCad,Pcbnew,9.0.6*%
%TF.CreationDate,2025-12-01T15:24:05-05:00*%
%TF.ProjectId,65C816,36354338-3136-42e6-9b69-6361645f7063,rev?*%
%TF.SameCoordinates,Original*%
%TF.FileFunction,Copper,L2,Bot*%
%TF.FilePolarity,Positive*%
%FSLAX46Y46*%
G04 Gerber Fmt 4.6, Leading zero omitted, Abs format (unit mm)*
G04 Created by KiCad (PCBNEW 9.0.6) date 2025-12-01 15:24:05*
%MOMM*%
%LPD*%
G01*
G04 APERTURE LIST*
G04 Aperture macros list*
%AMRoundRect*
0 Rectangle with rounded corners*
0 $1 Rounding radius*
0 $2 $3 $4 $5 $6 $7 $8 $9 X,Y pos of 4 corners*
0 Add a 4 corners polygon primitive as box body*
4,1,4,$2,$3,$4,$5,$6,$7,$8,$9,$2,$3,0*
0 Add four circle primitives for the rounded corners*
1,1,$1+$1,$2,$3*
1,1,$1+$1,$4,$5*
1,1,$1+$1,$6,$7*
1,1,$1+$1,$8,$9*
0 Add four rect primitives between the rounded corners*
20,1,$1+$1,$2,$3,$4,$5,0*
20,1,$1+$1,$4,$5,$6,$7,0*
20,1,$1+$1,$6,$7,$8,$9,0*
20,1,$1+$1,$8,$9,$2,$3,0*%
G04 Aperture macros list end*
%TA.AperFunction,ComponentPad*%
%ADD10O,3.200000X1.900000*%
%TD*%
%TA.AperFunction,ComponentPad*%
%ADD11C,1.700000*%
%TD*%
%TA.AperFunction,ComponentPad*%
%ADD12C,1.600000*%
%TD*%
%TA.AperFunction,ComponentPad*%
%ADD13RoundRect,0.250000X-0.550000X0.550000X-0.550000X-0.550000X0.550000X-0.550000X0.550000X0.550000X0*%
%TD*%
%TA.AperFunction,ComponentPad*%
%ADD14C,2.340000*%
%TD*%
%TA.AperFunction,ComponentPad*%
%ADD15R,1.700000X1.700000*%
%TD*%
%TA.AperFunction,ComponentPad*%
%ADD16C,3.000000*%
%TD*%
%TA.AperFunction,ComponentPad*%
%ADD17R,1.800000X2.600000*%
%TD*%
%TA.AperFunction,ComponentPad*%
%ADD18O,1.800000X2.600000*%
%TD*%
%TA.AperFunction,Conductor*%
%ADD19C,0.200000*%
%TD*%
G04 APERTURE END LIST*
D10*
%TO.P,SW8,2,2*%
%TO.N,Net-(D8-A)*%
X122000000Y-174500000D03*
X109500000Y-174500000D03*
%TO.P,SW8,1,1*%
%TO.N,Net-(J2-Pin_17)*%
X122000000Y-169500000D03*
X109500000Y-169500000D03*
%TD*%
D11*
%TO.P,,2*%
%TO.N,N/C*%
X54500000Y-86000000D03*
%TD*%
%TO.P,,2*%
%TO.N,N/C*%
X57000000Y-88500000D03*
%TD*%
%TO.P,,2*%
%TO.N,N/C*%
X64500000Y-88500000D03*
%TD*%
%TO.P,,2*%
%TO.N,N/C*%
X64500000Y-86000000D03*
%TD*%
%TO.P,,2*%
%TO.N,N/C*%
X57000000Y-86000000D03*
%TD*%
%TO.P,,2*%
%TO.N,N/C*%
X59500000Y-88500000D03*
%TD*%
%TO.P,,2*%
%TO.N,N/C*%
X54500000Y-88500000D03*
%TD*%
%TO.P,,2*%
%TO.N,N/C*%
X62000000Y-88500000D03*
%TD*%
%TO.P,,2*%
%TO.N,N/C*%
X59500000Y-86000000D03*
%TD*%
%TO.P,,2*%
%TO.N,N/C*%
X62000000Y-86000000D03*
%TD*%
%TO.P,,2*%
%TO.N,N/C*%
X64500000Y-73500000D03*
%TD*%
%TO.P,,2*%
%TO.N,N/C*%
X64500000Y-83500000D03*
%TD*%
%TO.P,,2*%
%TO.N,N/C*%
X64500000Y-71000000D03*
%TD*%
%TO.P,,2*%
%TO.N,N/C*%
X64500000Y-66000000D03*
%TD*%
%TO.P,,2*%
%TO.N,N/C*%
X64500000Y-76000000D03*
%TD*%
%TO.P,,2*%
%TO.N,N/C*%
X64500000Y-68500000D03*
%TD*%
%TO.P,,2*%
%TO.N,N/C*%
X64500000Y-78500000D03*
%TD*%
%TO.P,,2*%
%TO.N,N/C*%
X64500000Y-81000000D03*
%TD*%
%TO.P,,2*%
%TO.N,N/C*%
X54500000Y-83500000D03*
%TD*%
%TO.P,,2*%
%TO.N,N/C*%
X59500000Y-83500000D03*
%TD*%
%TO.P,,2*%
%TO.N,N/C*%
X54500000Y-78500000D03*
%TD*%
%TO.P,,2*%
%TO.N,N/C*%
X62000000Y-83500000D03*
%TD*%
%TO.P,,2*%
%TO.N,N/C*%
X57000000Y-78500000D03*
%TD*%
%TO.P,,2*%
%TO.N,N/C*%
X59500000Y-78500000D03*
%TD*%
%TO.P,,2*%
%TO.N,N/C*%
X57000000Y-83500000D03*
%TD*%
%TO.P,,2*%
%TO.N,N/C*%
X57000000Y-81000000D03*
%TD*%
%TO.P,,2*%
%TO.N,N/C*%
X62000000Y-81000000D03*
%TD*%
%TO.P,,2*%
%TO.N,N/C*%
X62000000Y-76000000D03*
%TD*%
%TO.P,,2*%
%TO.N,N/C*%
X62000000Y-78500000D03*
%TD*%
%TO.P,,2*%
%TO.N,N/C*%
X54500000Y-76000000D03*
%TD*%
%TO.P,,2*%
%TO.N,N/C*%
X59500000Y-76000000D03*
%TD*%
%TO.P,,2*%
%TO.N,N/C*%
X59500000Y-81000000D03*
%TD*%
%TO.P,,2*%
%TO.N,N/C*%
X54500000Y-81000000D03*
%TD*%
%TO.P,,2*%
%TO.N,N/C*%
X57000000Y-76000000D03*
%TD*%
%TO.P,,2*%
%TO.N,N/C*%
X59500000Y-73500000D03*
%TD*%
%TO.P,,2*%
%TO.N,N/C*%
X59500000Y-68500000D03*
%TD*%
%TO.P,,2*%
%TO.N,N/C*%
X62000000Y-68500000D03*
%TD*%
%TO.P,,2*%
%TO.N,N/C*%
X62000000Y-73500000D03*
%TD*%
%TO.P,,2*%
%TO.N,N/C*%
X62000000Y-71000000D03*
%TD*%
%TO.P,,2*%
%TO.N,N/C*%
X59500000Y-66000000D03*
%TD*%
%TO.P,,2*%
%TO.N,N/C*%
X59500000Y-71000000D03*
%TD*%
%TO.P,,2*%
%TO.N,N/C*%
X62000000Y-66000000D03*
%TD*%
%TO.P,,2*%
%TO.N,N/C*%
X54500000Y-73500000D03*
%TD*%
%TO.P,,2*%
%TO.N,N/C*%
X57000000Y-73500000D03*
%TD*%
%TO.P,,2*%
%TO.N,N/C*%
X54500000Y-71000000D03*
%TD*%
%TO.P,,2*%
%TO.N,N/C*%
X57000000Y-71000000D03*
%TD*%
%TO.P,,2*%
%TO.N,N/C*%
X54500000Y-68500000D03*
%TD*%
%TO.P,,2*%
%TO.N,N/C*%
X57000000Y-68500000D03*
%TD*%
%TO.P,,2*%
%TO.N,N/C*%
X57000000Y-66000000D03*
%TD*%
%TO.P,,2*%
%TO.N,N/C*%
X54500000Y-66000000D03*
%TD*%
D12*
%TO.P,D4,2,A*%
%TO.N,Net-(D4-A)*%
X129750000Y-174310000D03*
D13*
%TO.P,D4,1,K*%
%TO.N,Net-(D12-K)*%
X129750000Y-166690000D03*
%TD*%
%TO.P,D3,1,K*%
%TO.N,Net-(D11-K)*%
X129750000Y-146690000D03*
D12*
%TO.P,D3,2,A*%
%TO.N,Net-(D3-A)*%
X129750000Y-154310000D03*
%TD*%
%TO.P,D2,2,A*%
%TO.N,Net-(D2-A)*%
X129750000Y-134310000D03*
D13*
%TO.P,D2,1,K*%
%TO.N,Net-(D10-K)*%
X129750000Y-126690000D03*
%TD*%
D12*
%TO.P,D1,2,A*%
%TO.N,Net-(D1-A)*%
X129750000Y-114310000D03*
D13*
%TO.P,D1,1,K*%
%TO.N,Net-(D1-K)*%
X129750000Y-106690000D03*
%TD*%
D12*
%TO.P,D6,2,A*%
%TO.N,Net-(D6-A)*%
X105000000Y-134310000D03*
D13*
%TO.P,D6,1,K*%
%TO.N,Net-(D10-K)*%
X105000000Y-126690000D03*
%TD*%
D12*
%TO.P,D5,2,A*%
%TO.N,Net-(D5-A)*%
X105000000Y-114310000D03*
D13*
%TO.P,D5,1,K*%
%TO.N,Net-(D1-K)*%
X105000000Y-106690000D03*
%TD*%
D12*
%TO.P,D8,2,A*%
%TO.N,Net-(D8-A)*%
X105000000Y-174310000D03*
D13*
%TO.P,D8,1,K*%
%TO.N,Net-(D12-K)*%
X105000000Y-166690000D03*
%TD*%
D12*
%TO.P,D7,2,A*%
%TO.N,Net-(D7-A)*%
X105000000Y-154310000D03*
D13*
%TO.P,D7,1,K*%
%TO.N,Net-(D11-K)*%
X105000000Y-146690000D03*
%TD*%
D10*
%TO.P,SW5,1,1*%
%TO.N,Net-(J2-Pin_17)*%
X109500000Y-109500000D03*
X122000000Y-109500000D03*
%TO.P,SW5,2,2*%
%TO.N,Net-(D5-A)*%
X109500000Y-114500000D03*
X122000000Y-114500000D03*
%TD*%
%TO.P,SW6,2,2*%
%TO.N,Net-(D6-A)*%
X122000000Y-134500000D03*
X109500000Y-134500000D03*
%TO.P,SW6,1,1*%
%TO.N,Net-(J2-Pin_17)*%
X122000000Y-129500000D03*
X109500000Y-129500000D03*
%TD*%
%TO.P,SW7,1,1*%
%TO.N,Net-(J2-Pin_17)*%
X109500000Y-149500000D03*
X122000000Y-149500000D03*
%TO.P,SW7,2,2*%
%TO.N,Net-(D7-A)*%
X109500000Y-154500000D03*
X122000000Y-154500000D03*
%TD*%
%TO.P,SW12,1,1*%
%TO.N,Net-(J2-Pin_16)*%
X86500000Y-169500000D03*
X99000000Y-169500000D03*
%TO.P,SW12,2,2*%
%TO.N,Net-(D12-A)*%
X86500000Y-174500000D03*
X99000000Y-174500000D03*
%TD*%
%TO.P,SW10,1,1*%
%TO.N,Net-(J2-Pin_16)*%
X86500000Y-129500000D03*
X99000000Y-129500000D03*
%TO.P,SW10,2,2*%
%TO.N,Net-(D10-A)*%
X86500000Y-134500000D03*
X99000000Y-134500000D03*
%TD*%
%TO.P,SW14,2,2*%
%TO.N,Net-(D14-A)*%
X74500000Y-134500000D03*
X62000000Y-134500000D03*
%TO.P,SW14,1,1*%
%TO.N,Net-(J2-Pin_15)*%
X74500000Y-129500000D03*
X62000000Y-129500000D03*
%TD*%
%TO.P,SW3,2,2*%
%TO.N,Net-(D3-A)*%
X146750000Y-154500000D03*
X134250000Y-154500000D03*
%TO.P,SW3,1,1*%
%TO.N,Net-(J2-Pin_18)*%
X146750000Y-149500000D03*
X134250000Y-149500000D03*
%TD*%
%TO.P,SW4,1,1*%
%TO.N,Net-(J2-Pin_18)*%
X134250000Y-169500000D03*
X146750000Y-169500000D03*
%TO.P,SW4,2,2*%
%TO.N,Net-(D4-A)*%
X134250000Y-174500000D03*
X146750000Y-174500000D03*
%TD*%
%TO.P,SW11,1,1*%
%TO.N,Net-(J2-Pin_16)*%
X86500000Y-149500000D03*
X99000000Y-149500000D03*
%TO.P,SW11,2,2*%
%TO.N,Net-(D11-A)*%
X86500000Y-154500000D03*
X99000000Y-154500000D03*
%TD*%
%TO.P,SW15,2,2*%
%TO.N,Net-(D15-A)*%
X74500000Y-154500000D03*
X62000000Y-154500000D03*
%TO.P,SW15,1,1*%
%TO.N,Net-(J2-Pin_15)*%
X74500000Y-149500000D03*
X62000000Y-149500000D03*
%TD*%
%TO.P,SW2,2,2*%
%TO.N,Net-(D2-A)*%
X146750000Y-134500000D03*
X134250000Y-134500000D03*
%TO.P,SW2,1,1*%
%TO.N,Net-(J2-Pin_18)*%
X146750000Y-129500000D03*
X134250000Y-129500000D03*
%TD*%
%TO.P,SW16,2,2*%
%TO.N,Net-(D16-A)*%
X74500000Y-174500000D03*
X62000000Y-174500000D03*
%TO.P,SW16,1,1*%
%TO.N,Net-(J2-Pin_15)*%
X74500000Y-169500000D03*
X62000000Y-169500000D03*
%TD*%
%TO.P,SW9,1,1*%
%TO.N,Net-(J2-Pin_16)*%
X86500000Y-109500000D03*
X99000000Y-109500000D03*
%TO.P,SW9,2,2*%
%TO.N,Net-(D9-A)*%
X86500000Y-114500000D03*
X99000000Y-114500000D03*
%TD*%
%TO.P,SW13,2,2*%
%TO.N,Net-(D13-A)*%
X74500000Y-114500000D03*
X62000000Y-114500000D03*
%TO.P,SW13,1,1*%
%TO.N,Net-(J2-Pin_15)*%
X74500000Y-109500000D03*
X62000000Y-109500000D03*
%TD*%
%TO.P,SW1,2,2*%
%TO.N,Net-(D1-A)*%
X146750000Y-114500000D03*
X134250000Y-114500000D03*
%TO.P,SW1,1,1*%
%TO.N,Net-(J2-Pin_18)*%
X146750000Y-109500000D03*
X134250000Y-109500000D03*
%TD*%
D14*
%TO.P,RV1,1,1*%
%TO.N,GND*%
X56000000Y-43120000D03*
%TO.P,RV1,2,2*%
%TO.N,Net-(DS1-VO)*%
X58500000Y-53120000D03*
%TO.P,RV1,3,3*%
%TO.N,+5V*%
X61000000Y-43120000D03*
%TD*%
D12*
%TO.P,R2,1*%
%TO.N,GND*%
X53500000Y-58620000D03*
%TO.P,R2,2*%
%TO.N,Net-(DS1-LED(-))*%
X63660000Y-58620000D03*
%TD*%
D15*
%TO.P,J2,1,Pin_1*%
%TO.N,GND*%
X73600000Y-33500000D03*
D11*
%TO.P,J2,2,Pin_2*%
%TO.N,+5V*%
X76140000Y-33500000D03*
%TO.P,J2,3,Pin_3*%
%TO.N,Net-(DS1-E)*%
X78680000Y-33500000D03*
%TO.P,J2,4,Pin_4*%
%TO.N,Net-(DS1-R{slash}W)*%
X81220000Y-33500000D03*
%TO.P,J2,5,Pin_5*%
%TO.N,Net-(DS1-RS)*%
X83760000Y-33500000D03*
%TO.P,J2,6,Pin_6*%
%TO.N,unconnected-(J2-Pin_6-Pad6)*%
X86300000Y-33500000D03*
%TO.P,J2,7,Pin_7*%
%TO.N,Net-(DS1-D4)*%
X88840000Y-33500000D03*
%TO.P,J2,8,Pin_8*%
%TO.N,Net-(DS1-D5)*%
X91380000Y-33500000D03*
%TO.P,J2,9,Pin_9*%
%TO.N,Net-(DS1-D6)*%
X93920000Y-33500000D03*
%TO.P,J2,10,Pin_10*%
%TO.N,Net-(DS1-D7)*%
X96460000Y-33500000D03*
%TO.P,J2,11,Pin_11*%
%TO.N,Net-(D12-K)*%
X99000000Y-33500000D03*
%TO.P,J2,12,Pin_12*%
%TO.N,Net-(D11-K)*%
X101540000Y-33500000D03*
%TO.P,J2,13,Pin_13*%
%TO.N,Net-(D10-K)*%
X104080000Y-33500000D03*
%TO.P,J2,14,Pin_14*%
%TO.N,Net-(D1-K)*%
X106620000Y-33500000D03*
%TO.P,J2,15,Pin_15*%
%TO.N,Net-(J2-Pin_15)*%
X109160000Y-33500000D03*
%TO.P,J2,16,Pin_16*%
%TO.N,Net-(J2-Pin_16)*%
X111700000Y-33500000D03*
%TO.P,J2,17,Pin_17*%
%TO.N,Net-(J2-Pin_17)*%
X114240000Y-33500000D03*
%TO.P,J2,18,Pin_18*%
%TO.N,Net-(J2-Pin_18)*%
X116780000Y-33500000D03*
%TD*%
D16*
%TO.P,DS1,*%
%TO.N,*%
X72500900Y-45120000D03*
X72500900Y-76120700D03*
X147499480Y-76120700D03*
X147500000Y-45120000D03*
D17*
%TO.P,DS1,1,VSS*%
%TO.N,GND*%
X78000000Y-45120000D03*
D18*
%TO.P,DS1,2,VDD*%
%TO.N,+5V*%
X80540000Y-45120000D03*
%TO.P,DS1,3,VO*%
%TO.N,Net-(DS1-VO)*%
X83080000Y-45120000D03*
%TO.P,DS1,4,RS*%
%TO.N,Net-(DS1-RS)*%
X85620000Y-45120000D03*
%TO.P,DS1,5,R/W*%
%TO.N,Net-(DS1-R{slash}W)*%
X88160000Y-45120000D03*
%TO.P,DS1,6,E*%
%TO.N,Net-(DS1-E)*%
X90700000Y-45120000D03*
%TO.P,DS1,7,D0*%
%TO.N,unconnected-(DS1-D0-Pad7)*%
X93240000Y-45120000D03*
%TO.P,DS1,8,D1*%
%TO.N,unconnected-(DS1-D1-Pad8)*%
X95780000Y-45120000D03*
%TO.P,DS1,9,D2*%
%TO.N,unconnected-(DS1-D2-Pad9)*%
X98320000Y-45120000D03*
%TO.P,DS1,10,D3*%
%TO.N,unconnected-(DS1-D3-Pad10)*%
X100860000Y-45120000D03*
%TO.P,DS1,11,D4*%
%TO.N,Net-(DS1-D4)*%
X103400000Y-45120000D03*
%TO.P,DS1,12,D5*%
%TO.N,Net-(DS1-D5)*%
X105940000Y-45120000D03*
%TO.P,DS1,13,D6*%
%TO.N,Net-(DS1-D6)*%
X108480000Y-45120000D03*
%TO.P,DS1,14,D7*%
%TO.N,Net-(DS1-D7)*%
X111020000Y-45120000D03*
%TO.P,DS1,15,LED(+)*%
%TO.N,+5V*%
X113560000Y-45120000D03*
%TO.P,DS1,16,LED(-)*%
%TO.N,Net-(DS1-LED(-))*%
X116100000Y-45120000D03*
%TD*%
D13*
%TO.P,D16,1,K*%
%TO.N,Net-(D12-K)*%
X57500000Y-166690000D03*
D12*
%TO.P,D16,2,A*%
%TO.N,Net-(D16-A)*%
X57500000Y-174310000D03*
%TD*%
D13*
%TO.P,D15,1,K*%
%TO.N,Net-(D11-K)*%
X57500000Y-146690000D03*
D12*
%TO.P,D15,2,A*%
%TO.N,Net-(D15-A)*%
X57500000Y-154310000D03*
%TD*%
D13*
%TO.P,D14,1,K*%
%TO.N,Net-(D10-K)*%
X57500000Y-126690000D03*
D12*
%TO.P,D14,2,A*%
%TO.N,Net-(D14-A)*%
X57500000Y-134310000D03*
%TD*%
D13*
%TO.P,D13,1,K*%
%TO.N,Net-(D1-K)*%
X57500000Y-106690000D03*
D12*
%TO.P,D13,2,A*%
%TO.N,Net-(D13-A)*%
X57500000Y-114310000D03*
%TD*%
D13*
%TO.P,D12,1,K*%
%TO.N,Net-(D12-K)*%
X82000000Y-166690000D03*
D12*
%TO.P,D12,2,A*%
%TO.N,Net-(D12-A)*%
X82000000Y-174310000D03*
%TD*%
D13*
%TO.P,D11,1,K*%
%TO.N,Net-(D11-K)*%
X82000000Y-146690000D03*
D12*
%TO.P,D11,2,A*%
%TO.N,Net-(D11-A)*%
X82000000Y-154310000D03*
%TD*%
D13*
%TO.P,D10,1,K*%
%TO.N,Net-(D10-K)*%
X82000000Y-126690000D03*
D12*
%TO.P,D10,2,A*%
%TO.N,Net-(D10-A)*%
X82000000Y-134310000D03*
%TD*%
D13*
%TO.P,D9,1,K*%
%TO.N,Net-(D1-K)*%
X82000000Y-106880000D03*
D12*
%TO.P,D9,2,A*%
%TO.N,Net-(D9-A)*%
X82000000Y-114500000D03*
%TD*%
%TO.P,C1,1*%
%TO.N,GND*%
X62000000Y-37620000D03*
%TO.P,C1,2*%
%TO.N,+5V*%
X67000000Y-37620000D03*
%TD*%
D19*
%TO.N,Net-(D12-K)*%
X55200000Y-105972470D02*
X55200000Y-125500000D01*
X57500000Y-166690000D02*
X55304523Y-166690000D01*
X55304523Y-166690000D02*
X51899000Y-163284477D01*
X51899000Y-128801000D02*
X55200000Y-125500000D01*
X51899000Y-163284477D02*
X51899000Y-128801000D01*
%TO.N,Net-(D1-K)*%
X82000000Y-106880000D02*
X57690000Y-106880000D01*
X57690000Y-106880000D02*
X57500000Y-106690000D01*
X106620000Y-33500000D02*
X109819000Y-36699000D01*
X109819000Y-36699000D02*
X109819000Y-54371000D01*
X109819000Y-54371000D02*
X57500000Y-106690000D01*
%TO.N,Net-(D11-K)*%
X101540000Y-33500000D02*
X99659000Y-35381000D01*
X55600000Y-125355686D02*
X56399000Y-126154686D01*
X55600000Y-106138155D02*
X55600000Y-125355686D01*
X99659000Y-62079155D02*
X55600000Y-106138155D01*
X56399000Y-126154686D02*
X56399000Y-145589000D01*
%TO.N,Net-(D10-K)*%
X102061000Y-35519000D02*
X102061000Y-60242840D01*
%TO.N,Net-(D11-K)*%
X56399000Y-145589000D02*
X57500000Y-146690000D01*
%TO.N,Net-(D12-K)*%
X99000000Y-33500000D02*
X97119000Y-35381000D01*
X97119000Y-64053470D02*
X55200000Y-105972470D01*
%TO.N,Net-(D10-K)*%
X102061000Y-60242840D02*
X56000000Y-106303840D01*
%TO.N,Net-(D12-K)*%
X97119000Y-35381000D02*
X97119000Y-64053470D01*
%TO.N,Net-(D11-K)*%
X99659000Y-35381000D02*
X99659000Y-62079155D01*
%TO.N,Net-(D10-K)*%
X104080000Y-33500000D02*
X102061000Y-35519000D01*
X56000000Y-106303840D02*
X56000000Y-125190000D01*
X56000000Y-125190000D02*
X57500000Y-126690000D01*
%TO.N,Net-(D12-K)*%
X105000000Y-166690000D02*
X129750000Y-166690000D01*
X82000000Y-166690000D02*
X105000000Y-166690000D01*
X57500000Y-166690000D02*
X82000000Y-166690000D01*
%TO.N,Net-(D10-K)*%
X105000000Y-126690000D02*
X129750000Y-126690000D01*
%TO.N,Net-(D11-K)*%
X82000000Y-146690000D02*
X57500000Y-146690000D01*
X105000000Y-146690000D02*
X82000000Y-146690000D01*
X129750000Y-146690000D02*
X105000000Y-146690000D01*
%TO.N,Net-(D10-K)*%
X82000000Y-126690000D02*
X104500000Y-126690000D01*
X104500000Y-126690000D02*
X105000000Y-127190000D01*
X57500000Y-126690000D02*
X82000000Y-126690000D01*
%TO.N,Net-(D1-K)*%
X105000000Y-106690000D02*
X82190000Y-106690000D01*
X82190000Y-106690000D02*
X82000000Y-106880000D01*
X129750000Y-106690000D02*
X105000000Y-106690000D01*
%TD*%
%TA.AperFunction,Conductor*%
%TO.N,GND*%
G36*
X75113266Y-32403298D02*
G01*
X75159298Y-32455861D01*
X75169605Y-32524966D01*
X75140915Y-32588673D01*
X75134459Y-32595645D01*
X75109889Y-32620214D01*
X74984951Y-32792179D01*
X74888444Y-32981585D01*
X74888443Y-32981587D01*
X74888443Y-32981588D01*
X74855598Y-33082672D01*
X74822753Y-33183760D01*
X74790225Y-33389137D01*
X74789500Y-33393713D01*
X74789500Y-33606287D01*
X74822754Y-33816243D01*
X74881356Y-33996602D01*
X74888444Y-34018414D01*
X74984951Y-34207820D01*
X75109890Y-34379786D01*
X75260213Y-34530109D01*
X75432179Y-34655048D01*
X75432181Y-34655049D01*
X75432184Y-34655051D01*
X75621588Y-34751557D01*
X75823757Y-34817246D01*
X76033713Y-34850500D01*
X76033714Y-34850500D01*
X76246286Y-34850500D01*
X76246287Y-34850500D01*
X76456243Y-34817246D01*
X76658412Y-34751557D01*
X76847816Y-34655051D01*
X76881231Y-34630774D01*
X77019786Y-34530109D01*
X77019788Y-34530106D01*
X77019792Y-34530104D01*
X77170104Y-34379792D01*
X77170106Y-34379788D01*
X77170109Y-34379786D01*
X77295048Y-34207820D01*
X77295047Y-34207820D01*
X77295051Y-34207816D01*
X77299514Y-34199054D01*
X77347488Y-34148259D01*
X77415308Y-34131463D01*
X77481444Y-34153999D01*
X77520486Y-34199056D01*
X77524951Y-34207820D01*
X77649890Y-34379786D01*
X77800213Y-34530109D01*
X77972179Y-34655048D01*
X77972181Y-34655049D01*
X77972184Y-34655051D01*
X78161588Y-34751557D01*
X78363757Y-34817246D01*
X78573713Y-34850500D01*
X78573714Y-34850500D01*
X78786286Y-34850500D01*
X78786287Y-34850500D01*
X78996243Y-34817246D01*
X79198412Y-34751557D01*
X79387816Y-34655051D01*
X79421231Y-34630774D01*
X79559786Y-34530109D01*
X79559788Y-34530106D01*
X79559792Y-34530104D01*
X79710104Y-34379792D01*
X79710106Y-34379788D01*
X79710109Y-34379786D01*
X79835048Y-34207820D01*
X79835047Y-34207820D01*
X79835051Y-34207816D01*
X79839514Y-34199054D01*
X79887488Y-34148259D01*
X79955308Y-34131463D01*
X80021444Y-34153999D01*
X80060486Y-34199056D01*
X80064951Y-34207820D01*
X80189890Y-34379786D01*
X80340213Y-34530109D01*
X80512179Y-34655048D01*
X80512181Y-34655049D01*
X80512184Y-34655051D01*
X80701588Y-34751557D01*
X80903757Y-34817246D01*
X81113713Y-34850500D01*
X81113714Y-34850500D01*
X81326286Y-34850500D01*
X81326287Y-34850500D01*
X81536243Y-34817246D01*
X81738412Y-34751557D01*
X81927816Y-34655051D01*
X81961231Y-34630774D01*
X82099786Y-34530109D01*
X82099788Y-34530106D01*
X82099792Y-34530104D01*
X82250104Y-34379792D01*
X82250106Y-34379788D01*
X82250109Y-34379786D01*
X82375048Y-34207820D01*
X82375047Y-34207820D01*
X82375051Y-34207816D01*
X82379514Y-34199054D01*
X82427488Y-34148259D01*
X82495308Y-34131463D01*
X82561444Y-34153999D01*
X82600486Y-34199056D01*
X82604951Y-34207820D01*
X82729890Y-34379786D01*
X82880213Y-34530109D01*
X83052179Y-34655048D01*
X83052181Y-34655049D01*
X83052184Y-34655051D01*
X83241588Y-34751557D01*
X83443757Y-34817246D01*
X83653713Y-34850500D01*
X83653714Y-34850500D01*
X83866286Y-34850500D01*
X83866287Y-34850500D01*
X84076243Y-34817246D01*
X84278412Y-34751557D01*
X84467816Y-34655051D01*
X84501231Y-34630774D01*
X84639786Y-34530109D01*
X84639788Y-34530106D01*
X84639792Y-34530104D01*
X84790104Y-34379792D01*
X84790106Y-34379788D01*
X84790109Y-34379786D01*
X84915048Y-34207820D01*
X84915047Y-34207820D01*
X84915051Y-34207816D01*
X84919514Y-34199054D01*
X84967488Y-34148259D01*
X85035308Y-34131463D01*
X85101444Y-34153999D01*
X85140486Y-34199056D01*
X85144951Y-34207820D01*
X85269890Y-34379786D01*
X85420213Y-34530109D01*
X85592179Y-34655048D01*
X85592181Y-34655049D01*
X85592184Y-34655051D01*
X85781588Y-34751557D01*
X85983757Y-34817246D01*
X86193713Y-34850500D01*
X86193714Y-34850500D01*
X86406286Y-34850500D01*
X86406287Y-34850500D01*
X86616243Y-34817246D01*
X86818412Y-34751557D01*
X87007816Y-34655051D01*
X87041231Y-34630774D01*
X87179786Y-34530109D01*
X87179788Y-34530106D01*
X87179792Y-34530104D01*
X87330104Y-34379792D01*
X87330106Y-34379788D01*
X87330109Y-34379786D01*
X87455048Y-34207820D01*
X87455047Y-34207820D01*
X87455051Y-34207816D01*
X87459514Y-34199054D01*
X87507488Y-34148259D01*
X87575308Y-34131463D01*
X87641444Y-34153999D01*
X87680486Y-34199056D01*
X87684951Y-34207820D01*
X87809890Y-34379786D01*
X87960213Y-34530109D01*
X88132179Y-34655048D01*
X88132181Y-34655049D01*
X88132184Y-34655051D01*
X88321588Y-34751557D01*
X88523757Y-34817246D01*
X88733713Y-34850500D01*
X88733714Y-34850500D01*
X88946286Y-34850500D01*
X88946287Y-34850500D01*
X89156243Y-34817246D01*
X89358412Y-34751557D01*
X89547816Y-34655051D01*
X89581231Y-34630774D01*
X89719786Y-34530109D01*
X89719788Y-34530106D01*
X89719792Y-34530104D01*
X89870104Y-34379792D01*
X89870106Y-34379788D01*
X89870109Y-34379786D01*
X89995048Y-34207820D01*
X89995047Y-34207820D01*
X89995051Y-34207816D01*
X89999514Y-34199054D01*
X90047488Y-34148259D01*
X90115308Y-34131463D01*
X90181444Y-34153999D01*
X90220486Y-34199056D01*
X90224951Y-34207820D01*
X90349890Y-34379786D01*
X90500213Y-34530109D01*
X90672179Y-34655048D01*
X90672181Y-34655049D01*
X90672184Y-34655051D01*
X90861588Y-34751557D01*
X91063757Y-34817246D01*
X91273713Y-34850500D01*
X91273714Y-34850500D01*
X91486286Y-34850500D01*
X91486287Y-34850500D01*
X91696243Y-34817246D01*
X91898412Y-34751557D01*
X92087816Y-34655051D01*
X92121231Y-34630774D01*
X92259786Y-34530109D01*
X92259788Y-34530106D01*
X92259792Y-34530104D01*
X92410104Y-34379792D01*
X92410106Y-34379788D01*
X92410109Y-34379786D01*
X92535048Y-34207820D01*
X92535047Y-34207820D01*
X92535051Y-34207816D01*
X92539514Y-34199054D01*
X92587488Y-34148259D01*
X92655308Y-34131463D01*
X92721444Y-34153999D01*
X92760486Y-34199056D01*
X92764951Y-34207820D01*
X92889890Y-34379786D01*
X93040213Y-34530109D01*
X93212179Y-34655048D01*
X93212181Y-34655049D01*
X93212184Y-34655051D01*
X93401588Y-34751557D01*
X93603757Y-34817246D01*
X93813713Y-34850500D01*
X93813714Y-34850500D01*
X94026286Y-34850500D01*
X94026287Y-34850500D01*
X94236243Y-34817246D01*
X94438412Y-34751557D01*
X94627816Y-34655051D01*
X94661231Y-34630774D01*
X94799786Y-34530109D01*
X94799788Y-34530106D01*
X94799792Y-34530104D01*
X94950104Y-34379792D01*
X94950106Y-34379788D01*
X94950109Y-34379786D01*
X95075048Y-34207820D01*
X95075047Y-34207820D01*
X95075051Y-34207816D01*
X95079514Y-34199054D01*
X95127488Y-34148259D01*
X95195308Y-34131463D01*
X95261444Y-34153999D01*
X95300486Y-34199056D01*
X95304951Y-34207820D01*
X95429890Y-34379786D01*
X95580213Y-34530109D01*
X95752179Y-34655048D01*
X95752181Y-34655049D01*
X95752184Y-34655051D01*
X95941588Y-34751557D01*
X96143757Y-34817246D01*
X96353713Y-34850500D01*
X96353714Y-34850500D01*
X96517112Y-34850500D01*
X96522936Y-34852210D01*
X96528899Y-34851061D01*
X96556076Y-34861941D01*
X96584151Y-34870185D01*
X96588125Y-34874772D01*
X96593763Y-34877029D01*
X96610743Y-34900874D01*
X96629906Y-34922989D01*
X96630769Y-34928996D01*
X96634292Y-34933943D01*
X96635684Y-34963179D01*
X96639850Y-34992147D01*
X96637401Y-34999220D01*
X96637617Y-35003734D01*
X96624499Y-35036500D01*
X96588360Y-35099095D01*
X96588359Y-35099096D01*
X96559425Y-35149209D01*
X96559424Y-35149210D01*
X96559136Y-35150285D01*
X96518499Y-35301943D01*
X96518499Y-35301945D01*
X96518499Y-35470046D01*
X96518500Y-35470059D01*
X96518500Y-43322115D01*
X96498815Y-43389154D01*
X96446011Y-43434909D01*
X96376853Y-43444853D01*
X96338207Y-43432601D01*
X96317607Y-43422105D01*
X96317603Y-43422103D01*
X96107952Y-43353985D01*
X95906732Y-43322115D01*
X95890222Y-43319500D01*
X95669778Y-43319500D01*
X95653268Y-43322115D01*
X95452047Y-43353985D01*
X95242396Y-43422103D01*
X95242393Y-43422104D01*
X95045974Y-43522187D01*
X94867641Y-43651752D01*
X94867636Y-43651756D01*
X94711756Y-43807636D01*
X94711752Y-43807641D01*
X94610318Y-43947254D01*
X94554988Y-43989920D01*
X94485375Y-43995899D01*
X94423580Y-43963293D01*
X94409682Y-43947254D01*
X94308247Y-43807641D01*
X94308243Y-43807636D01*
X94152363Y-43651756D01*
X94152358Y-43651752D01*
X93974025Y-43522187D01*
X93974024Y-43522186D01*
X93974022Y-43522185D01*
X93911096Y-43490122D01*
X93777606Y-43422104D01*
X93777603Y-43422103D01*
X93567952Y-43353985D01*
X93366732Y-43322115D01*
X93350222Y-43319500D01*
X93129778Y-43319500D01*
X93113268Y-43322115D01*
X92912047Y-43353985D01*
X92702396Y-43422103D01*
X92702393Y-43422104D01*
X92505974Y-43522187D01*
X92327641Y-43651752D01*
X92327636Y-43651756D01*
X92171756Y-43807636D01*
X92171752Y-43807641D01*
X92070318Y-43947254D01*
X92014988Y-43989920D01*
X91945375Y-43995899D01*
X91883580Y-43963293D01*
X91869682Y-43947254D01*
X91768247Y-43807641D01*
X91768243Y-43807636D01*
X91612363Y-43651756D01*
X91612358Y-43651752D01*
X91434025Y-43522187D01*
X91434024Y-43522186D01*
X91434022Y-43522185D01*
X91371096Y-43490122D01*
X91237606Y-43422104D01*
X91237603Y-43422103D01*
X91027952Y-43353985D01*
X90826732Y-43322115D01*
X90810222Y-43319500D01*
X90589778Y-43319500D01*
X90573268Y-43322115D01*
X90372047Y-43353985D01*
X90162396Y-43422103D01*
X90162393Y-43422104D01*
X89965974Y-43522187D01*
X89787641Y-43651752D01*
X89787636Y-43651756D01*
X89631756Y-43807636D01*
X89631752Y-43807641D01*
X89530318Y-43947254D01*
X89474988Y-43989920D01*
X89405375Y-43995899D01*
X89343580Y-43963293D01*
X89329682Y-43947254D01*
X89228247Y-43807641D01*
X89228243Y-43807636D01*
X89072363Y-43651756D01*
X89072358Y-43651752D01*
X88894025Y-43522187D01*
X88894024Y-43522186D01*
X88894022Y-43522185D01*
X88831096Y-43490122D01*
X88697606Y-43422104D01*
X88697603Y-43422103D01*
X88487952Y-43353985D01*
X88286732Y-43322115D01*
X88270222Y-43319500D01*
X88049778Y-43319500D01*
X88033268Y-43322115D01*
X87832047Y-43353985D01*
X87622396Y-43422103D01*
X87622393Y-43422104D01*
X87425974Y-43522187D01*
X87247641Y-43651752D01*
X87247636Y-43651756D01*
X87091756Y-43807636D01*
X87091752Y-43807641D01*
X86990318Y-43947254D01*
X86934988Y-43989920D01*
X86865375Y-43995899D01*
X86803580Y-43963293D01*
X86789682Y-43947254D01*
X86688247Y-43807641D01*
X86688243Y-43807636D01*
X86532363Y-43651756D01*
X86532358Y-43651752D01*
X86354025Y-43522187D01*
X86354024Y-43522186D01*
X86354022Y-43522185D01*
X86291096Y-43490122D01*
X86157606Y-43422104D01*
X86157603Y-43422103D01*
X85947952Y-43353985D01*
X85746732Y-43322115D01*
X85730222Y-43319500D01*
X85509778Y-43319500D01*
X85493268Y-43322115D01*
X85292047Y-43353985D01*
X85082396Y-43422103D01*
X85082393Y-43422104D01*
X84885974Y-43522187D01*
X84707641Y-43651752D01*
X84707636Y-43651756D01*
X84551756Y-43807636D01*
X84551752Y-43807641D01*
X84450318Y-43947254D01*
X84394988Y-43989920D01*
X84325375Y-43995899D01*
X84263580Y-43963293D01*
X84249682Y-43947254D01*
X84148247Y-43807641D01*
X84148243Y-43807636D01*
X83992363Y-43651756D01*
X83992358Y-43651752D01*
X83814025Y-43522187D01*
X83814024Y-43522186D01*
X83814022Y-43522185D01*
X83751096Y-43490122D01*
X83617606Y-43422104D01*
X83617603Y-43422103D01*
X83407952Y-43353985D01*
X83206732Y-43322115D01*
X83190222Y-43319500D01*
X82969778Y-43319500D01*
X82953268Y-43322115D01*
X82752047Y-43353985D01*
X82542396Y-43422103D01*
X82542393Y-43422104D01*
X82345974Y-43522187D01*
X82167641Y-43651752D01*
X82167636Y-43651756D01*
X82011756Y-43807636D01*
X82011752Y-43807641D01*
X81910318Y-43947254D01*
X81854988Y-43989920D01*
X81785375Y-43995899D01*
X81723580Y-43963293D01*
X81709682Y-43947254D01*
X81608247Y-43807641D01*
X81608243Y-43807636D01*
X81452363Y-43651756D01*
X81452358Y-43651752D01*
X81274025Y-43522187D01*
X81274024Y-43522186D01*
X81274022Y-43522185D01*
X81211096Y-43490122D01*
X81077606Y-43422104D01*
X81077603Y-43422103D01*
X80867952Y-43353985D01*
X80666732Y-43322115D01*
X80650222Y-43319500D01*
X80429778Y-43319500D01*
X80413268Y-43322115D01*
X80212047Y-43353985D01*
X80002396Y-43422103D01*
X80002393Y-43422104D01*
X79805974Y-43522187D01*
X79627641Y-43651752D01*
X79627636Y-43651756D01*
X79471756Y-43807636D01*
X79471752Y-43807641D01*
X79342187Y-43985974D01*
X79242104Y-44182393D01*
X79242103Y-44182396D01*
X79173985Y-44392047D01*
X79139500Y-44609778D01*
X79139500Y-45630221D01*
X79173985Y-45847952D01*
X79242103Y-46057603D01*
X79242104Y-46057606D01*
X79310122Y-46191096D01*
X79337466Y-46244761D01*
X79342187Y-46254025D01*
X79471752Y-46432358D01*
X79471756Y-46432363D01*
X79627636Y-46588243D01*
X79627641Y-46588247D01*
X79689183Y-46632959D01*
X79805978Y-46717815D01*
X79934375Y-46783237D01*
X80002393Y-46817895D01*
X80002396Y-46817896D01*
X80087022Y-46845392D01*
X80212049Y-46886015D01*
X80429778Y-46920500D01*
X80429779Y-46920500D01*
X80650221Y-46920500D01*
X80650222Y-46920500D01*
X80867951Y-46886015D01*
X81077606Y-46817895D01*
X81274022Y-46717815D01*
X81452365Y-46588242D01*
X81608242Y-46432365D01*
X81618804Y-46417826D01*
X81709682Y-46292745D01*
X81765011Y-46250079D01*
X81834625Y-46244100D01*
X81896420Y-46276705D01*
X81910318Y-46292745D01*
X82011752Y-46432358D01*
X82011756Y-46432363D01*
X82167636Y-46588243D01*
X82167641Y-46588247D01*
X82229183Y-46632959D01*
X82345978Y-46717815D01*
X82474375Y-46783237D01*
X82542393Y-46817895D01*
X82542396Y-46817896D01*
X82627022Y-46845392D01*
X82752049Y-46886015D01*
X82969778Y-46920500D01*
X82969779Y-46920500D01*
X83190221Y-46920500D01*
X83190222Y-46920500D01*
X83407951Y-46886015D01*
X83617606Y-46817895D01*
X83814022Y-46717815D01*
X83992365Y-46588242D01*
X84148242Y-46432365D01*
X84158804Y-46417826D01*
X84249682Y-46292745D01*
X84305011Y-46250079D01*
X84374625Y-46244100D01*
X84436420Y-46276705D01*
X84450318Y-46292745D01*
X84551752Y-46432358D01*
X84551756Y-46432363D01*
X84707636Y-46588243D01*
X84707641Y-46588247D01*
X84769183Y-46632959D01*
X84885978Y-46717815D01*
X85014375Y-46783237D01*
X85082393Y-46817895D01*
X85082396Y-46817896D01*
X85167022Y-46845392D01*
X85292049Y-46886015D01*
X85509778Y-46920500D01*
X85509779Y-46920500D01*
X85730221Y-46920500D01*
X85730222Y-46920500D01*
X85947951Y-46886015D01*
X86157606Y-46817895D01*
X86354022Y-46717815D01*
X86532365Y-46588242D01*
X86688242Y-46432365D01*
X86698804Y-46417826D01*
X86789682Y-46292745D01*
X86845011Y-46250079D01*
X86914625Y-46244100D01*
X86976420Y-46276705D01*
X86990318Y-46292745D01*
X87091752Y-46432358D01*
X87091756Y-46432363D01*
X87247636Y-46588243D01*
X87247641Y-46588247D01*
X87309183Y-46632959D01*
X87425978Y-46717815D01*
X87554375Y-46783237D01*
X87622393Y-46817895D01*
X87622396Y-46817896D01*
X87707022Y-46845392D01*
X87832049Y-46886015D01*
X88049778Y-46920500D01*
X88049779Y-46920500D01*
X88270221Y-46920500D01*
X88270222Y-46920500D01*
X88487951Y-46886015D01*
X88697606Y-46817895D01*
X88894022Y-46717815D01*
X89072365Y-46588242D01*
X89228242Y-46432365D01*
X89238804Y-46417826D01*
X89329682Y-46292745D01*
X89385011Y-46250079D01*
X89454625Y-46244100D01*
X89516420Y-46276705D01*
X89530318Y-46292745D01*
X89631752Y-46432358D01*
X89631756Y-46432363D01*
X89787636Y-46588243D01*
X89787641Y-46588247D01*
X89849183Y-46632959D01*
X89965978Y-46717815D01*
X90094375Y-46783237D01*
X90162393Y-46817895D01*
X90162396Y-46817896D01*
X90247022Y-46845392D01*
X90372049Y-46886015D01*
X90589778Y-46920500D01*
X90589779Y-46920500D01*
X90810221Y-46920500D01*
X90810222Y-46920500D01*
X91027951Y-46886015D01*
X91237606Y-46817895D01*
X91434022Y-46717815D01*
X91612365Y-46588242D01*
X91768242Y-46432365D01*
X91778804Y-46417826D01*
X91869682Y-46292745D01*
X91925011Y-46250079D01*
X91994625Y-46244100D01*
X92056420Y-46276705D01*
X92070318Y-46292745D01*
X92171752Y-46432358D01*
X92171756Y-46432363D01*
X92327636Y-46588243D01*
X92327641Y-46588247D01*
X92389183Y-46632959D01*
X92505978Y-46717815D01*
X92634375Y-46783237D01*
X92702393Y-46817895D01*
X92702396Y-46817896D01*
X92787022Y-46845392D01*
X92912049Y-46886015D01*
X93129778Y-46920500D01*
X93129779Y-46920500D01*
X93350221Y-46920500D01*
X93350222Y-46920500D01*
X93567951Y-46886015D01*
X93777606Y-46817895D01*
X93974022Y-46717815D01*
X94152365Y-46588242D01*
X94308242Y-46432365D01*
X94318804Y-46417826D01*
X94409682Y-46292745D01*
X94465011Y-46250079D01*
X94534625Y-46244100D01*
X94596420Y-46276705D01*
X94610318Y-46292745D01*
X94711752Y-46432358D01*
X94711756Y-46432363D01*
X94867636Y-46588243D01*
X94867641Y-46588247D01*
X94929183Y-46632959D01*
X95045978Y-46717815D01*
X95174375Y-46783237D01*
X95242393Y-46817895D01*
X95242396Y-46817896D01*
X95327022Y-46845392D01*
X95452049Y-46886015D01*
X95669778Y-46920500D01*
X95669779Y-46920500D01*
X95890221Y-46920500D01*
X95890222Y-46920500D01*
X96107951Y-46886015D01*
X96317606Y-46817895D01*
X96317610Y-46817893D01*
X96338204Y-46807400D01*
X96406873Y-46794503D01*
X96471613Y-46820778D01*
X96511871Y-46877884D01*
X96518500Y-46917884D01*
X96518500Y-63753372D01*
X96498815Y-63820411D01*
X96482181Y-63841053D01*
X54719481Y-105603752D01*
X54719480Y-105603754D01*
X54688372Y-105657635D01*
X54640423Y-105740685D01*
X54599499Y-105893413D01*
X54599499Y-105893415D01*
X54599499Y-106061516D01*
X54599500Y-106061529D01*
X54599500Y-125199902D01*
X54579815Y-125266941D01*
X54563181Y-125287583D01*
X53008002Y-126842761D01*
X52946679Y-126876246D01*
X52876987Y-126871262D01*
X52821054Y-126829390D01*
X52796637Y-126763926D01*
X52796323Y-126754400D01*
X52999307Y-90623302D01*
X53019368Y-90556376D01*
X53072428Y-90510918D01*
X53123305Y-90500000D01*
X66500000Y-90500000D01*
X66500000Y-75989572D01*
X70500400Y-75989572D01*
X70500400Y-76251827D01*
X70527023Y-76454039D01*
X70534630Y-76511816D01*
X70537216Y-76521467D01*
X70602502Y-76765118D01*
X70602505Y-76765128D01*
X70702853Y-77007390D01*
X70702858Y-77007400D01*
X70833975Y-77234503D01*
X70993618Y-77442551D01*
X70993626Y-77442560D01*
X71179040Y-77627974D01*
X71179048Y-77627981D01*
X71387096Y-77787624D01*
X71614199Y-77918741D01*
X71614209Y-77918746D01*
X71856471Y-78019094D01*
X71856481Y-78019098D01*
X72109784Y-78086970D01*
X72369780Y-78121200D01*
X72369787Y-78121200D01*
X72632013Y-78121200D01*
X72632020Y-78121200D01*
X72892016Y-78086970D01*
X73145319Y-78019098D01*
X73387597Y-77918743D01*
X73614703Y-77787624D01*
X73822751Y-77627982D01*
X73822755Y-77627977D01*
X73822760Y-77627974D01*
X74008174Y-77442560D01*
X74008177Y-77442555D01*
X74008182Y-77442551D01*
X74167824Y-77234503D01*
X74298943Y-77007397D01*
X74399298Y-76765119D01*
X74467170Y-76511816D01*
X74501400Y-76251820D01*
X74501400Y-75989580D01*
X74467170Y-75729584D01*
X74399298Y-75476281D01*
X74399294Y-75476271D01*
X74298946Y-75234009D01*
X74298941Y-75233999D01*
X74167824Y-75006896D01*
X74008181Y-74798848D01*
X74008174Y-74798840D01*
X73822760Y-74613426D01*
X73822751Y-74613418D01*
X73614703Y-74453775D01*
X73387600Y-74322658D01*
X73387590Y-74322653D01*
X73145328Y-74222305D01*
X73145321Y-74222303D01*
X73145319Y-74222302D01*
X72892016Y-74154430D01*
X72834239Y-74146823D01*
X72632027Y-74120200D01*
X72632020Y-74120200D01*
X72369780Y-74120200D01*
X72369772Y-74120200D01*
X72140569Y-74150377D01*
X72109784Y-74154430D01*
X71910544Y-74207816D01*
X71856481Y-74222302D01*
X71856471Y-74222305D01*
X71614209Y-74322653D01*
X71614199Y-74322658D01*
X71387096Y-74453775D01*
X71179048Y-74613418D01*
X70993618Y-74798848D01*
X70833975Y-75006896D01*
X70702858Y-75233999D01*
X70702853Y-75234009D01*
X70602505Y-75476271D01*
X70602502Y-75476281D01*
X70534630Y-75729585D01*
X70500400Y-75989572D01*
X66500000Y-75989572D01*
X66500000Y-64000000D01*
X53124000Y-64000000D01*
X53056961Y-63980315D01*
X53011206Y-63927511D01*
X53000000Y-63876000D01*
X53000000Y-58517648D01*
X62359500Y-58517648D01*
X62359500Y-58722351D01*
X62391522Y-58924534D01*
X62454781Y-59119223D01*
X62547715Y-59301613D01*
X62668028Y-59467213D01*
X62812786Y-59611971D01*
X62967749Y-59724556D01*
X62978390Y-59732287D01*
X63094607Y-59791503D01*
X63160776Y-59825218D01*
X63160778Y-59825218D01*
X63160781Y-59825220D01*
X63265137Y-59859127D01*
X63355465Y-59888477D01*
X63456557Y-59904488D01*
X63557648Y-59920500D01*
X63557649Y-59920500D01*
X63762351Y-59920500D01*
X63762352Y-59920500D01*
X63964534Y-59888477D01*
X64159219Y-59825220D01*
X64341610Y-59732287D01*
X64434590Y-59664732D01*
X64507213Y-59611971D01*
X64507215Y-59611968D01*
X64507219Y-59611966D01*
X64651966Y-59467219D01*
X64651968Y-59467215D01*
X64651971Y-59467213D01*
X64704732Y-59394590D01*
X64772287Y-59301610D01*
X64865220Y-59119219D01*
X64928477Y-58924534D01*
X64960500Y-58722352D01*
X64960500Y-58517648D01*
X64928477Y-58315466D01*
X64865220Y-58120781D01*
X64865218Y-58120778D01*
X64865218Y-58120776D01*
X64831503Y-58054607D01*
X64772287Y-57938390D01*
X64764556Y-57927749D01*
X64651971Y-57772786D01*
X64507213Y-57628028D01*
X64341613Y-57507715D01*
X64341612Y-57507714D01*
X64341610Y-57507713D01*
X64284653Y-57478691D01*
X64159223Y-57414781D01*
X63964534Y-57351522D01*
X63789995Y-57323878D01*
X63762352Y-57319500D01*
X63557648Y-57319500D01*
X63533329Y-57323351D01*
X63355465Y-57351522D01*
X63160776Y-57414781D01*
X62978386Y-57507715D01*
X62812786Y-57628028D01*
X62668028Y-57772786D01*
X62547715Y-57938386D01*
X62454781Y-58120776D01*
X62391522Y-58315465D01*
X62359500Y-58517648D01*
X53000000Y-58517648D01*
X53000000Y-53010502D01*
X56829500Y-53010502D01*
X56829500Y-53229497D01*
X56853306Y-53410314D01*
X56858083Y-53446598D01*
X56914759Y-53658117D01*
X56998560Y-53860428D01*
X56998562Y-53860433D01*
X56998565Y-53860438D01*
X57108049Y-54050070D01*
X57241355Y-54223798D01*
X57241361Y-54223805D01*
X57396194Y-54378638D01*
X57396201Y-54378644D01*
X57569929Y-54511950D01*
X57759561Y-54621434D01*
X57759563Y-54621434D01*
X57759572Y-54621440D01*
X57961883Y-54705241D01*
X58173402Y-54761917D01*
X58390510Y-54790500D01*
X58390517Y-54790500D01*
X58609483Y-54790500D01*
X58609490Y-54790500D01*
X58826598Y-54761917D01*
X59038117Y-54705241D01*
X59240428Y-54621440D01*
X59430071Y-54511950D01*
X59603800Y-54378643D01*
X59758643Y-54223800D01*
X59891950Y-54050071D01*
X60001440Y-53860428D01*
X60085241Y-53658117D01*
X60141917Y-53446598D01*
X60170500Y-53229490D01*
X60170500Y-53010510D01*
X60141917Y-52793402D01*
X60085241Y-52581883D01*
X60001440Y-52379572D01*
X59891950Y-52189929D01*
X59758643Y-52016200D01*
X59758638Y-52016194D01*
X59603805Y-51861361D01*
X59603798Y-51861355D01*
X59430070Y-51728049D01*
X59240438Y-51618565D01*
X59240433Y-51618562D01*
X59240428Y-51618560D01*
X59038117Y-51534759D01*
X59038118Y-51534759D01*
X59038115Y-51534758D01*
X58932357Y-51506421D01*
X58826598Y-51478083D01*
X58790314Y-51473306D01*
X58609497Y-51449500D01*
X58609490Y-51449500D01*
X58390510Y-51449500D01*
X58390502Y-51449500D01*
X58183853Y-51476707D01*
X58173402Y-51478083D01*
X58128699Y-51490060D01*
X57961884Y-51534758D01*
X57843374Y-51583847D01*
X57759572Y-51618560D01*
X57759569Y-51618561D01*
X57759561Y-51618565D01*
X57569929Y-51728049D01*
X57396201Y-51861355D01*
X57396194Y-51861361D01*
X57241361Y-52016194D01*
X57241355Y-52016201D01*
X57108049Y-52189929D01*
X56998565Y-52379561D01*
X56998560Y-52379573D01*
X56914758Y-52581884D01*
X56858084Y-52793399D01*
X56858082Y-52793410D01*
X56829500Y-53010502D01*
X53000000Y-53010502D01*
X53000000Y-47972486D01*
X56249500Y-47972486D01*
X56249500Y-48267513D01*
X56281571Y-48511113D01*
X56288007Y-48559993D01*
X56288008Y-48559995D01*
X56364361Y-48844951D01*
X56364364Y-48844961D01*
X56477254Y-49117500D01*
X56477258Y-49117510D01*
X56624761Y-49372993D01*
X56804352Y-49607040D01*
X56804358Y-49607047D01*
X57012952Y-49815641D01*
X57012959Y-49815647D01*
X57247006Y-49995238D01*
X57502489Y-50142741D01*
X57502490Y-50142741D01*
X57502493Y-50142743D01*
X57775048Y-50255639D01*
X58060007Y-50331993D01*
X58352494Y-50370500D01*
X58352501Y-50370500D01*
X58647499Y-50370500D01*
X58647506Y-50370500D01*
X58939993Y-50331993D01*
X59224952Y-50255639D01*
X59497507Y-50142743D01*
X59752994Y-49995238D01*
X59987042Y-49815646D01*
X60195646Y-49607042D01*
X60375238Y-49372994D01*
X60522743Y-49117507D01*
X60635639Y-48844952D01*
X60711993Y-48559993D01*
X60750500Y-48267506D01*
X60750500Y-47972494D01*
X60711993Y-47680007D01*
X60635639Y-47395048D01*
X60522743Y-47122493D01*
X60521592Y-47120500D01*
X60375238Y-46867006D01*
X60195647Y-46632959D01*
X60195641Y-46632952D01*
X59987047Y-46424358D01*
X59987040Y-46424352D01*
X59752993Y-46244761D01*
X59497510Y-46097258D01*
X59497500Y-46097254D01*
X59224961Y-45984364D01*
X59224954Y-45984362D01*
X59224952Y-45984361D01*
X58939993Y-45908007D01*
X58891113Y-45901571D01*
X58647513Y-45869500D01*
X58647506Y-45869500D01*
X58352494Y-45869500D01*
X58352486Y-45869500D01*
X58074085Y-45906153D01*
X58060007Y-45908007D01*
X57775048Y-45984361D01*
X57775038Y-45984364D01*
X57502499Y-46097254D01*
X57502489Y-46097258D01*
X57247006Y-46244761D01*
X57012959Y-46424352D01*
X57012952Y-46424358D01*
X56804358Y-46632952D01*
X56804352Y-46632959D01*
X56624761Y-46867006D01*
X56477258Y-47122489D01*
X56477254Y-47122499D01*
X56364364Y-47395038D01*
X56364361Y-47395048D01*
X56288008Y-47680004D01*
X56288006Y-47680015D01*
X56249500Y-47972486D01*
X53000000Y-47972486D01*
X53000000Y-44988872D01*
X70500400Y-44988872D01*
X70500400Y-45251127D01*
X70527023Y-45453339D01*
X70534630Y-45511116D01*
X70602502Y-45764418D01*
X70602505Y-45764428D01*
X70702853Y-46006690D01*
X70702858Y-46006700D01*
X70833975Y-46233803D01*
X70993618Y-46441851D01*
X70993626Y-46441860D01*
X71179040Y-46627274D01*
X71179048Y-46627281D01*
X71179049Y-46627282D01*
X71227454Y-46664424D01*
X71387096Y-46786924D01*
X71614199Y-46918041D01*
X71614209Y-46918046D01*
X71856471Y-47018394D01*
X71856481Y-47018398D01*
X72109784Y-47086270D01*
X72369780Y-47120500D01*
X72369787Y-47120500D01*
X72632013Y-47120500D01*
X72632020Y-47120500D01*
X72892016Y-47086270D01*
X73145319Y-47018398D01*
X73322240Y-46945114D01*
X73387590Y-46918046D01*
X73387591Y-46918045D01*
X73387597Y-46918043D01*
X73614703Y-46786924D01*
X73822751Y-46627282D01*
X73822755Y-46627277D01*
X73822760Y-46627274D01*
X74008174Y-46441860D01*
X74008177Y-46441855D01*
X74008182Y-46441851D01*
X74167824Y-46233803D01*
X74298943Y-46006697D01*
X74399298Y-45764419D01*
X74467170Y-45511116D01*
X74501400Y-45251120D01*
X74501400Y-44988880D01*
X74467170Y-44728884D01*
X74399298Y-44475581D01*
X74364697Y-44392047D01*
X74298946Y-44233309D01*
X74298941Y-44233299D01*
X74167824Y-44006196D01*
X74045324Y-43846554D01*
X74008182Y-43798149D01*
X74008181Y-43798148D01*
X74008174Y-43798140D01*
X73822760Y-43612726D01*
X73822751Y-43612718D01*
X73614703Y-43453075D01*
X73387600Y-43321958D01*
X73387590Y-43321953D01*
X73145328Y-43221605D01*
X73145321Y-43221603D01*
X73145319Y-43221602D01*
X72892016Y-43153730D01*
X72834239Y-43146123D01*
X72632027Y-43119500D01*
X72632020Y-43119500D01*
X72369780Y-43119500D01*
X72369772Y-43119500D01*
X72141085Y-43149609D01*
X72109784Y-43153730D01*
X71856481Y-43221602D01*
X71856471Y-43221605D01*
X71614209Y-43321953D01*
X71614199Y-43321958D01*
X71387096Y-43453075D01*
X71179048Y-43612718D01*
X70993618Y-43798148D01*
X70833975Y-44006196D01*
X70702858Y-44233299D01*
X70702853Y-44233309D01*
X70602505Y-44475571D01*
X70602502Y-44475581D01*
X70563420Y-44621440D01*
X70534630Y-44728885D01*
X70500400Y-44988872D01*
X53000000Y-44988872D01*
X53000000Y-43010502D01*
X59329500Y-43010502D01*
X59329500Y-43229497D01*
X59341694Y-43322115D01*
X59358083Y-43446598D01*
X59359819Y-43453076D01*
X59413054Y-43651756D01*
X59414759Y-43658117D01*
X59498560Y-43860428D01*
X59498562Y-43860433D01*
X59498565Y-43860438D01*
X59608049Y-44050070D01*
X59741355Y-44223798D01*
X59741361Y-44223805D01*
X59896194Y-44378638D01*
X59896201Y-44378644D01*
X60069929Y-44511950D01*
X60259561Y-44621434D01*
X60259563Y-44621434D01*
X60259572Y-44621440D01*
X60461883Y-44705241D01*
X60673402Y-44761917D01*
X60890510Y-44790500D01*
X60890517Y-44790500D01*
X61109483Y-44790500D01*
X61109490Y-44790500D01*
X61326598Y-44761917D01*
X61538117Y-44705241D01*
X61740428Y-44621440D01*
X61930071Y-44511950D01*
X62103800Y-44378643D01*
X62258643Y-44223800D01*
X62391950Y-44050071D01*
X62501440Y-43860428D01*
X62585241Y-43658117D01*
X62641917Y-43446598D01*
X62670500Y-43229490D01*
X62670500Y-43010510D01*
X62641917Y-42793402D01*
X62585241Y-42581883D01*
X62501440Y-42379572D01*
X62391950Y-42189929D01*
X62258643Y-42016200D01*
X62258638Y-42016194D01*
X62103805Y-41861361D01*
X62103798Y-41861355D01*
X61930070Y-41728049D01*
X61740438Y-41618565D01*
X61740433Y-41618562D01*
X61740428Y-41618560D01*
X61538117Y-41534759D01*
X61538118Y-41534759D01*
X61538115Y-41534758D01*
X61432357Y-41506421D01*
X61326598Y-41478083D01*
X61290314Y-41473306D01*
X61109497Y-41449500D01*
X61109490Y-41449500D01*
X60890510Y-41449500D01*
X60890502Y-41449500D01*
X60683853Y-41476707D01*
X60673402Y-41478083D01*
X60628699Y-41490060D01*
X60461884Y-41534758D01*
X60343374Y-41583847D01*
X60259572Y-41618560D01*
X60259569Y-41618561D01*
X60259561Y-41618565D01*
X60069929Y-41728049D01*
X59896201Y-41861355D01*
X59896194Y-41861361D01*
X59741361Y-42016194D01*
X59741355Y-42016201D01*
X59608049Y-42189929D01*
X59498565Y-42379561D01*
X59498560Y-42379573D01*
X59414758Y-42581884D01*
X59358084Y-42793399D01*
X59358082Y-42793410D01*
X59329500Y-43010502D01*
X53000000Y-43010502D01*
X53000000Y-37517648D01*
X65699500Y-37517648D01*
X65699500Y-37722351D01*
X65731522Y-37924534D01*
X65794781Y-38119223D01*
X65887715Y-38301613D01*
X66008028Y-38467213D01*
X66152786Y-38611971D01*
X66307749Y-38724556D01*
X66318390Y-38732287D01*
X66434607Y-38791503D01*
X66500776Y-38825218D01*
X66500778Y-38825218D01*
X66500781Y-38825220D01*
X66605137Y-38859127D01*
X66695465Y-38888477D01*
X66796557Y-38904488D01*
X66897648Y-38920500D01*
X66897649Y-38920500D01*
X67102351Y-38920500D01*
X67102352Y-38920500D01*
X67304534Y-38888477D01*
X67499219Y-38825220D01*
X67681610Y-38732287D01*
X67774590Y-38664732D01*
X67847213Y-38611971D01*
X67847215Y-38611968D01*
X67847219Y-38611966D01*
X67991966Y-38467219D01*
X67991968Y-38467215D01*
X67991971Y-38467213D01*
X68044732Y-38394590D01*
X68112287Y-38301610D01*
X68205220Y-38119219D01*
X68268477Y-37924534D01*
X68300500Y-37722352D01*
X68300500Y-37517648D01*
X68268477Y-37315466D01*
X68255805Y-37276467D01*
X68239127Y-37225137D01*
X68205220Y-37120781D01*
X68205218Y-37120778D01*
X68205218Y-37120776D01*
X68171503Y-37054607D01*
X68112287Y-36938390D01*
X68104556Y-36927749D01*
X67991971Y-36772786D01*
X67847213Y-36628028D01*
X67681613Y-36507715D01*
X67681612Y-36507714D01*
X67681610Y-36507713D01*
X67624653Y-36478691D01*
X67499223Y-36414781D01*
X67304534Y-36351522D01*
X67129995Y-36323878D01*
X67102352Y-36319500D01*
X66897648Y-36319500D01*
X66873329Y-36323351D01*
X66695465Y-36351522D01*
X66500776Y-36414781D01*
X66318386Y-36507715D01*
X66152786Y-36628028D01*
X66008028Y-36772786D01*
X65887715Y-36938386D01*
X65794781Y-37120776D01*
X65731522Y-37315465D01*
X65699500Y-37517648D01*
X53000000Y-37517648D01*
X53000000Y-37000325D01*
X53019685Y-36933286D01*
X53072489Y-36887531D01*
X53141647Y-36877587D01*
X53201311Y-36903377D01*
X53260961Y-36950946D01*
X53546314Y-37130246D01*
X53849949Y-37276469D01*
X54088848Y-37360063D01*
X54168034Y-37387772D01*
X54168046Y-37387776D01*
X54496606Y-37462767D01*
X54831492Y-37500499D01*
X54831493Y-37500500D01*
X54831496Y-37500500D01*
X55168507Y-37500500D01*
X55168507Y-37500499D01*
X55503394Y-37462767D01*
X55694149Y-37419228D01*
X55813952Y-37391885D01*
X55822314Y-37389976D01*
X55831954Y-37387776D01*
X56150051Y-37276469D01*
X56453686Y-37130246D01*
X56739039Y-36950946D01*
X57002523Y-36740825D01*
X57240825Y-36502523D01*
X57450946Y-36239039D01*
X57630246Y-35953686D01*
X57776469Y-35650051D01*
X57887776Y-35331954D01*
X57962767Y-35003394D01*
X58000500Y-34668504D01*
X58000500Y-34331496D01*
X57962767Y-33996606D01*
X57887776Y-33668046D01*
X57776469Y-33349949D01*
X57630246Y-33046314D01*
X57450946Y-32760961D01*
X57384568Y-32677725D01*
X57358160Y-32613038D01*
X57370917Y-32544343D01*
X57418788Y-32493450D01*
X57480858Y-32476416D01*
X75046124Y-32383967D01*
X75113266Y-32403298D01*
G37*
%TD.AperFunction*%
%TD*%
M02*
