%TF.GenerationSoftware,KiCad,Pcbnew,9.0.6*%
%TF.CreationDate,2025-11-16T18:38:50-05:00*%
%TF.ProjectId,Clock Module,436c6f63-6b20-44d6-9f64-756c652e6b69,rev?*%
%TF.SameCoordinates,Original*%
%TF.FileFunction,Copper,L1,Top*%
%TF.FilePolarity,Positive*%
%FSLAX46Y46*%
G04 Gerber Fmt 4.6, Leading zero omitted, Abs format (unit mm)*
G04 Created by KiCad (PCBNEW 9.0.6) date 2025-11-16 18:38:50*
%MOMM*%
%LPD*%
G01*
G04 APERTURE LIST*
G04 Aperture macros list*
%AMRoundRect*
0 Rectangle with rounded corners*
0 $1 Rounding radius*
0 $2 $3 $4 $5 $6 $7 $8 $9 X,Y pos of 4 corners*
0 Add a 4 corners polygon primitive as box body*
4,1,4,$2,$3,$4,$5,$6,$7,$8,$9,$2,$3,0*
0 Add four circle primitives for the rounded corners*
1,1,$1+$1,$2,$3*
1,1,$1+$1,$4,$5*
1,1,$1+$1,$6,$7*
1,1,$1+$1,$8,$9*
0 Add four rect primitives between the rounded corners*
20,1,$1+$1,$2,$3,$4,$5,0*
20,1,$1+$1,$4,$5,$6,$7,0*
20,1,$1+$1,$6,$7,$8,$9,0*
20,1,$1+$1,$8,$9,$2,$3,0*%
G04 Aperture macros list end*
%TA.AperFunction,ComponentPad*%
%ADD10R,1.600000X1.600000*%
%TD*%
%TA.AperFunction,ComponentPad*%
%ADD11C,1.600000*%
%TD*%
%TA.AperFunction,ComponentPad*%
%ADD12RoundRect,0.250000X-0.550000X0.550000X-0.550000X-0.550000X0.550000X-0.550000X0.550000X0.550000X0*%
%TD*%
%TA.AperFunction,ComponentPad*%
%ADD13C,1.700000*%
%TD*%
%TA.AperFunction,ComponentPad*%
%ADD14R,1.700000X1.700000*%
%TD*%
%TA.AperFunction,ComponentPad*%
%ADD15C,2.000000*%
%TD*%
%TA.AperFunction,ComponentPad*%
%ADD16R,1.500000X1.500000*%
%TD*%
%TA.AperFunction,ComponentPad*%
%ADD17RoundRect,0.250000X0.350000X0.350000X-0.350000X0.350000X-0.350000X-0.350000X0.350000X-0.350000X0*%
%TD*%
%TA.AperFunction,ComponentPad*%
%ADD18C,1.200000*%
%TD*%
%TA.AperFunction,ComponentPad*%
%ADD19RoundRect,0.250000X0.550000X-0.550000X0.550000X0.550000X-0.550000X0.550000X-0.550000X-0.550000X0*%
%TD*%
%TA.AperFunction,ComponentPad*%
%ADD20RoundRect,0.250000X-0.350000X-0.350000X0.350000X-0.350000X0.350000X0.350000X-0.350000X0.350000X0*%
%TD*%
%TA.AperFunction,ComponentPad*%
%ADD21RoundRect,0.250000X-0.550000X-0.550000X0.550000X-0.550000X0.550000X0.550000X-0.550000X0.550000X0*%
%TD*%
%TA.AperFunction,ComponentPad*%
%ADD22C,1.440000*%
%TD*%
%TA.AperFunction,Conductor*%
%ADD23C,0.200000*%
%TD*%
G04 APERTURE END LIST*
D10*
%TO.P,Y1,1,EN*%
%TO.N,+5V*%
X235690000Y-47810000D03*
D11*
%TO.P,Y1,4,GND*%
%TO.N,GND*%
X243310000Y-47810000D03*
%TO.P,Y1,5,OUT*%
%TO.N,Net-(Y1-OUT)*%
X243310000Y-40190000D03*
%TO.P,Y1,8,Vcc*%
%TO.N,+5V*%
X235690000Y-40190000D03*
%TD*%
D12*
%TO.P,U6,1,GND*%
%TO.N,GND*%
X169310000Y-39690000D03*
D11*
%TO.P,U6,2,TR*%
%TO.N,Net-(U6-TR)*%
X166770000Y-39690000D03*
%TO.P,U6,3,Q*%
%TO.N,Net-(U6-Q)*%
X164230000Y-39690000D03*
%TO.P,U6,4,R*%
%TO.N,+5V*%
X161690000Y-39690000D03*
%TO.P,U6,5,CV*%
%TO.N,Net-(U6-CV)*%
X161690000Y-47310000D03*
%TO.P,U6,6,THR*%
%TO.N,Net-(U6-DIS)*%
X164230000Y-47310000D03*
%TO.P,U6,7,DIS*%
X166770000Y-47310000D03*
%TO.P,U6,8,VCC*%
%TO.N,+5V*%
X169310000Y-47310000D03*
%TD*%
D13*
%TO.P,J2,1,Pin_1*%
%TO.N,+5V*%
X157540000Y-26500000D03*
D14*
%TO.P,J2,2,Pin_2*%
%TO.N,GND*%
X155000000Y-26500000D03*
%TD*%
D11*
%TO.P,C6,1*%
%TO.N,+5V*%
X154500000Y-39250000D03*
%TO.P,C6,2*%
%TO.N,GND*%
X154500000Y-41750000D03*
%TD*%
D15*
%TO.P,SW1,1,1*%
%TO.N,GND*%
X217500000Y-26000000D03*
X224000000Y-26000000D03*
%TO.P,SW1,2,2*%
%TO.N,Net-(U3-TR)*%
X217500000Y-30500000D03*
X224000000Y-30500000D03*
%TD*%
D14*
%TO.P,J1,1,Pin_1*%
%TO.N,Clock*%
X165500000Y-67500000D03*
D13*
%TO.P,J1,2,Pin_2*%
%TO.N,Reset*%
X162960000Y-67500000D03*
%TD*%
D11*
%TO.P,R1,1*%
%TO.N,Net-(U3-TR)*%
X230625000Y-42190000D03*
%TO.P,R1,2*%
%TO.N,+5V*%
X223005000Y-42190000D03*
%TD*%
%TO.P,R5,1*%
%TO.N,Net-(U6-TR)*%
X168810000Y-35000000D03*
%TO.P,R5,2*%
%TO.N,+5V*%
X161190000Y-35000000D03*
%TD*%
%TO.P,R2,1*%
%TO.N,+5V*%
X187310000Y-53000000D03*
%TO.P,R2,2*%
%TO.N,Net-(U2-DIS)*%
X179690000Y-53000000D03*
%TD*%
D16*
%TO.P,SW3,1,A*%
%TO.N,GND*%
X192460000Y-26000000D03*
D11*
%TO.P,SW3,2,B*%
%TO.N,Net-(SW3-B)*%
X189920000Y-26000000D03*
%TO.P,SW3,3,C*%
%TO.N,+5V*%
X195000000Y-26000000D03*
%TD*%
%TO.P,C1,1*%
%TO.N,Net-(U2-CV)*%
X173500000Y-53000000D03*
%TO.P,C1,2*%
%TO.N,GND*%
X176000000Y-53000000D03*
%TD*%
D17*
%TO.P,C4,1*%
%TO.N,Net-(U3-DIS)*%
X205787600Y-44190000D03*
D18*
%TO.P,C4,2*%
%TO.N,GND*%
X203787600Y-44190000D03*
%TD*%
D19*
%TO.P,U1,1*%
%TO.N,Net-(Y1-OUT)*%
X198260000Y-67120000D03*
D11*
%TO.P,U1,2*%
%TO.N,Net-(U4A-C)*%
X200800000Y-67120000D03*
%TO.P,U1,3*%
%TO.N,Net-(SW3-B)*%
X203340000Y-67120000D03*
%TO.P,U1,4*%
%TO.N,Net-(U1-Pad4)*%
X205880000Y-67120000D03*
%TO.P,U1,5*%
%TO.N,Net-(U6-Q)*%
X208420000Y-67120000D03*
%TO.P,U1,6*%
%TO.N,Reset*%
X210960000Y-67120000D03*
%TO.P,U1,7,GND*%
%TO.N,GND*%
X213500000Y-67120000D03*
%TO.P,U1,8*%
%TO.N,unconnected-(U1-Pad8)*%
X213500000Y-59500000D03*
%TO.P,U1,9*%
%TO.N,+5V*%
X210960000Y-59500000D03*
%TO.P,U1,10*%
%TO.N,unconnected-(U1-Pad10)*%
X208420000Y-59500000D03*
%TO.P,U1,11*%
%TO.N,+5V*%
X205880000Y-59500000D03*
%TO.P,U1,12*%
%TO.N,unconnected-(U1-Pad12)*%
X203340000Y-59500000D03*
%TO.P,U1,13*%
%TO.N,+5V*%
X200800000Y-59500000D03*
%TO.P,U1,14,VCC*%
X198260000Y-59500000D03*
%TD*%
%TO.P,R3,1*%
%TO.N,Net-(U2-DIS)*%
X189880000Y-53000000D03*
%TO.P,R3,2*%
%TO.N,Net-(R3-Pad2)*%
X197500000Y-53000000D03*
%TD*%
D20*
%TO.P,C3,1*%
%TO.N,Net-(U2-THR)*%
X197500000Y-44000000D03*
D18*
%TO.P,C3,2*%
%TO.N,GND*%
X199500000Y-44000000D03*
%TD*%
D11*
%TO.P,C2,1*%
%TO.N,Net-(U3-CV)*%
X205815000Y-51190000D03*
%TO.P,C2,2*%
%TO.N,GND*%
X203315000Y-51190000D03*
%TD*%
D16*
%TO.P,SW2,1,A*%
%TO.N,Net-(SW2-A)*%
X207460000Y-26000000D03*
D11*
%TO.P,SW2,2,B*%
%TO.N,Net-(SW2-B)*%
X210000000Y-26000000D03*
%TO.P,SW2,3,C*%
%TO.N,Slow Clock*%
X204920000Y-26000000D03*
%TD*%
D21*
%TO.P,U3,1,GND*%
%TO.N,GND*%
X211195000Y-42190000D03*
D11*
%TO.P,U3,2,TR*%
%TO.N,Net-(U3-TR)*%
X211195000Y-44730000D03*
%TO.P,U3,3,Q*%
%TO.N,Net-(SW2-A)*%
X211195000Y-47270000D03*
%TO.P,U3,4,R*%
%TO.N,+5V*%
X211195000Y-49810000D03*
%TO.P,U3,5,CV*%
%TO.N,Net-(U3-CV)*%
X218815000Y-49810000D03*
%TO.P,U3,6,THR*%
%TO.N,Net-(U3-DIS)*%
X218815000Y-47270000D03*
%TO.P,U3,7,DIS*%
X218815000Y-44730000D03*
%TO.P,U3,8,VCC*%
%TO.N,+5V*%
X218815000Y-42190000D03*
%TD*%
D13*
%TO.P,J3,1,Pin_1*%
%TO.N,+5V*%
X157775000Y-67500000D03*
D14*
%TO.P,J3,2,Pin_2*%
%TO.N,GND*%
X155235000Y-67500000D03*
%TD*%
D12*
%TO.P,U2,1,GND*%
%TO.N,GND*%
X184000000Y-39380000D03*
D11*
%TO.P,U2,2,TR*%
%TO.N,Net-(U2-THR)*%
X181460000Y-39380000D03*
%TO.P,U2,3,Q*%
%TO.N,Slow Clock*%
X178920000Y-39380000D03*
%TO.P,U2,4,R*%
%TO.N,+5V*%
X176380000Y-39380000D03*
%TO.P,U2,5,CV*%
%TO.N,Net-(U2-CV)*%
X176380000Y-47000000D03*
%TO.P,U2,6,THR*%
%TO.N,Net-(U2-THR)*%
X178920000Y-47000000D03*
%TO.P,U2,7,DIS*%
%TO.N,Net-(U2-DIS)*%
X181460000Y-47000000D03*
%TO.P,U2,8,VCC*%
%TO.N,+5V*%
X184000000Y-47000000D03*
%TD*%
D12*
%TO.P,U5,1*%
%TO.N,Net-(SW3-B)*%
X190000000Y-59500000D03*
D11*
%TO.P,U5,2*%
%TO.N,Net-(SW2-B)*%
X187460000Y-59500000D03*
%TO.P,U5,3*%
%TO.N,Net-(U5-Pad13)*%
X184920000Y-59500000D03*
%TO.P,U5,4*%
%TO.N,+5V*%
X182380000Y-59500000D03*
%TO.P,U5,5*%
X179840000Y-59500000D03*
%TO.P,U5,6*%
%TO.N,unconnected-(U5-Pad6)*%
X177300000Y-59500000D03*
%TO.P,U5,7,GND*%
%TO.N,GND*%
X174760000Y-59500000D03*
%TO.P,U5,8*%
%TO.N,Net-(U5-Pad12)*%
X174760000Y-67120000D03*
%TO.P,U5,9*%
%TO.N,Fast Clock*%
X177300000Y-67120000D03*
%TO.P,U5,10*%
%TO.N,Net-(U1-Pad4)*%
X179840000Y-67120000D03*
%TO.P,U5,11*%
%TO.N,Clock*%
X182380000Y-67120000D03*
%TO.P,U5,12*%
%TO.N,Net-(U5-Pad12)*%
X184920000Y-67120000D03*
%TO.P,U5,13*%
%TO.N,Net-(U5-Pad13)*%
X187460000Y-67120000D03*
%TO.P,U5,14,VCC*%
%TO.N,+5V*%
X190000000Y-67120000D03*
%TD*%
D22*
%TO.P,RV1,1,1*%
%TO.N,Net-(U2-THR)*%
X190960000Y-46040000D03*
%TO.P,RV1,2,2*%
%TO.N,Net-(R3-Pad2)*%
X193500000Y-43500000D03*
%TO.P,RV1,3,3*%
%TO.N,unconnected-(RV1-Pad3)*%
X190960000Y-40960000D03*
%TD*%
D15*
%TO.P,SW4,1,1*%
%TO.N,GND*%
X176500000Y-26000000D03*
X183000000Y-26000000D03*
%TO.P,SW4,2,2*%
%TO.N,Net-(U6-TR)*%
X176500000Y-30500000D03*
X183000000Y-30500000D03*
%TD*%
D17*
%TO.P,C7,1*%
%TO.N,Net-(U6-DIS)*%
X156000000Y-55000000D03*
D18*
%TO.P,C7,2*%
%TO.N,GND*%
X154000000Y-55000000D03*
%TD*%
D11*
%TO.P,R4,1*%
%TO.N,Net-(U3-DIS)*%
X223005000Y-49190000D03*
%TO.P,R4,2*%
%TO.N,+5V*%
X230625000Y-49190000D03*
%TD*%
%TO.P,R6,1*%
%TO.N,Net-(U6-DIS)*%
X161190000Y-53000000D03*
%TO.P,R6,2*%
%TO.N,+5V*%
X168810000Y-53000000D03*
%TD*%
%TO.P,C5,1*%
%TO.N,Net-(U6-CV)*%
X154500000Y-48250000D03*
%TO.P,C5,2*%
%TO.N,GND*%
X154500000Y-45750000D03*
%TD*%
D19*
%TO.P,U4,1,~{R}*%
%TO.N,+5V*%
X221460000Y-67120000D03*
D11*
%TO.P,U4,2,J*%
X224000000Y-67120000D03*
%TO.P,U4,3,~{K}*%
X226540000Y-67120000D03*
%TO.P,U4,4,C*%
%TO.N,Net-(U4A-C)*%
X229080000Y-67120000D03*
%TO.P,U4,5,~{S}*%
%TO.N,+5V*%
X231620000Y-67120000D03*
%TO.P,U4,6,Q*%
%TO.N,unconnected-(U4A-Q-Pad6)*%
X234160000Y-67120000D03*
%TO.P,U4,7,~{Q}*%
%TO.N,Net-(U4A-~{Q})*%
X236700000Y-67120000D03*
%TO.P,U4,8,GND*%
%TO.N,GND*%
X239240000Y-67120000D03*
%TO.P,U4,9,~{Q}*%
%TO.N,Fast Clock*%
X239240000Y-59500000D03*
%TO.P,U4,10,Q*%
%TO.N,unconnected-(U4B-Q-Pad10)*%
X236700000Y-59500000D03*
%TO.P,U4,11,~{S}*%
%TO.N,+5V*%
X234160000Y-59500000D03*
%TO.P,U4,12,C*%
%TO.N,Net-(U4A-~{Q})*%
X231620000Y-59500000D03*
%TO.P,U4,13,~{K}*%
%TO.N,+5V*%
X229080000Y-59500000D03*
%TO.P,U4,14,J*%
X226540000Y-59500000D03*
%TO.P,U4,15,~{R}*%
X224000000Y-59500000D03*
%TO.P,U4,16,VCC*%
X221460000Y-59500000D03*
%TD*%
D23*
%TO.N,+5V*%
X154500000Y-39250000D02*
X161250000Y-39250000D01*
X235690000Y-47810000D02*
X232005000Y-47810000D01*
X204779000Y-60601000D02*
X201901000Y-60601000D01*
X169310000Y-47310000D02*
X169310000Y-47810000D01*
X206981000Y-60601000D02*
X205880000Y-59500000D01*
X184000000Y-47000000D02*
X176380000Y-39380000D01*
X221460000Y-67120000D02*
X224000000Y-67120000D01*
X186021000Y-67521000D02*
X186021000Y-63141000D01*
X235690000Y-55630000D02*
X235690000Y-47810000D01*
X224000000Y-67120000D02*
X226540000Y-67120000D01*
X195000000Y-26000000D02*
X195000000Y-26500000D01*
X229080000Y-51670000D02*
X229080000Y-59500000D01*
X211195000Y-59265000D02*
X210960000Y-59500000D01*
X212061000Y-58399000D02*
X220359000Y-58399000D01*
X226540000Y-59500000D02*
X226540000Y-62040000D01*
X195000000Y-26000000D02*
X196101000Y-27101000D01*
X188899000Y-68221000D02*
X186721000Y-68221000D01*
X218815000Y-42190000D02*
X223005000Y-42190000D01*
X232005000Y-47810000D02*
X230625000Y-49190000D01*
X206021000Y-26456050D02*
X206021000Y-25543950D01*
X196101000Y-27101000D02*
X205376050Y-27101000D01*
X205376050Y-27101000D02*
X206021000Y-26456050D01*
X187310000Y-53000000D02*
X187310000Y-54570000D01*
X186021000Y-63141000D02*
X182380000Y-59500000D01*
X168810000Y-48310000D02*
X168810000Y-53000000D01*
X175580001Y-38580001D02*
X162799999Y-38580001D01*
X176380000Y-39380000D02*
X175580001Y-38580001D01*
X161250000Y-39250000D02*
X161690000Y-39690000D01*
X230625000Y-49190000D02*
X230625000Y-50125000D01*
X186721000Y-68221000D02*
X186021000Y-67521000D01*
X234160000Y-57160000D02*
X235690000Y-55630000D01*
X206021000Y-25543950D02*
X205376050Y-24899000D01*
X226540000Y-62040000D02*
X231620000Y-67120000D01*
X223005000Y-42190000D02*
X230005000Y-49190000D01*
X161190000Y-30150000D02*
X161190000Y-35000000D01*
X210960000Y-59500000D02*
X209859000Y-60601000D01*
X161690000Y-39690000D02*
X169310000Y-47310000D01*
X219279000Y-69301000D02*
X221460000Y-67120000D01*
X182380000Y-59500000D02*
X179840000Y-59500000D01*
X192181000Y-69301000D02*
X219279000Y-69301000D01*
X210960000Y-59500000D02*
X212061000Y-58399000D01*
X210456050Y-24899000D02*
X216199000Y-30641950D01*
X200800000Y-59500000D02*
X198260000Y-59500000D01*
X220359000Y-58399000D02*
X221460000Y-59500000D01*
X187310000Y-53000000D02*
X187310000Y-50310000D01*
X209859000Y-60601000D02*
X206981000Y-60601000D01*
X161190000Y-35000000D02*
X161190000Y-39190000D01*
X230625000Y-50125000D02*
X229080000Y-51670000D01*
X169310000Y-47810000D02*
X168810000Y-48310000D01*
X157540000Y-26500000D02*
X161190000Y-30150000D01*
X161190000Y-39190000D02*
X161690000Y-39690000D01*
X201901000Y-60601000D02*
X200800000Y-59500000D01*
X205376050Y-24899000D02*
X210456050Y-24899000D01*
X216199000Y-39574000D02*
X218815000Y-42190000D01*
X235690000Y-40190000D02*
X235690000Y-47810000D01*
X234160000Y-59500000D02*
X234160000Y-57160000D01*
X187310000Y-54570000D02*
X182380000Y-59500000D01*
X205880000Y-59500000D02*
X204779000Y-60601000D01*
X211195000Y-49810000D02*
X211195000Y-59265000D01*
X187310000Y-50310000D02*
X184000000Y-47000000D01*
X162799999Y-38580001D02*
X161690000Y-39690000D01*
X216199000Y-30641950D02*
X216199000Y-39574000D01*
X230005000Y-49190000D02*
X230625000Y-49190000D01*
X168810000Y-56465000D02*
X157775000Y-67500000D01*
X190000000Y-67120000D02*
X192181000Y-69301000D01*
X190000000Y-67120000D02*
X188899000Y-68221000D01*
X168810000Y-53000000D02*
X168810000Y-56465000D01*
%TO.N,Slow Clock*%
X178920000Y-39380000D02*
X184356850Y-33943150D01*
X189463950Y-24899000D02*
X203819000Y-24899000D01*
X203819000Y-24899000D02*
X204920000Y-26000000D01*
X184356850Y-33943150D02*
X184356850Y-30006100D01*
X184356850Y-30006100D02*
X189463950Y-24899000D01*
%TO.N,Net-(SW2-A)*%
X207500000Y-43575000D02*
X211195000Y-47270000D01*
X207460000Y-26000000D02*
X207500000Y-26000000D01*
X207500000Y-26000000D02*
X207500000Y-43575000D01*
%TO.N,Clock*%
X166981000Y-66019000D02*
X181279000Y-66019000D01*
X181279000Y-66019000D02*
X182380000Y-67120000D01*
X165500000Y-67500000D02*
X166981000Y-66019000D01*
%TO.N,Net-(Y1-OUT)*%
X242279000Y-68221000D02*
X244500000Y-66000000D01*
X244500000Y-41380000D02*
X243310000Y-40190000D01*
X199240000Y-68900000D02*
X201142736Y-68900000D01*
X228285950Y-68221000D02*
X242279000Y-68221000D01*
X227641000Y-66663950D02*
X227641000Y-67576050D01*
X227641000Y-67576050D02*
X228285950Y-68221000D01*
X220674840Y-66019000D02*
X226996050Y-66019000D01*
X201142736Y-68900000D02*
X201821736Y-68221000D01*
X198260000Y-67920000D02*
X199240000Y-68900000D01*
X226996050Y-66019000D02*
X227641000Y-66663950D01*
X218472840Y-68221000D02*
X220674840Y-66019000D01*
X201821736Y-68221000D02*
X218472840Y-68221000D01*
X198260000Y-67120000D02*
X198260000Y-67920000D01*
X244500000Y-66000000D02*
X244500000Y-41380000D01*
%TO.N,Net-(U2-CV)*%
X173500000Y-53000000D02*
X173500000Y-49880000D01*
X173500000Y-49880000D02*
X176380000Y-47000000D01*
%TO.N,Net-(U2-THR)*%
X181460000Y-39380000D02*
X188120000Y-46040000D01*
X188120000Y-46040000D02*
X190960000Y-46040000D01*
%TO.N,Net-(U3-DIS)*%
X205787600Y-44190000D02*
X206387600Y-44190000D01*
X220735000Y-49190000D02*
X218815000Y-47270000D01*
X218815000Y-44730000D02*
X218815000Y-47270000D01*
X206387600Y-44190000D02*
X210568600Y-48371000D01*
X215174000Y-48371000D02*
X218815000Y-44730000D01*
X223005000Y-49190000D02*
X220735000Y-49190000D01*
X210568600Y-48371000D02*
X215174000Y-48371000D01*
%TO.N,Net-(U6-CV)*%
X160750000Y-48250000D02*
X161690000Y-47310000D01*
X154500000Y-48250000D02*
X160750000Y-48250000D01*
%TO.N,Net-(U6-DIS)*%
X161190000Y-53000000D02*
X158000000Y-53000000D01*
X164230000Y-47770000D02*
X161190000Y-50810000D01*
X166770000Y-47310000D02*
X164230000Y-47310000D01*
X164230000Y-47310000D02*
X164230000Y-47770000D01*
X161190000Y-50810000D02*
X161190000Y-53000000D01*
X158000000Y-53000000D02*
X156000000Y-55000000D01*
%TO.N,Net-(U2-DIS)*%
X179690000Y-48770000D02*
X181460000Y-47000000D01*
X179690000Y-53000000D02*
X179690000Y-48770000D01*
%TO.N,Net-(R3-Pad2)*%
X197500000Y-53000000D02*
X197500000Y-47500000D01*
X197500000Y-47500000D02*
X193500000Y-43500000D01*
%TO.N,Net-(SW3-B)*%
X199361000Y-67905160D02*
X199361000Y-66334840D01*
X203340000Y-67120000D02*
X202355636Y-67120000D01*
X200976636Y-68499000D02*
X199954840Y-68499000D01*
X192526160Y-59500000D02*
X190000000Y-59500000D01*
X191981000Y-58319000D02*
X191981000Y-28061000D01*
X190800000Y-59500000D02*
X191981000Y-58319000D01*
X202355636Y-67120000D02*
X200976636Y-68499000D01*
X190000000Y-59500000D02*
X190800000Y-59500000D01*
X199954840Y-68499000D02*
X199361000Y-67905160D01*
X191981000Y-28061000D02*
X189920000Y-26000000D01*
X199361000Y-66334840D02*
X192526160Y-59500000D01*
%TO.N,Net-(U4A-C)*%
X226560000Y-64600000D02*
X203320000Y-64600000D01*
X229080000Y-67120000D02*
X226560000Y-64600000D01*
X203320000Y-64600000D02*
X200800000Y-67120000D01*
%TO.N,Net-(U4A-~{Q})*%
X231620000Y-62040000D02*
X236700000Y-67120000D01*
X231620000Y-59500000D02*
X231620000Y-62040000D01*
%TO.N,Net-(U5-Pad13)*%
X187460000Y-62040000D02*
X187460000Y-67120000D01*
X184920000Y-59500000D02*
X187460000Y-62040000D01*
%TO.N,Net-(U5-Pad12)*%
X184920000Y-67120000D02*
X183819000Y-68221000D01*
X175861000Y-68221000D02*
X174760000Y-67120000D01*
X183819000Y-68221000D02*
X175861000Y-68221000D01*
%TD*%
M02*
